<?xml version="1.0" encoding="utf-8"?>
<!-- Generator: Adobe Illustrator 19.0.0, SVG Export Plug-In . SVG Version: 6.00 Build 0)  -->
<svg version="1.1" id="Layer_1" xmlns="http://www.w3.org/2000/svg" xmlns:xlink="http://www.w3.org/1999/xlink" x="0px" y="0px"
	 viewBox="0 0 330 213" style="enable-background:new 0 0 330 213;" xml:space="preserve">
<style type="text/css">
	.st0{fill:#FFFFFF;}
</style>
<g>
	<path class="st0" d="M0,188.7c0-2.8,0.6-5.5,2.1-7.9c1.6-2.5,1.8-5.8,3.4-8.3c6.1-9.8,11.6-20.1,17-30.3
		c6.7-12.7,12.8-25.8,19.8-38.3C52,86.4,58.9,67.5,70.8,51.3c5.3-7.2,4.4-5.4,12.1-1.8c10.1,4.8,13.8,13.7,19,21.7
		c5.4,8.3,9.3,17.6,12.7,27c0.8,2.2,1.5,4.4,1.5,6.8c0,1.9,0.7,3.9,2.5,4.6c4.2,1.9,7.6,4.6,10.1,8.5c0.7,1.1,2,1.5,3.4,1.9
		c6.7,1.9,9.8,11.2,5.7,16.7c-4.7,6.3-4.6,13.4-0.4,20.2c4.6,7.4,11,13.7,14.3,22.1c1.5,3.8,1.5,7.4,1,11.2c-0.7,6.1-6.4,7-14.6,6.5
		c-9.1-0.5-14-7-17.8-14.2c-3.5-6.7-6.6-13.7-9.8-20.7c-1.8-4-5-4.2-8.7-3.8c-15.6,1.8-31.1,1.6-46-4.3c-3-1.2-3.9,0.3-4.8,2.5
		c-7.2,16.2-14.4,32.5-21.5,48.8c-1,2.4-1.9,4.5-4.8,5.1c-0.4,0.1-0.7,0.2-0.9,0.5c-1.4,1.3-3.2,2.3-5.1,2.3h-1.2
		c-3.3,0-6.4-1.3-8.6-3.7c-1.2-1.3-2.4-2.5-3.7-3.8c-3.3-3.1-5.2-7.4-5.2-11.9L0,188.7z M77.2,110.9c2.8,0.5,5.4-0.6,8.2-0.9
		c2.4-0.2,2.7-1.3,1.9-3.3c-1.9-4.9-3.7-9.9-5.6-14.8c-0.7-1.8-2.4-2.5-3.3-0.6c-2.5,5.6-6.2,10.6-8,16.5c-0.6,2,0.4,2.9,2.1,3.1
		C74.1,111.1,75.6,110.9,77.2,110.9z"/>
	<path class="st0" d="M330,24c-0.6,0.3-1.5,0.4-1.7,0.9c-2.2,6.3-4.9,12.4-6,18.9c-0.6,3.5,2.2,7.4-1.4,10.8c-2,1.9-3.7,4.2-5.5,6.4
		c-2.5,3.1-5.6,5.4-2.2,10.6c2.1,3.2-1.8,8.2-4.6,9.9c-4.9,3-9.1,7.2-14.4,9.7c-1.1,0.5-2.1,1.6-3.1,1.5c-6.1-0.5-5.4,2.7-5.3,7.3
		c0.4,16.3-0.2,32.5-1.4,48.8c-1.3,16.4-3.9,32.5-5.4,48.8c-0.1,1.5-0.7,2.9-0.9,4.4c-0.3,1.8-1.2,3.2-2.9,3.7c-2,0.6-3.2-1-4.1-2.3
		c-1.7-2.6-2.6-3.8-5.7-0.9c-8.3,7.9-17.4,0.8-19.3-10.2c-3-16.6-1.8-33.3-0.3-50c1.4-16,3.1-32.1,2.3-48.2
		c-0.1-2.3-0.8-3.6-3.2-4.3c-3.3-1-6.5-2.7-9.8-3.6c-12-3.2-19.3-11.7-25-22c-1.1-2.1-1.9-4.1,1.3-5.2c0.9-0.3,1.8-0.8,1.4-1.7
		c-1.7-4.6,2.3-4.9,4.7-5.9c4-1.6,8.2-2.5,12.6-2.5c9.5,0.2,19-0.2,28.5,0.1c20.3,0.7,37.6-6.6,53.4-18.5c4.8-3.6,9.6-7.1,13.6-11.6
		c1.2-1.3,2.6-2.1,4.4-1.9C330,19.3,330,21.7,330,24z"/>
	<path class="st0" d="M175.6,0c2.4,0,4.6,0.9,6.5,2.4c0.7,0.5,1.5,0.9,2.2,1.5c7.4,6.1,8.8,15.6,3.3,23.6c-3.8,5.5-14.1,10.3-23,4.9
		c-7.3-4.4-10.7-13.7-7.4-21.9c1.3-3.2,4.1-5.2,6.3-7.6c0,0,0,0,0,0c1.9-2,4.7-2.9,7.5-2.9H175.6z"/>
	<path class="st0" d="M80.5,0c2,0,3.9,0.7,5.5,1.9c0.6,0.4,1.4,0.7,2,1.1c8.4,5.5,10.7,17.6,4.1,25.3c-6.4,7.5-16.6,9.5-25.2,2.1
		c-8-6.9-8-18.1-0.4-25.4c1-0.9,2.4-1.4,3.4-2.4C71.6,1,73.7,0,75.9,0H80.5z"/>
	<path class="st0" d="M264.4,0c2.5,0,4.9,0.8,6.8,2.4c0.5,0.4,1.2,0.8,1.8,1.2c7.5,5.9,9,15.9,3.7,24c-4.2,6.5-14.6,8.9-22.1,5.2
		c-8-4-11.6-13.4-8.4-21.9c1.2-3.3,3.7-5.5,6.3-7.5c0.5-0.4,0.9-0.7,1.3-1c1.9-1.6,4.3-2.4,6.8-2.4H264.4z"/>
	<path class="st0" d="M200.4,127.4c0.5,4.9-1.4,9.6-1.5,14.4c0,3-2.9,4.7-4.3,7.1c-0.5,0.8-2,1.6-1.9,2.2c1.2,9-5.4,16.5-4.3,25.9
		c0.8,6.8,1.7,13.5,3.4,20.1c0.3,1.1,0.5,2.5-0.5,3.3c-1.3,1-2.5-0.2-3.7-0.6c-10.1-3.7-13.2-13.2-17.7-21.6
		c-5.7-10.6-8.7-22.4-10.5-34.1c-3.2-20.5-3.9-41.2-0.9-61.9c1.1-7.4,2.5-14.7,3.2-22c0.8-8.9,8.1-10.7,14.8-10
		c13.1,1.3,17.3,6.3,17.4,19.5c0.2,12.6,2.8,25,4.2,37.4C199,113.9,199.6,120.7,200.4,127.4z"/>
</g>
</svg>
