<?xml version="1.0" encoding="utf-8"?>
<!-- Generator: Adobe Illustrator 19.0.0, SVG Export Plug-In . SVG Version: 6.00 Build 0)  -->
<svg version="1.1" id="Layer_1" xmlns="http://www.w3.org/2000/svg" xmlns:xlink="http://www.w3.org/1999/xlink" x="0px" y="0px"
	 viewBox="0 0 47 110.3" style="enable-background:new 0 0 47 110.3;" xml:space="preserve">
<style type="text/css">
	.st0{fill:#FFFFFF;}
</style>
<path id="XMLID_9_" class="st0" d="M35,0v23.3c0,2.5-1.4,4.7-3.5,5.7v12.6c8.7-1,15.5-8.3,15.5-17.3V0H35z M12,23.3V0H0v24.3
	c0,9,6.8,16.4,15.5,17.3V29C13.4,28,12,25.8,12,23.3z"/>
<path id="XMLID_6_" class="st0" d="M31.5,68.7v12.6c2.1,1,3.5,3.2,3.5,5.7v23.3h12V86C47,77,40.2,69.6,31.5,68.7z M0,86v24.3h12V87
	c0-2.5,1.4-4.7,3.5-5.7V68.7C6.8,69.6,0,77,0,86z"/>
<path id="XMLID_5_" class="st0" d="M23.5,78.3"/>
<path id="XMLID_4_" class="st0" d="M23.5,30.9"/>
<g id="XMLID_2_">
	<path id="XMLID_3_" class="st0" d="M29.5,22.9v62.3c0,3.3-2.7,6-6,6s-6-2.7-6-6V22.9c0-3.3,2.7-6,6-6S29.5,19.6,29.5,22.9z"/>
</g>
</svg>
