<?xml version="1.0" encoding="utf-8"?>
<!-- Generator: Adobe Illustrator 19.0.0, SVG Export Plug-In . SVG Version: 6.00 Build 0)  -->
<svg version="1.1" id="Layer_1" xmlns="http://www.w3.org/2000/svg" xmlns:xlink="http://www.w3.org/1999/xlink" x="0px" y="0px"
	 viewBox="0 0 55 123.1" style="enable-background:new 0 0 55 123.1;" xml:space="preserve">
<style type="text/css">
	.st0{fill:#FFFFFF;}
</style>
<polygon id="XMLID_33_" class="st0" points="37.3,92.3 36.3,93.4 37.3,92.3 "/>
<polygon id="XMLID_32_" class="st0" points="44.4,85.2 37.3,92.3 44.4,85.2 "/>
<g id="XMLID_25_">
	<polygon id="XMLID_31_" class="st0" points="44.4,85.2 37.3,92.3 44.4,85.2 	"/>
	<polygon id="XMLID_30_" class="st0" points="55,95.8 55,123.1 45,123.1 45,101.6 52.9,93.7 	"/>
	<path id="XMLID_27_" class="st0" d="M43,100.8L43,100.8l1.4-1.4L43,100.8z M37.3,92.3l-1,1.1L37.3,92.3L37.3,92.3z"/>
	<polygon id="XMLID_26_" class="st0" points="43,83.8 35.6,91.2 18.7,91.2 10,100 10,123.1 0,123.1 0,95.8 14.6,81.2 40.4,81.2 	"/>
</g>
<g id="XMLID_19_">
	<polygon id="XMLID_24_" class="st0" points="44.4,99.4 43,100.8 43,100.8 	"/>
	<path id="XMLID_20_" class="st0" d="M44.4,85.2l-7.1,7.1L44.4,85.2L44.4,85.2z M37.3,92.3l-1,1.1L37.3,92.3L37.3,92.3z M35.4,93.3
		h-7.9v0.1h8L35.4,93.3z"/>
</g>
<polygon id="XMLID_18_" class="st0" points="45,0 45,21.5 52.9,29.4 55,27.2 55,0 "/>
<polygon id="XMLID_17_" class="st0" points="17.7,30.8 18.7,31.8 17.7,30.8 "/>
<polygon id="XMLID_16_" class="st0" points="10.6,23.7 17.7,30.8 10.6,23.7 "/>
<g id="XMLID_9_">
	<polygon id="XMLID_15_" class="st0" points="10.6,23.7 17.7,30.8 10.6,23.7 	"/>
	<polygon id="XMLID_14_" class="st0" points="10,40.1 10,83 2.1,90.9 0,88.8 0,34.3 2.1,32.2 	"/>
	<path id="XMLID_11_" class="st0" d="M17.7,30.8l1,1.1L17.7,30.8L17.7,30.8z M12,39.3L12,39.3l-1.4-1.4L12,39.3z"/>
	<polygon id="XMLID_10_" class="st0" points="55,34.3 55,88.8 44.4,99.4 43,100.8 43,100.8 40.4,103.4 14.6,103.4 12,100.8 
		19.4,93.4 36.3,93.4 45,84.6 45,38.4 36.3,29.7 19.4,29.7 12,22.3 14.6,19.7 40.4,19.7 	"/>
</g>
<g id="XMLID_2_">
	<polygon id="XMLID_8_" class="st0" points="0,0 0,27.2 10.6,37.8 12,39.3 12,39.3 14.6,41.8 40.4,41.8 43,39.3 35.6,31.8 
		18.7,31.8 10,23.1 10,0 	"/>
	<polygon id="XMLID_7_" class="st0" points="10.6,37.8 12,39.3 12,39.3 	"/>
	<path id="XMLID_3_" class="st0" d="M19.6,31.7h7.9v0.1h-8L19.6,31.7z M17.7,30.8l1,1.1L17.7,30.8L17.7,30.8z M10.6,23.7l7.1,7.1
		L10.6,23.7L10.6,23.7z"/>
</g>
</svg>
