<?xml version="1.0" encoding="utf-8"?>
<!-- Generator: Adobe Illustrator 19.0.0, SVG Export Plug-In . SVG Version: 6.00 Build 0)  -->
<svg version="1.1" id="Layer_1" xmlns="http://www.w3.org/2000/svg" xmlns:xlink="http://www.w3.org/1999/xlink" x="0px" y="0px"
	 viewBox="0 0 46 108" style="enable-background:new 0 0 46 108;" xml:space="preserve">
<style type="text/css">
	.st0{fill:#FFFFFF;}
</style>
<path id="XMLID_18_" class="st0" d="M20.8,46.1C20.8,46.1,20.8,46.1,20.8,46.1c-0.4,0.3-0.8,0.5-1.1,0.7l-0.2,0.1
	c-2.9,1.4-5.6,3.2-8,5.4l0,0c-2.8-3-5.1-6.6-7-10.8C1.5,35.1,0,27.7,0,20.1V0h11v20.1c0,6.1,1.2,11.9,3.4,16.9
	C16.2,40.8,18.3,43.8,20.8,46.1z"/>
<path id="XMLID_24_" class="st0" d="M32.7,54.1c-0.9,0.8-1.9,1.7-2.9,2.4C30.7,55.8,31.7,54.9,32.7,54.1
	C32.7,54.1,32.7,54.1,32.7,54.1z"/>
<path id="XMLID_25_" class="st0" d="M46,88.1V108H35V88.1c0-6.1-1.3-11.9-3.5-16.9c-1.7-3.8-3.9-6.9-6.5-9.2c0,0,0,0-0.1-0.1
	c0.3-0.2,0.7-0.4,1.1-0.6l0.3-0.1c2.9-1.4,5.6-3.2,8.1-5.5c0,0,0,0,0,0c2.8,3,5.2,6.6,7.1,10.8C44.4,73,46,80.5,46,88.1z"/>
<g id="XMLID_13_">
	<path id="XMLID_5_" class="st0" d="M20.6,49c-2.7,1-5.1,3-7.3,5c-3.6,3.3-6.5,7.5-8.8,12.7C1.5,73.1,0,80.5,0,88.1V108h11V88.1
		c0-6.1,1.2-11.9,3.4-16.9c2.2-4.8,5-8.5,8.5-10.8c0.2-0.1,0.4-0.3,0.6-0.4l1.8-1c1.2-0.4,2.3-1,3.4-1.8c0.3-0.2,0.7-0.5,1-0.7
		c1-0.8,2-1.6,2.9-2.4c0,0,0,0,0,0c3.6-3.3,6.5-7.4,8.9-12.6c2.9-6.4,4.5-13.8,4.5-21.4V0H35v20.1c0,6.1-1.3,11.9-3.5,16.8
		c-2.2,4.8-5.1,8.4-8.6,10.8L20.6,49z"/>
</g>
</svg>
