<?xml version="1.0" encoding="utf-8"?>
<!-- Generator: Adobe Illustrator 19.0.0, SVG Export Plug-In . SVG Version: 6.00 Build 0)  -->
<svg version="1.1" id="Capa_1" xmlns="http://www.w3.org/2000/svg" xmlns:xlink="http://www.w3.org/1999/xlink" x="0px" y="0px"
	 viewBox="130 -184 512 512" style="enable-background:new 130 -184 512 512;" xml:space="preserve">
<g>
	<path d="M578.3-6.9V264c0,35.3-28.7,64-64,64h-320c-35.3,0-64-28.7-64-64V-56c0-35.3,28.7-64,64-64H465l-64,64H194.3v320h320V57.2
		L578.3-6.9z M529.2-138.8l-22.6,22.6l67.9,67.9L597-70.9L529.2-138.8z M574.3-184l-22.6,22.6l67.9,67.9l22.6-22.6L574.3-184z
		 M280.3,110.2l67.9,67.9L551.8-25.6l-67.9-67.9L280.3,110.2z M258.3,200h64l-64-64V200z"/>
</g>
</svg>
