<?xml version="1.0" encoding="utf-8"?>
<!-- Generator: Adobe Illustrator 19.0.0, SVG Export Plug-In . SVG Version: 6.00 Build 0)  -->
<svg version="1.1" id="Layer_1" xmlns="http://www.w3.org/2000/svg" xmlns:xlink="http://www.w3.org/1999/xlink" x="0px" y="0px"
	 viewBox="770 -970 2500 2500" style="enable-background:new 770 -970 2500 2500;" xml:space="preserve">
<style type="text/css">
	.st0{fill:#FFFFFF;}
</style>
<path class="st0" d="M2020-728c-556.7,0-1008,451.3-1008,1008s451.3,1008,1008,1008S3028,836.7,3028,280S2576.7-728,2020-728z
	 M2598.7,418.7c-39,143.1-119.8,261.8-233.7,343.1c-52.5,37.5-110.8,66.3-173.3,85.5c-58.8,18-119.7,27.2-181.3,27.2
	c-2.2,0-4.4,0-6.6,0c-61.9-0.7-122.8-10.6-180.7-29.4c-59.8-19.5-115.3-48.1-164.8-85c-52-38.8-96.7-86.2-132.9-140.9
	c-38.1-57.7-66.5-123.2-84.4-194.8c-7-28.1,10.1-56.5,38.1-63.6c28.1-7,56.5,10.1,63.6,38.1c55.7,222.8,237.1,368.3,462.2,370.7
	c179.1,1.9,415.7-96.1,492.7-378.5c7.6-27.9,36.4-44.4,64.4-36.8C2589.9,362,2606.3,390.8,2598.7,418.7z"/>
</svg>
