<?xml version="1.0" encoding="utf-8"?>
<!-- Generator: Adobe Illustrator 19.0.0, SVG Export Plug-In . SVG Version: 6.00 Build 0)  -->
<svg version="1.1" id="Capa_1" xmlns="http://www.w3.org/2000/svg" xmlns:xlink="http://www.w3.org/1999/xlink" x="0px" y="0px"
	 viewBox="-75 23 100 100" style="enable-background:new -75 23 100 100;" xml:space="preserve">
<g>
	<g>
		<path d="M-12.8,23c6.7,0,10,4.6,10,9.8c0,6.5-5.8,12.6-13.4,12.6c-6.3,0-10-3.8-9.9-9.9C-26.1,30.2-21.7,23-12.8,23z M-33.5,123
			c-5.3,0-9.2-3.3-5.5-17.6l6.1-25.5c1.1-4.1,1.2-5.7,0-5.7c-1.6,0-8.5,2.8-12.5,5.6l-2.6-4.4c12.9-10.9,27.7-17.3,34-17.3
			c5.3,0,6.2,6.4,3.5,16.1l-6.9,26.8c-1.2,4.7-0.7,6.4,0.5,6.4c1.6,0,6.8-2,11.9-6l3,4.1C-14.5,118.1-28.2,123-33.5,123z"/>
	</g>
</g>
</svg>
