<?xml version="1.0" encoding="utf-8"?>
<!-- Generator: Adobe Illustrator 19.0.0, SVG Export Plug-In . SVG Version: 6.00 Build 0)  -->
<svg version="1.1" id="Capa_1" xmlns="http://www.w3.org/2000/svg" xmlns:xlink="http://www.w3.org/1999/xlink" x="0px" y="0px"
	 viewBox="-250 53 457 457" style="enable-background:new -250 53 457 457;" xml:space="preserve">
<style type="text/css">
	.st0{fill:#FFFFFF;}
</style>
<g>
	<path class="st0" d="M137,263.9l-70.5,70.4c-38.9,38.9-102,38.9-140.9,0c-6.1-6.1-10.9-13-15.1-20.1l32.7-32.7
		c1.6-1.6,3.5-2.5,5.3-3.5c2.3,7.7,6.2,15.1,12.3,21.1c19.4,19.4,51,19.4,70.4,0l70.4-70.4c19.4-19.4,19.4-51,0-70.5
		c-19.4-19.4-51-19.4-70.4,0L6.3,183.3c-20.3-7.9-42.2-10-63.6-6.9L-3.9,123C35,84.1,98.1,84.1,137,123
		C175.9,161.9,175.9,225,137,263.9z M-49.3,379.7l-25.1,25.1c-19.4,19.4-51,19.4-70.5,0c-19.4-19.4-19.4-51,0-70.5l70.5-70.4
		c19.4-19.4,51-19.4,70.4,0c6.1,6.1,10,13.4,12.3,21.1c1.8-1.1,3.7-1.9,5.3-3.5l32.7-32.7c-4.2-7.1-9-14-15.1-20.1
		c-38.9-38.9-102-38.9-140.9,0l-70.4,70.4c-38.9,38.9-38.9,102,0,140.9c38.9,38.9,102,38.9,140.9,0l53.4-53.4
		C-7,389.8-28.9,387.6-49.3,379.7z"/>
</g>
</svg>
