<?xml version="1.0" encoding="utf-8"?>
<!-- Generator: Adobe Illustrator 19.0.0, SVG Export Plug-In . SVG Version: 6.00 Build 0)  -->
<svg version="1.1" id="Capa_1" xmlns="http://www.w3.org/2000/svg" xmlns:xlink="http://www.w3.org/1999/xlink" x="0px" y="0px"
	 viewBox="0 -53.3 250.3 250.3" style="enable-background:new 0 -53.3 250.3 250.3;" xml:space="preserve">
<style type="text/css">
	.st0{fill:#FFFFFF;}
</style>
<g id="Search">
	<path class="st0" d="M212.5,137.5l-39.9-39.9c-0.2-0.2-0.5-0.4-0.7-0.6c7.9-11.9,12.4-26.2,12.4-41.5c0-41.7-33.8-75.5-75.5-75.5
		S33.3,13.8,33.3,55.5c0,41.7,33.8,75.5,75.5,75.5c15.3,0,29.6-4.6,41.5-12.4c0.2,0.2,0.3,0.5,0.6,0.7l39.9,39.9c6,6,15.7,6,21.7,0
		C218.5,153.2,218.5,143.5,212.5,137.5z M108.8,104.9c-27.3,0-49.3-22.1-49.3-49.3c0-27.3,22.1-49.3,49.3-49.3
		c27.2,0,49.3,22.1,49.3,49.3S136.1,104.9,108.8,104.9z"/>
</g>
</svg>
