<?xml version="1.0" encoding="utf-8"?>
<!-- Generator: Adobe Illustrator 19.0.0, SVG Export Plug-In . SVG Version: 6.00 Build 0)  -->
<svg version="1.1" id="Layer_1" xmlns="http://www.w3.org/2000/svg" xmlns:xlink="http://www.w3.org/1999/xlink" x="0px" y="0px"
	 viewBox="107 40.3 465 65.7" style="enable-background:new 107 40.3 465 65.7;" xml:space="preserve">
<style type="text/css">
	.st0{fill:#F3F3F3;}
	.st1{fill:#FAAF3A;}
</style>
<g id="XMLID_11_">
	<path id="XMLID_15_" class="st0" d="M333.8,52.4c0-0.4,0.1-0.7,0.3-1c0.2-0.2,0.5-0.4,0.8-0.4h28.5c0.5,0,0.8,0.1,1,0.4
		c0.2,0.3,0.3,0.6,0.3,1v7.4c0,0.3-0.1,0.7-0.4,1c-0.2,0.3-0.6,0.5-1,0.5h-18.1v9.2h13.4c0.4,0,0.7,0.1,1,0.3s0.4,0.5,0.4,1v7.1
		c0,0.3-0.1,0.7-0.3,1c-0.2,0.3-0.5,0.5-0.9,0.5h-13.4v13.7c0,0.9-0.5,1.3-1.4,1.3h-9.1c-0.7-0.1-1.1-0.5-1.1-1.3V52.4z"/>
	<path id="XMLID_17_" class="st0" d="M368.4,52.4c0-0.4,0.1-0.7,0.3-1c0.2-0.2,0.5-0.4,0.8-0.4H398c0.5,0,0.8,0.1,1,0.4
		c0.2,0.3,0.3,0.6,0.3,1v7.4c0,0.3-0.1,0.7-0.4,1c-0.2,0.3-0.6,0.5-1,0.5h-18.1v9.2h13.4c0.4,0,0.7,0.1,1,0.3s0.4,0.5,0.4,1v7.1
		c0,0.3-0.1,0.7-0.3,1c-0.2,0.3-0.5,0.5-0.9,0.5H380v13.7c0,0.9-0.5,1.3-1.4,1.3h-9.1c-0.7-0.1-1.1-0.5-1.1-1.3L368.4,52.4
		L368.4,52.4z"/>
	<path id="XMLID_19_" class="st0" d="M402.9,52.3c0-0.4,0.1-0.7,0.3-0.9c0.2-0.3,0.5-0.4,1-0.4h8.8c0.3,0,0.6,0.1,1,0.4
		c0.3,0.2,0.5,0.6,0.5,1V94c0,0.9-0.5,1.3-1.5,1.3h-8.8c-0.9,0-1.3-0.4-1.3-1.3V52.3z"/>
	<path id="XMLID_21_" class="st0" d="M420.1,52.3c0-0.4,0.1-0.7,0.3-0.9c0.2-0.3,0.5-0.4,1-0.4h9.7c0.3,0,0.6,0.1,0.9,0.2
		s0.6,0.4,0.8,0.7c2.5,4.1,5,8.1,7.5,12c2.5,4,5,8,7.5,12V52.2c0.1-0.4,0.2-0.6,0.5-0.8c0.2-0.2,0.5-0.3,0.8-0.3h8.5
		c0.4,0,0.8,0.1,1,0.3c0.3,0.2,0.4,0.6,0.4,1v41.8c0,0.4-0.1,0.7-0.4,0.9c-0.2,0.2-0.6,0.3-1,0.3h-9.5c-0.3,0-0.5-0.1-0.7-0.3
		c-0.2-0.2-0.4-0.4-0.6-0.7c-2.6-4.4-5.3-8.7-7.8-13c-2.6-4.3-5.2-8.6-7.9-13V94c0,0.4-0.1,0.8-0.3,1c-0.2,0.2-0.6,0.3-1.1,0.3h-8.5
		c-0.5,0-0.8-0.1-1-0.4c-0.2-0.2-0.3-0.6-0.3-0.9V52.3H420.1z"/>
	<path id="XMLID_23_" class="st0" d="M464.9,52.3c0-0.4,0.1-0.7,0.3-0.9c0.2-0.3,0.5-0.4,1-0.4h8.8c0.3,0,0.6,0.1,1,0.4
		c0.3,0.2,0.5,0.6,0.5,1V94c0,0.9-0.5,1.3-1.5,1.3h-8.8c-0.9,0-1.3-0.4-1.3-1.3V52.3z"/>
	<path id="XMLID_25_" class="st0" d="M479.5,52.3c0-0.4,0.1-0.7,0.4-1c0.3-0.2,0.6-0.4,1-0.4H513c0.4,0,0.7,0.1,1,0.3
		c0.3,0.2,0.4,0.5,0.5,1v7.4c0,0.4-0.1,0.7-0.4,1c-0.2,0.3-0.6,0.5-1.1,0.5h-10.3v32.6c0,0.4-0.1,0.7-0.4,1s-0.6,0.4-1,0.4h-8.7
		c-0.3,0-0.7-0.1-1-0.4c-0.3-0.3-0.4-0.6-0.4-1V61.2h-10.3c-0.4,0-0.7-0.1-1-0.4s-0.4-0.6-0.4-1.1L479.5,52.3L479.5,52.3z"/>
	<path id="XMLID_27_" class="st0" d="M533.8,67.2l7.2-15.4c0.1-0.2,0.2-0.4,0.3-0.5c0.1-0.1,0.2-0.2,0.2-0.2c0.1,0,0.2-0.1,0.3-0.1
		c0.1,0,0.2,0,0.3-0.1h11.5c0.1,0,0.3,0,0.3,0.1c0.1,0.1,0.1,0.2,0.1,0.3c0,0.2-0.1,0.5-0.4,0.7l-14.1,25v16.7
		c0,0.9-0.5,1.4-1.4,1.4h-8.9c-0.4,0-0.7-0.1-0.9-0.4c-0.2-0.2-0.3-0.6-0.3-1V77l-14.1-24.9c-0.3-0.3-0.4-0.5-0.4-0.7
		c0-0.1,0-0.2,0.1-0.3c0.1-0.1,0.2-0.1,0.3-0.1h11.5c0.1,0,0.2,0.1,0.3,0.1c0.1,0,0.2,0,0.2,0.1c0.1,0,0.2,0.1,0.2,0.2
		c0.1,0.1,0.2,0.3,0.3,0.5L533.8,67.2z"/>
</g>
<g id="XMLID_3_">
	<path id="XMLID_6_" class="st1" d="M219.1,77.6c0,1.5,0.2,2.7,0.6,3.7s0.9,1.9,1.6,2.5c0.7,0.6,1.4,1.1,2.3,1.4
		c0.9,0.3,1.8,0.4,2.8,0.4s1.9-0.2,2.8-0.5c0.9-0.3,1.7-0.9,2.3-1.6c0.7-0.7,1.2-1.5,1.6-2.6c0.4-1,0.6-2.2,0.6-3.5V52.3
		c0-0.4,0.1-0.7,0.4-0.9c0.2-0.3,0.6-0.4,1-0.4h8.7c0.5,0,0.8,0.1,1.1,0.4c0.3,0.3,0.4,0.6,0.4,0.9v25.1c0,3.5-0.5,6.4-1.5,8.8
		c-1,2.4-2.4,4.3-4.1,5.7c-1.7,1.4-3.7,2.5-6,3.1s-4.7,0.9-7.2,0.9s-4.9-0.3-7.2-1c-2.3-0.6-4.3-1.7-6-3.2s-3.1-3.4-4.1-5.7
		c-1-2.4-1.5-5.2-1.5-8.7v-25c0-0.3,0.1-0.6,0.3-0.9c0.2-0.3,0.5-0.4,0.8-0.4h8.9c0.3,0,0.6,0.1,0.9,0.4c0.3,0.2,0.5,0.6,0.5,0.9
		V77.6L219.1,77.6z"/>
	<path id="XMLID_8_" class="st1" d="M249.9,52.4c0-0.4,0.1-0.7,0.3-1c0.2-0.2,0.5-0.4,1-0.4h19.3c2,0,4,0.4,5.8,1.1
		c1.8,0.8,3.3,1.8,4.7,3.1c1.3,1.3,2.4,2.8,3.1,4.6c0.8,1.8,1.1,3.6,1.1,5.6c0,1.4-0.2,2.6-0.6,3.9c-0.4,1.2-0.9,2.4-1.5,3.4
		c-0.7,1.1-1.4,2-2.3,2.9c-0.9,0.9-1.9,1.6-3,2.2l7.7,14.4c0.1,0.3,0.3,0.6,0.5,1s0.3,0.7,0.3,1s-0.1,0.6-0.3,0.7
		c-0.2,0.2-0.5,0.3-0.8,0.3H275c-0.3,0-0.6-0.1-0.9-0.3c-0.3-0.2-0.4-0.5-0.5-0.8l-7.2-13.6h-4.8v13.4c0,0.9-0.5,1.3-1.4,1.3h-8.9
		c-0.4,0-0.7-0.1-1-0.3c-0.2-0.2-0.4-0.5-0.4-1L249.9,52.4L249.9,52.4z M273.2,65.6c0-0.6-0.1-1.2-0.3-1.8s-0.5-1.1-0.9-1.6
		s-0.9-0.9-1.4-1.3c-0.6-0.3-1.2-0.6-1.8-0.7c-0.6,0-1.1-0.1-1.6-0.1s-1,0-1.6,0h-4.1V71h5.5c0.4,0,0.7,0,1,0c0.3,0,0.6,0,0.9-0.1
		c0.7-0.1,1.3-0.3,1.9-0.6c0.6-0.3,1-0.7,1.4-1.2c0.4-0.5,0.7-1,0.9-1.6C273.1,66.9,273.2,66.3,273.2,65.6z"/>
</g>
<g id="XMLID_54_">
	<path id="XMLID_55_" class="st1" d="M150.2,89c0.2,3.6,0.1,5.5-0.7,6.9c-1.7,2.9-4.6,3-7.5,1.4c-1.3-0.7-2.1-1.2-3.5-3.5
		c0,0-0.6-2-3.8-3.7c-3.1-2-5.2-1.5-5.2-1.5c-2.7-0.1-3.5-0.6-4.7-1.3c-2.9-1.7-4.2-4.3-2.6-7.2c0.8-1.5,2.4-2.4,5.6-4.1
		c0,0,6.2-3.4,10.3-4.3c3-0.6,5.9,1,5.9,1l0.9,0.5l0,0c0,0,3,1.7,3.8,4.6C150,82,150.2,89,150.2,89z M139.5,65.5
		c3,1.7,7.6-0.7,10.4-5.4c2.7-4.7,2.5-9.9-0.6-11.6s-7.6,0.7-10.4,5.4S136.5,63.7,139.5,65.5z M129.5,70.7c2.8,0.3,5.4-3.1,5.8-7.5
		c0.4-4.4-1.6-8.1-4.4-8.4c-2.8-0.3-5.4,3.1-5.8,7.5S126.7,70.4,129.5,70.7z M152.2,72.8c3,1.7,7.7-0.7,10.4-5.4
		c2.7-4.7,2.5-9.9-0.6-11.6c-3-1.7-7.6,0.7-10.4,5.4C148.9,65.8,149.2,71,152.2,72.8z M165.7,74.8c-1.6-2.3-5.9-2.1-9.5,0.4
		c-3.6,2.5-5.2,6.5-3.6,8.8c1.6,2.3,5.9,2.1,9.5-0.4C165.7,81.1,167.3,77.1,165.7,74.8z"/>
</g>
<path class="st0" d="M330.5,95.3c0.6,0,1-0.6,0.8-1.2l-0.6-1.7l-0.7-1.9l-14.2-38.9c-0.2-0.4-0.6-0.7-1-0.7h-11.5
	c-0.5,0-0.9,0.3-1,0.7l-7,19.3l-3.7,10.3L287,93.9c-0.3,0.7,0.3,1.4,1,1.4h10.1c0.5,0,0.9-0.3,1-0.7l3.7-10.1
	c7.5,3.1,13,7.4,16.4,10.4c0.3,0.3,0.7,0.4,1.1,0.4C320.3,95.3,330.5,95.3,330.5,95.3z M306.3,74.3l2.7-7.4l3.8,10.5
	C310.8,76.3,308.7,75.3,306.3,74.3z"/>
<path class="st1" d="M200.6,71.1l-3.3,9.1c-0.1,0.3-0.4,0.5-0.7,0.4c-2.4-0.3-4.9-0.5-7.6-0.5h-3.6v14.2c0,0.6-0.5,1.1-1.1,1.1h-9.4
	c-0.6,0-1.1-0.5-1.1-1.1V52.1c0-0.6,0.5-1.1,1.1-1.1h28.4c0.5,0,0.8,0.3,0.8,0.8v9.5c-0.1,0.3-0.4,0.4-0.6,0.4h-18.1v7.6h3.6
	c3.9,0,7.6,0.3,11.1,0.9C200.5,70.3,200.7,70.7,200.6,71.1z"/>
</svg>
