<?xml version="1.0" encoding="utf-8"?>
<!-- Generator: Adobe Illustrator 19.0.0, SVG Export Plug-In . SVG Version: 6.00 Build 0)  -->
<svg version="1.1" id="Layer_1" xmlns="http://www.w3.org/2000/svg" xmlns:xlink="http://www.w3.org/1999/xlink" x="0px" y="0px"
	 viewBox="0 0 166.5 167.3" style="enable-background:new 0 0 166.5 167.3;" xml:space="preserve">
<style type="text/css">
	.st0{fill:#FFFFFF;}
</style>
<image style="display:none;overflow:visible;" width="620" height="340" xlink:href="../../../../../Users/Christopher Flynn/Pictures/steam-logo-post.jpg"  transform="matrix(1 0 0 1 170 100)">
</image>
<g>
	<path class="st0" d="M83.1,0C39.5,0,3.6,33.6,0,76.5l43.6,18.5c3.9-2.9,8.7-4.6,13.9-4.6c0.8,0,1.5,0,2.3,0.1l18.4-25.8l0.1,0
		c0-0.7-0.1-1.3-0.1-2c0-17.5,14.2-31.7,31.7-31.7s31.7,14.2,31.7,31.7s-14.2,31.7-31.7,31.7l-29,20.3l0,0
		C80.3,127.1,70,137,57.5,137c-10.7,0-19.7-7.2-22.5-17.1l-0.1,0.4L2.7,105.9c9.7,35.4,42,61.4,80.4,61.4c46,0,83.4-37.5,83.4-83.7
		C166.5,37.5,129.1,0,83.1,0z"/>
	<path class="st0" d="M75.1,108.5L75.1,108.5c-1.6-5.5-5.8-10-11.1-12c-2-0.8-4.2-1.2-6.5-1.2c-10.1,0-18.3,8.2-18.3,18.3
		c0,10.1,8.2,18.3,18.3,18.3c10.1,0,18.3-8.2,18.3-18.3C75.8,111.9,75.5,110.1,75.1,108.5z M57.5,126.7c-7.2,0-13-5.8-13-13
		s5.8-13,13-13s13,5.8,13,13S64.6,126.7,57.5,126.7z"/>
	<path class="st0" d="M109.8,41.3c-11.8,0-21.3,9.5-21.3,21.3c0,1.2,0.1,2.4,0.3,3.5c1.5,9.1,8.7,16.2,17.8,17.6
		c1.1,0.2,2.1,0.3,3.2,0.3c11.8,0,21.3-9.5,21.3-21.3C131.1,50.9,121.6,41.3,109.8,41.3z M109.8,78.3c-1.8,0-3.5-0.3-5.1-0.9
		c-4.8-1.6-8.5-5.6-9.9-10.5c-0.4-1.4-0.6-2.8-0.6-4.3c0-8.7,7-15.7,15.7-15.7s15.7,7,15.7,15.7C125.5,71.3,118.5,78.3,109.8,78.3z"
		/>
</g>
</svg>
