<?xml version="1.0" encoding="utf-8"?>
<!-- Generator: Adobe Illustrator 19.0.0, SVG Export Plug-In . SVG Version: 6.00 Build 0)  -->
<svg version="1.1" id="Capa_1" xmlns="http://www.w3.org/2000/svg" xmlns:xlink="http://www.w3.org/1999/xlink" x="0px" y="0px"
	 viewBox="-358 149.3 242.7 242.7" style="enable-background:new -358 149.3 242.7 242.7;" xml:space="preserve">
<style type="text/css">
	.st0{fill:#FFFFFF;}
</style>
<path class="st0" d="M-196.9,233.6l-65.5,40.3c-2.5,1.6-3.7,4.6-2.9,7.4l7.1,24.9c0.5,1.8,3.1,1.6,3.3-0.2l1.8-13.6
	c0.3-2.6,1.6-4.9,3.5-6.7l54-50.2C-194.5,234.5-195.8,232.9-196.9,233.6z M-196.9,233.6l-65.5,40.3c-2.5,1.6-3.7,4.6-2.9,7.4
	l7.1,24.9c0.5,1.8,3.1,1.6,3.3-0.2l1.8-13.6c0.3-2.6,1.6-4.9,3.5-6.7l54-50.2C-194.5,234.5-195.8,232.9-196.9,233.6z M-196.9,233.6
	l-65.5,40.3c-2.5,1.6-3.7,4.6-2.9,7.4l7.1,24.9c0.5,1.8,3.1,1.6,3.3-0.2l1.8-13.6c0.3-2.6,1.6-4.9,3.5-6.7l54-50.2
	C-194.5,234.5-195.8,232.9-196.9,233.6z M-196.9,233.6l-65.5,40.3c-2.5,1.6-3.7,4.6-2.9,7.4l7.1,24.9c0.5,1.8,3.1,1.6,3.3-0.2
	l1.8-13.6c0.3-2.6,1.6-4.9,3.5-6.7l54-50.2C-194.5,234.5-195.8,232.9-196.9,233.6z M-196.9,233.6l-65.5,40.3
	c-2.5,1.6-3.7,4.6-2.9,7.4l7.1,24.9c0.5,1.8,3.1,1.6,3.3-0.2l1.8-13.6c0.3-2.6,1.6-4.9,3.5-6.7l54-50.2
	C-194.5,234.5-195.8,232.9-196.9,233.6z M-236.7,149.3c-67,0-121.3,54.3-121.3,121.3S-303.7,392-236.7,392s121.3-54.3,121.3-121.3
	S-169.7,149.3-236.7,149.3z M-164,212.1l-24.7,118.7c-0.6,2.8-3.9,4.1-6.2,2.4l-33.7-24.5c-2-1.5-4.8-1.4-6.8,0.2l-18.7,15.2
	c-2.2,1.8-5.4,0.8-6.3-1.9l-13-41.7l-33.5-12.5c-3.4-1.3-3.4-6.1,0-7.4l137.5-53C-166.4,206.5-163.4,209.1-164,212.1z M-196.9,233.6
	l-65.5,40.3c-2.5,1.6-3.7,4.6-2.9,7.4l7.1,24.9c0.5,1.8,3.1,1.6,3.3-0.2l1.8-13.6c0.3-2.6,1.6-4.9,3.5-6.7l54-50.2
	C-194.5,234.5-195.8,232.9-196.9,233.6z M-196.9,233.6l-65.5,40.3c-2.5,1.6-3.7,4.6-2.9,7.4l7.1,24.9c0.5,1.8,3.1,1.6,3.3-0.2
	l1.8-13.6c0.3-2.6,1.6-4.9,3.5-6.7l54-50.2C-194.5,234.5-195.8,232.9-196.9,233.6z M-196.9,233.6l-65.5,40.3
	c-2.5,1.6-3.7,4.6-2.9,7.4l7.1,24.9c0.5,1.8,3.1,1.6,3.3-0.2l1.8-13.6c0.3-2.6,1.6-4.9,3.5-6.7l54-50.2
	C-194.5,234.5-195.8,232.9-196.9,233.6z M-196.9,233.6l-65.5,40.3c-2.5,1.6-3.7,4.6-2.9,7.4l7.1,24.9c0.5,1.8,3.1,1.6,3.3-0.2
	l1.8-13.6c0.3-2.6,1.6-4.9,3.5-6.7l54-50.2C-194.5,234.5-195.8,232.9-196.9,233.6z"/>
</svg>
