<?xml version="1.0" encoding="utf-8"?>
<!-- Generator: Adobe Illustrator 19.0.0, SVG Export Plug-In . SVG Version: 6.00 Build 0)  -->
<svg version="1.1" id="Capa_1" xmlns="http://www.w3.org/2000/svg" xmlns:xlink="http://www.w3.org/1999/xlink" x="0px" y="0px"
	 viewBox="-225 16.5 508.5 508.5" style="enable-background:new -225 16.5 508.5 508.5;" xml:space="preserve">
<style type="text/css">
	.st0{fill:#FFFFFF;}
</style>
<g>
	<g>
		<path class="st0" d="M29.3,16.5C-111.2,16.5-225,130.3-225,270.7S-111.2,525,29.3,525s254.3-113.8,254.3-254.3
			C283.5,130.3,169.7,16.5,29.3,16.5z M124.6,251.7H48.3v69.8c0,17.7-0.3,27.9,1.6,32.9c1.9,5,6.5,10.2,11.6,13.2
			c6.8,4.1,14.5,6.1,23.2,6.1c15.4,0,24.6-2,39.9-12.1v45.9c-13,6.1-24.4,9.7-35,12.2c-10.6,2.4-22,3.7-34.3,3.7
			c-14,0-22.2-1.7-32.9-5.3C11.7,414.5,2.6,409.4-5,403c-7.6-6.5-12.8-13.5-15.8-20.8c-2.9-7.3-4.4-18-4.4-31.9v-107h-40.9V200
			c12-3.9,25.4-9.5,33.9-16.7c8.5-7.3,15.4-16,20.6-26.2c5.1-10.1,8.7-23.1,10.7-38.9h49.2v76.3h76.2
			C124.6,194.5,124.6,251.7,124.6,251.7z"/>
	</g>
</g>
</svg>
