<?xml version="1.0" encoding="utf-8"?>
<!-- Generator: Adobe Illustrator 19.0.0, SVG Export Plug-In . SVG Version: 6.00 Build 0)  -->
<svg version="1.1" id="Capa_1" xmlns="http://www.w3.org/2000/svg" xmlns:xlink="http://www.w3.org/1999/xlink" x="0px" y="0px"
	 viewBox="-173 -26 612 612" style="enable-background:new -173 -26 612 612;" xml:space="preserve">
<style type="text/css">
	.st0{fill:#FFFFFF;}
</style>
<g>
	<g>
		<path class="st0" d="M381,126.2c-18.3,8.1-37.8,13.6-58.4,16c21-12.6,37.1-32.5,44.7-56.2c-19.7,11.7-41.5,20.1-64.6,24.7
			c-18.6-19.8-45-32.1-74.2-32.1c-56.2,0-101.7,45.6-101.7,101.7c0,8,0.9,15.7,2.6,23.2C44.7,199.2-30.2,158.7-80.4,97.2
			c-8.8,15-13.8,32.5-13.8,51.1c0,35.3,18,66.4,45.2,84.7c-16.7-0.6-32.4-5.1-46.1-12.8v1.3c0,49.3,35.1,90.4,81.6,99.8
			c-8.5,2.3-17.5,3.6-26.8,3.6c-6.6,0-12.9-0.7-19.2-1.9c13,40.4,50.5,69.8,95,70.7C0.8,420.8-43,437-90.7,437
			c-8.2,0-16.3-0.5-24.3-1.4c45,28.9,98.5,45.8,155.9,45.8c187.1,0,289.4-155,289.4-289.4l-0.3-13.2
			C350.1,164.6,367.4,146.6,381,126.2z"/>
	</g>
</g>
</svg>
