<?xml version="1.0" encoding="utf-8"?>
<!-- Generator: Adobe Illustrator 19.0.0, SVG Export Plug-In . SVG Version: 6.00 Build 0)  -->
<svg version="1.1" id="Capa_1" xmlns="http://www.w3.org/2000/svg" xmlns:xlink="http://www.w3.org/1999/xlink" x="0px" y="0px"
	 viewBox="91 -144.5 433.5 433.5" style="enable-background:new 91 -144.5 433.5 433.5;" xml:space="preserve">
<style type="text/css">
	.st0{fill:#FFFFFF;}
</style>
<g>
	<g id="file-upload">
		<path class="st0" d="M240.5,187H375c5.1,0,9.3-4.2,9.3-9.3V34h87.6c5.3,0,8-6.4,4.2-10.2L315.6-136.7c-4.3-4.3-11.3-4.3-15.7,0
			L139.5,23.8c-3.8,3.8-1.1,10.2,4.2,10.2h87.6v143.7C231.3,182.8,235.4,187,240.5,187z"/>
		<path class="st0" d="M138.5,238H477c5.1,0,9.3,4.2,9.3,9.3v32.4c0,5.1-4.2,9.3-9.3,9.3H138.5c-5.1,0-9.3-4.2-9.3-9.3v-32.4
			C129.3,242.2,133.4,238,138.5,238z"/>
	</g>
</g>
</svg>
