<?xml version="1.0" encoding="utf-8"?>
<!-- Generator: Adobe Illustrator 19.0.0, SVG Export Plug-In . SVG Version: 6.00 Build 0)  -->
<svg version="1.1" id="Layer_1" xmlns="http://www.w3.org/2000/svg" xmlns:xlink="http://www.w3.org/1999/xlink" x="0px" y="0px"
	 viewBox="0 0 560 560" style="enable-background:new 0 0 560 560;" xml:space="preserve">
<style type="text/css">
	.st0{enable-background:new    ;}
	.st1{fill:#EEEEEE;}
</style>
<g class="st0">
	<path class="st1" d="M331.9,313.8c-2.4-7.7-5.7-14.6-9.7-20.4c-4-5.8-8.7-10.7-13.9-14.7c-1.8-1.4-3.7-2.7-5.5-3.9
		c4.7-4.4,8.9-9.7,12.4-15.9c5.7-9.9,8.6-22.8,8.6-38.4c0-11.1-2-21.6-6-31.2c-4-9.7-10-18.1-17.6-25.1c-7.6-6.9-17-12.4-27.9-16.4
		c-10.8-3.9-23.1-5.9-36.5-5.9c-13.7,0-26.1,2-36.9,5.9c-10.9,3.9-20.3,9.5-27.9,16.4c-7.7,7-13.6,15.4-17.6,25.1
		c-4,9.6-6,20.1-6,31.2c0,15.6,3.2,28.8,9.6,39.3c3.5,5.8,7.3,10.6,11.2,14.5c-1.8,1.1-3.5,2.3-5.3,3.7c-5.2,4-9.9,9-13.8,14.8
		c-3.9,5.8-7.1,12.8-9.5,20.7c-2.4,7.9-3.6,17.1-3.6,27.2c0,13.3,2.3,25.7,6.9,37c4.6,11.4,11.4,21.2,20.2,29.3
		c8.7,8,19.3,14.4,31.6,18.8c12.2,4.4,26,6.6,41.1,6.6c14.9,0,28.6-2.2,40.7-6.6c12.3-4.4,22.9-10.8,31.6-18.8
		c8.7-8.1,15.6-17.9,20.3-29.3c4.7-11.3,7.1-23.7,7.1-37C335.5,330.6,334.3,321.5,331.9,313.8z M212.3,207.8
		c5.5-4.3,13.4-6.5,23.4-6.5c10,0,17.8,2.2,23.2,6.5c5,4,7.4,10.1,7.4,18.6c0,8.1-2.4,13.9-7.4,17.9c-5.4,4.3-13.2,6.5-23.2,6.5
		c-10,0-17.9-2.2-23.4-6.5c-5.1-4-7.5-9.8-7.5-17.9C204.8,217.9,207.2,211.8,212.3,207.8z M263.7,362.7c-6.8,5-16.2,7.6-28,7.6
		c-11.8,0-21.3-2.5-28.2-7.6c-6.3-4.6-9.4-11.9-9.4-22.3c0-10.4,3.1-17.9,9.5-22.7c6.9-5.2,16.3-7.9,28.1-7.9
		c11.7,0,21.1,2.7,27.9,7.9c6.3,4.9,9.3,12.3,9.3,22.8C272.9,350.8,269.9,358.1,263.7,362.7z"/>
	<path class="st1" d="M48.4,147.5h56.7V427H44.3V234.5h-34v-57.1H28c5.4,0,9.5-1.9,12.8-6c3.8-4.7,6.1-10.5,6.9-17.8L48.4,147.5z"/>
</g>
<g class="st0">
	<polygon class="st1" points="552.4,261.4 552.4,316.3 479.4,316.3 479.4,389.7 424.5,389.7 424.5,316.3 351.1,316.3 351.1,261.4 
		424.5,261.4 424.5,188.4 479.4,188.4 479.4,261.4 	"/>
</g>
</svg>
