<?xml version="1.0" encoding="utf-8"?>
<!-- Generator: Adobe Illustrator 19.0.0, SVG Export Plug-In . SVG Version: 6.00 Build 0)  -->
<svg version="1.1" xmlns="http://www.w3.org/2000/svg" xmlns:xlink="http://www.w3.org/1999/xlink" x="0px" y="0px"
	 viewBox="0 0 98 98" style="enable-background:new 0 0 98 98;" xml:space="preserve">
<style type="text/css">
	.st0{fill:#F7F7F7;}
</style>
<g id="Layer_1">
	<path id="XMLID_1_" class="st0" d="M72,79.5l-37,5.1c-2.6,0.4-4.9-1.4-5.3-4L22,23.8c-0.4-2.6,1.4-4.9,4-5.3l37-5.1
		c2.6-0.4,4.9,1.4,5.3,4L76,74.2C76.4,76.8,74.6,79.1,72,79.5z"/>
	<g id="XMLID_5_">
		<g id="XMLID_58_">
			<path id="XMLID_59_" class="st0" d="M149.6,24.3L149.6,24.3l32.3,1.6c0.5,0,0.9,0.3,1,0.5c0.2,0.2,0.4,0.5,0.4,1L181,75
				c0,0.8-0.7,1.4-1.4,1.4l-0.1,0l-32.2-1.6c-0.5,0-0.9-0.3-1-0.5c-0.2-0.2-0.4-0.5-0.4-1l2.4-47.7
				C148.2,24.9,148.9,24.3,149.6,24.3 M149.6,21.3c-2.4,0-4.3,1.9-4.4,4.2l-2.4,47.7c-0.1,2.5,1.8,4.5,4.2,4.7l32.2,1.6
				c0.1,0,0.1,0,0.2,0c2.4,0,4.3-1.9,4.4-4.2l2.4-47.7c0.1-2.5-1.8-4.5-4.2-4.7l-32.2-1.6C149.8,21.3,149.7,21.3,149.6,21.3
				L149.6,21.3z"/>
		</g>
	</g>
	<path id="XMLID_3_" class="st0" d="M145.5,80.8l30.8-9.5c2.3-0.7,3.7-3.2,2.9-5.6l-14.1-45.6c-0.7-2.3-3.2-3.7-5.6-2.9l-30.8,9.5
		c-2.3,0.7-3.7,3.2-2.9,5.6L140,77.9C140.7,80.2,143.2,81.5,145.5,80.8z"/>
	<g id="XMLID_7_">
		<path id="XMLID_49_" class="st0" d="M267.5,26C267.5,26,267.5,26,267.5,26l28.7,3.3c0.3,0,0.5,0.3,0.5,0.6l-4.8,42.5
			c0,0.3-0.3,0.5-0.6,0.5c0,0,0,0-0.1,0l-28.7-3.3c-0.3,0-0.5-0.3-0.5-0.6l4.8-42.5C266.9,26.2,267.2,26,267.5,26 M267.5,23
			c-1.8,0-3.3,1.3-3.5,3.2l-4.8,42.5c-0.2,2,1.2,3.7,3.1,4l28.7,3.3c0.1,0,0.3,0,0.4,0c1.8,0,3.3-1.3,3.5-3.2l4.8-42.5
			c0.2-2-1.2-3.7-3.1-4L267.9,23C267.7,23,267.6,23,267.5,23L267.5,23z"/>
	</g>
	<g id="XMLID_6_">
		<path id="XMLID_45_" class="st0" d="M273.4,24c0.2,0,0.5,0.2,0.6,0.5l5.6,42.4c0,0.3-0.2,0.6-0.5,0.6l-28.6,3.8c0,0-0.1,0-0.1,0
			c-0.2,0-0.5-0.2-0.6-0.5l-5.6-42.4c0-0.2,0-0.3,0.1-0.4c0.1-0.1,0.2-0.2,0.4-0.2L273.4,24C273.4,24,273.4,24,273.4,24 M273.4,21
			c-0.2,0-0.3,0-0.5,0l-28.6,3.8c-2,0.3-3.3,2.1-3.1,4l5.6,42.4c0.2,1.8,1.8,3.1,3.5,3.1c0.2,0,0.3,0,0.5,0l28.6-3.8
			c2-0.3,3.3-2.1,3.1-4L277,24.1C276.7,22.3,275.2,21,273.4,21L273.4,21z"/>
	</g>
	<path id="XMLID_4_" class="st0" d="M269.9,68.3l-27.2,9.5c-1.9,0.7-3.9-0.3-4.6-2.2L224,35.3c-0.7-1.9,0.3-3.9,2.2-4.6l27.2-9.5
		c1.9-0.7,3.9,0.3,4.6,2.2l14.1,40.3C272.7,65.6,271.7,67.7,269.9,68.3z"/>
</g>
<g id="Layer_2">
</g>
</svg>
