<?xml version="1.0" encoding="utf-8"?>
<!-- Generator: Adobe Illustrator 19.0.0, SVG Export Plug-In . SVG Version: 6.00 Build 0)  -->
<svg version="1.1" id="Layer_1" xmlns="http://www.w3.org/2000/svg" xmlns:xlink="http://www.w3.org/1999/xlink" x="0px" y="0px"
	 viewBox="-249 51 460 460" style="enable-background:new -249 51 460 460;" xml:space="preserve">
<style type="text/css">
	.st0{fill:#FFFFFF;}
</style>
<g>
	<g>
		<g>
			<path class="st0" d="M176.9,50.9H-77.3c-18.1,0-32.9,14.7-32.9,32.9v77.1c7,0,144.1,0,149.5,0c34.7,0,62.9,28.2,62.9,62.9
				c0,6.5,0,145.5,0,147.1h74.7c18.1,0,32.9-14.7,32.9-32.9V83.8C209.8,65.6,195.1,50.9,176.9,50.9z"/>
			<path class="st0" d="M39.3,190.9H-215c-18.1,0-32.9,14.7-32.9,32.9v254.3c0,18.1,14.7,32.9,32.9,32.9H39.3
				c18.1,0,32.9-14.7,32.9-32.9V223.8C72.2,205.6,57.5,190.9,39.3,190.9z"/>
		</g>
	</g>
</g>
</svg>
