<?xml version="1.0" encoding="utf-8"?>
<!-- Generator: Adobe Illustrator 19.0.0, SVG Export Plug-In . SVG Version: 6.00 Build 0)  -->
<svg version="1.1" id="Layer_1" xmlns="http://www.w3.org/2000/svg" xmlns:xlink="http://www.w3.org/1999/xlink" x="0px" y="0px"
	 viewBox="-116 181 176 200" style="enable-background:new -116 181 176 200;" xml:space="preserve">
<style type="text/css">
	.st0{fill:#FFFFFF;}
</style>
<g>
	<path class="st0" d="M-9.2,265.1c-5.7,0-10.2,4.9-10.2,11s4.6,11,10.2,11c5.7,0,10.2-4.9,10.2-11S-3.6,265.1-9.2,265.1z
		 M-45.7,265.1c-5.7,0-10.2,4.9-10.2,11s4.6,11,10.2,11c5.7,0,10.2-4.9,10.2-11C-35.4,270-40,265.1-45.7,265.1z"/>
	<path class="st0" d="M39.4,181.9h-134c-11.3,0-20.5,9.2-20.5,20.5v134c0,11.3,9.2,20.5,20.5,20.5H18.8l-5.3-18.3l12.8,11.8
		l12.1,11.1L60,380.2V202.4C59.9,191.1,50.7,181.9,39.4,181.9z M0.8,311.4c0,0-3.6-4.3-6.6-8c13.1-3.7,18.1-11.8,18.1-11.8
		c-4.1,2.7-8,4.6-11.5,5.9c-5,2.1-9.8,3.4-14.5,4.3c-9.6,1.8-18.4,1.3-25.9-0.1c-5.7-1.1-10.6-2.6-14.7-4.3c-2.3-0.9-4.8-2-7.3-3.4
		c-0.3-0.2-0.6-0.3-0.9-0.5c-0.2-0.1-0.3-0.2-0.4-0.2c-1.8-1-2.8-1.7-2.8-1.7s4.8,7.9,17.5,11.7c-3,3.8-6.7,8.2-6.7,8.2
		c-22.1-0.7-30.5-15.1-30.5-15.1c0-31.9,14.4-57.8,14.4-57.8c14.4-10.7,28-10.4,28-10.4l1,1.2c-18,5.1-26.2,13-26.2,13
		s2.2-1.2,5.9-2.8c10.7-4.7,19.2-5.9,22.7-6.3c0.6-0.1,1.1-0.2,1.7-0.2c6.1-0.8,13-1,20.2-0.2c9.5,1.1,19.7,3.9,30.1,9.5
		c0,0-7.9-7.5-24.9-12.6l1.4-1.6c0,0,13.7-0.3,28,10.4c0,0,14.4,25.9,14.4,57.8C31.3,296.3,22.9,310.7,0.8,311.4L0.8,311.4z"/>
</g>
</svg>
