<?xml version="1.0" encoding="utf-8"?>
<!-- Generator: Adobe Illustrator 19.0.0, SVG Export Plug-In . SVG Version: 6.00 Build 0)  -->
<svg version="1.1" id="Layer_21" xmlns="http://www.w3.org/2000/svg" xmlns:xlink="http://www.w3.org/1999/xlink" x="0px" y="0px"
	 viewBox="-464 272 18 18" style="enable-background:new -464 272 18 18;" xml:space="preserve">
<style type="text/css">
	.st0{fill:#FFFFFF;}
</style>
<title></title>
<path class="st0" d="M-455,272c-5,0-9,4-9,9s4,9,9,9s9-4,9-9S-450,272-455,272z M-449.5,282.7c-0.9,3-4.1,4.7-7.2,3.8
	c-1.8-0.6-3.2-2-3.8-3.8c-0.1-0.4,0.1-0.8,0.5-0.9c0.4-0.1,0.8,0.1,0.9,0.5c0,0,0,0,0,0c0.7,2.2,3,3.5,5.3,2.8
	c1.3-0.4,2.4-1.5,2.8-2.8c0.1-0.4,0.5-0.6,0.9-0.5C-449.6,281.9-449.4,282.3-449.5,282.7C-449.5,282.7-449.5,282.7-449.5,282.7z"/>
</svg>
