<?xml version="1.0" encoding="utf-8"?>
<!-- Generator: Adobe Illustrator 19.0.0, SVG Export Plug-In . SVG Version: 6.00 Build 0)  -->
<svg version="1.1" id="Layer_1" xmlns="http://www.w3.org/2000/svg" xmlns:xlink="http://www.w3.org/1999/xlink" x="0px" y="0px"
	 viewBox="-413 247 132.4 68" style="enable-background:new -413 247 132.4 68;" xml:space="preserve">
<style type="text/css">
	.st0{fill:#FFFFFF;}
	.st1{display:none;}
	.st2{display:inline;fill:#161616;}
</style>
<g id="Layer_1_1_">
	<path id="XMLID_43_" class="st0" d="M-379,307.6L-379,307.6L-379,307.6z"/>
	<path id="XMLID_65_" class="st0" d="M-333.5,270.3l-6.4-11.3l-7-12l-7.1,12.4l-12.4,21.3l-4.9,8.5l-0.6,1.1l-6.4-11.3l-7-12
		l-7.1,12.4l-13.4,23.2L-413,315h67.6l7.2-12.4l4.5-7.9l7.2-12.4L-333.5,270.3z M-379,302.6L-379,302.6h-12.9l6.5-11.2L-379,302.6
		L-379,302.6L-379,302.6z M-352.1,302.6h-13l0.1-0.1l0.1-0.3l0,0l2.2-3.8l15.6-27l6.5,11.2L-352.1,302.6z"/>
	<path id="XMLID_42_" class="st0" d="M-379,307.6L-379,307.6L-379,307.6z"/>
	<path id="XMLID_71_" class="st0" d="M-281.4,313.5l-6.3-10.9l-0.2-0.3l0,0l-6.9-12l-6.5-11.3l-7-12l-7.2,12.4l-13.4,23.2L-336,315
		h55.5L-281.4,313.5z M-315,302.6l6.5-11.2l6.5,11.2H-315z"/>
</g>
<g id="Layer_2" class="st1">
	<path id="XMLID_93_" class="st2" d="M-278.5,315h-21c-2.5,0-4.8-1-6.6-2.7l-18.8-18.9V315h-17.6v-68h17.6v21.6l18.8-18.8
		c1.7-1.7,4.1-2.7,6.6-2.7h21l-34,34L-278.5,315z"/>
	<rect id="XMLID_22_" x="-271.9" y="247" class="st2" width="17.6" height="68"/>
	<path id="XMLID_31_" class="st2" d="M-196.7,287v-40h17.6v68h-10.6c-2.5,0-4.8-1-6.6-2.7l-33.3-33.3v36h-17.6v-68h6.6
		c2.5,0,4.8,1,6.6,2.7L-196.7,287z"/>
	<path id="XMLID_78_" class="st2" d="M-154.5,264.6v32.9h32.9v-7.7h-22.2c-1.7,0-3-1.3-3-3v-14.6h39.8c1.7,0,3,1.3,3,3V315h-65
		c-1.7,0-3-1.3-3-3v-65h65c1.7,0,3,1.3,3,3v14.6H-154.5z"/>
	<path id="XMLID_40_" class="st2" d="M-97.3,247v65c0,1.7,1.3,3,3,3h65v-65c0-1.7-1.3-3-3-3H-97.3z M-49.3,295h-28v-28h28V295z"/>
</g>
</svg>
