<?xml version="1.0" encoding="utf-8"?>
<!-- Generator: Adobe Illustrator 19.0.0, SVG Export Plug-In . SVG Version: 6.00 Build 0)  -->
<svg version="1.1" id="Layer_1" xmlns="http://www.w3.org/2000/svg" xmlns:xlink="http://www.w3.org/1999/xlink" x="0px" y="0px"
	 viewBox="-322 247 313.2 68" style="enable-background:new -322 247 313.2 68;" xml:space="preserve">
<style type="text/css">
	.st0{display:none;}
	.st1{display:inline;fill:#161616;}
	.st2{fill:#FFFFFF;}
</style>
<g id="Layer_1_1_" class="st0">
	<polygon id="XMLID_43_" class="st1" points="-861.8,209.6 -861.8,209.6 -861.9,209.6 	"/>
	<path id="XMLID_65_" class="st1" d="M-816.3,172.3l-6.5-11.2l-6.9-12l-7.2,12.4l-12.3,21.3l-4.9,8.5l-0.6,1.1l-6.5-11.2l-7-12
		l-7.1,12.4l-13.4,23.2l-7.2,12.4h67.6l7.2-12.4l4.5-7.9l7.2-12.4L-816.3,172.3z M-861.8,204.6L-861.8,204.6h-12.9l6.5-11.2
		L-861.8,204.6L-861.8,204.6L-861.8,204.6z M-835,204.6h-13l0.1-0.1l0.1-0.3l0,0l2.2-3.8l15.6-27l6.5,11.2L-835,204.6z"/>
	<polygon id="XMLID_42_" class="st1" points="-861.8,209.6 -861.8,209.6 -861.9,209.6 	"/>
	<path id="XMLID_71_" class="st1" d="M-764.3,215.5l-6.3-10.9l-0.2-0.3l0,0l-6.9-12l-6.5-11.2l-7-12l-7.2,12.4l-13.4,23.2l-7.2,12.4
		h55.5L-764.3,215.5z M-797.8,204.6l6.5-11.2l6.5,11.2H-797.8z"/>
</g>
<g id="Layer_2">
	<path id="XMLID_93_" class="st2" d="M-258,315h-21c-2.5,0-4.8-1-6.6-2.7l-18.8-18.9V315H-322v-68h17.6v21.6l18.8-18.9
		c1.8-1.7,4.1-2.7,6.6-2.7h21l-34,34L-258,315z"/>
	<rect id="XMLID_22_" x="-251.4" y="247" class="st2" width="17.6" height="68"/>
	<path id="XMLID_31_" class="st2" d="M-176.3,287v-40h17.6v68h-10.6c-2.5,0-4.8-1-6.6-2.7l-33.3-33.3v36h-17.5v-68h6.6
		c2.5,0,4.8,1,6.6,2.7L-176.3,287z"/>
	<path id="XMLID_78_" class="st2" d="M-134,264.6v32.9h32.9v-7.7h-22.2c-1.7,0-3-1.3-3-3v-14.6h39.8c1.7,0,3,1.3,3,3V315h-65
		c-1.7,0-3-1.3-3-3v-65h65c1.7,0,3,1.3,3,3v14.6H-134z"/>
	<path id="XMLID_40_" class="st2" d="M-76.8,247v65c0,1.7,1.3,3,3,3h65v-65c0-1.7-1.3-3-3-3H-76.8z M-28.8,295h-28v-28h28V295z"/>
</g>
</svg>
