<?xml version="1.0" encoding="utf-8"?>
<!-- Generator: Adobe Illustrator 19.0.0, SVG Export Plug-In . SVG Version: 6.00 Build 0)  -->
<svg version="1.1" id="Layer_1" xmlns="http://www.w3.org/2000/svg" xmlns:xlink="http://www.w3.org/1999/xlink" x="0px" y="0px"
	 viewBox="50 -50 500 500" style="enable-background:new 50 -50 500 500;" xml:space="preserve">
<style type="text/css">
	.st0{fill:#FFFFFF;}
</style>
<g id="XMLID_1_">
	<path id="XMLID_5_" class="st0" d="M362.5,122.4c2.5,0,4.3,1,5.6,3.2c3,5.2,2.5,15.5,0,26.2h-20.4v4.5H367
		c-2.1,7.3-5,14.6-8.2,20.3l-1.1,1.9l25.5,16l-14.3,9.4l2.5,3.7l16-10.6l17.3,11.3l2.4-3.8l-16-9.9c0,0,24-15.6,25.2-16.3l0,0l0,0
		c-5.3-7.8-7-14.4-4.8-22h1.8h19.3v-4.4h-19.5c3.6-8.4,8.6-16.1,26.6-16.1v-4.5c-16.6,0-26.5,6.6-31.2,20.5h-35.7
		c2.5-11.1,2.9-22.1-0.8-28.4c-2.1-3.6-5.4-5.5-9.5-5.5c-14.8,0-20.6,15.1-20.8,15.7l4.2,1.6C346.1,134.6,350.9,122.4,362.5,122.4z
		 M387.3,191.7l-18.8-11.9h36.8L387.3,191.7z M406.9,156.3c-1.6,5-0.9,12.7,2.9,19.2h-45.4c2.8-5.5,5.3-12.3,7.2-19.2H406.9z"/>
	<polyline id="XMLID_9_" class="st0" points="345.9,135.2 345.9,135.2 345.9,135.2 345.9,135.2 	"/>
	<path id="XMLID_10_" class="st0" d="M493,324.1c-7.6-8.5-22.4-12.5-34.7-12.2c-7.9-9.4-49.7-53.5-58.1-62.4
		c17.5-12.2,32.6-28.2,44.2-47.1h23.1v-5h-20.2c1.3-2.3,2.5-4.6,3.7-6.9h16.5v-5h-14.1c10.4-22.6,16.2-48.4,15.7-76.8h0.1
		c0-7.8-2.4-40.5-6.9-49.5c-12,4.6-33.9,19.4-38.9,34.5c-23.8-3.5-50.5-3.1-74,0.9c-3.9-16.3-23.6-28.8-38.4-35.8
		c-6.3,10.6-9,35-8.3,52.4l-0.1,0.1c0.6,15.7,2.7,30.1,6.2,43.3c-51.3,12.7-107.2,46.3-138.4,78.8c-14.6-19.7-20.4-35.9-22.2-48.2
		c-2.2-15.5,1.5-29.7,10.7-41.1c14.4-17.9,34.8-19.1,55.8-15.6c-0.4,3.3,0,6.5,1.4,8.4c5.6,8.2,35.4,11.1,53.2,3.1
		c-13.1-18.4-39.8-27.4-47.1-23.8c-2.4,1.2-4.3,3.4-5.6,5.9c-7.3-1.3-14.5-2.3-19.7-2.2c-18.5,0.1-32.7,6.6-43.3,19.8
		c-10.4,12.9-14.6,29-12.2,46.4c2.3,16.5,10.5,34.1,24.2,52.3c-2.3,2.4-4.5,4.9-6.6,7.2c-33.4,37.4-57.8,77.5-57.8,84.1v3.4h44.1
		l-0.8-4.1c-2.5-13.2,2.5-29.6,12.7-41.9c6.4-7.7,17-16.5,33.6-20.6c14.8,14.4,33.6,29.7,54.6,44.5h32.7v-3c0-3.9-1.9-7.3-5.4-9.6
		c-5.2-3.4-13.2-3.8-20.5-1.3c-7-7.8-10.9-18.2-11.8-31.1c71.1,6.3,139,35,215.7,75.1h42.2l0.6-2.8C499.5,334.3,497.4,329,493,324.1
		z M313.7,68.6c3.5,19,9.8,31,23.5,36.9c12.1-3.5,26.2-5.6,40.5-6.4l11.9,26.2l7.6-26.4c14.5,0.5,28.8,2.4,41.2,5.8
		c12.6-9.2,17.5-23.2,20.2-35.4c3.3,14.3,3,45,3,45c0.2,11.5-0.7,22.5-2.6,33.1l-13.6,5.8l12,1.8c-1,4-2,8-3.3,11.9l-11.6,3.4
		l9.3,3.3c-1.6,4.2-3.3,8.3-5.2,12.2h-19.2v5H444c-1.3,2.4-2.6,4.7-3.9,6.9h-12.7v5h9.6c-12.6,19.1-29.3,34.5-48.3,45.4
		c-22.1-11-38.7-27-51-45.4h7.3v-5h-10.5c-1.4-2.3-2.7-4.6-4-6.9h14.4v-5h-17c-2.9-5.9-5.5-12-7.6-18.1l8.7-2.4l-10.9-4.4
		c-1.1-3.6-2.1-7.1-3-10.7l16.8-1.1l-19.2-10.2C307.9,112.7,308.9,87.5,313.7,68.6z M151.7,283.1c-10.4,12.6-15.9,29.2-14.7,43.5
		h-27.7c5.6-12.1,27.8-47,60.6-82.2c4.5,5.6,9.6,11.2,15.1,16.9C168.9,266.1,158.3,275.1,151.7,283.1z M457.7,334.1
		c-77.4-40.4-145.4-68.9-217.6-75.1c0.2-10,1.9-21.4,5.4-34.1l-6.6-1.8c-3.5,13-5.4,24.8-5.6,35.4c-7.5-0.5-15.1-0.8-22.7-0.8
		c-6.5,0-12.4,0.6-17.8,1.6c-7-7-13-13.7-18.1-20c9-9.4,19.7-18.6,31.3-27.2l16.1,11.1l-5.3-18.8c4.9-3.3,9.9-6.5,15.1-9.6
		l23.9,12.1l-11.2-19.3c3.3-1.8,6.6-3.5,9.9-5.1l33.4,22.4l-11-32.5c11.4-4.6,22.7-8.3,33.7-11.1c2.6,8.6,5.7,16.6,9.4,24.2h-15.2v5
		h17.6c1.2,2.4,2.5,4.7,3.9,6.9h-21.5v5h24.6c15.1,23.4,35.4,41.3,58.5,54.9c2.6-1.5,5.1-3,7.6-4.6l6,6.5l-10.2,15.6l17.3-7.9
		l10,10.8l-16.9,12.9l23.3-6l31.5,33.9l2.7-0.2c16.7-1.4,26.2,7.6,28.7,10.4c1.8,2.1,3,3.9,3.6,5.4L457.7,334.1L457.7,334.1z"/>
</g>
</svg>
