<?xml version="1.0" encoding="utf-8"?>
<!-- Generator: Adobe Illustrator 19.0.0, SVG Export Plug-In . SVG Version: 6.00 Build 0)  -->
<svg version="1.1" id="Layer_1" xmlns="http://www.w3.org/2000/svg" xmlns:xlink="http://www.w3.org/1999/xlink" x="0px" y="0px"
	 viewBox="0 0 500 500" style="enable-background:new 0 0 500 500;" xml:space="preserve">
<style type="text/css">
	.st0{fill:#FFFFFF;}
</style>
<path id="XMLID_24_" class="st0" d="M391.4,201.8c-36.4-15.5-85.2-25.5-137.4-28.2c-9.7-0.5-19-0.8-27.8-0.8
	c39.7-49.2,82.9-82.4,111.1-83.5c5.8-0.2,10.7,1,14.6,3.5c12.4,8.1,16,30.6,9.9,61.8c-0.6,3.2,1.5,6.4,4.7,7c3.2,0.6,6.4-1.5,7-4.7
	c7.2-36.8,1.9-63.1-15.1-74.1c-6.1-3.9-13.3-5.8-21.6-5.5c-19.8,0.8-44.9,13.8-72.4,37.8c-18.3,15.9-36.4,35.5-53.7,57.9
	c-19.8,0.6-38.8,2.3-56.4,5.2c-2.2-9.7-3.9-19.1-5-28.1c-4.3-35.4,1.4-59.9,15.6-67.1c2.5-1.3,5.2-2,8.3-2.2
	c12.3-0.9,28.4,6.6,46.6,21.7c2.5,2.1,6.3,1.8,8.4-0.8c2.1-2.5,1.8-6.3-0.8-8.4c-20.6-17.1-39.6-25.5-55.1-24.4
	c-4.6,0.3-8.9,1.5-12.8,3.5c-19.2,9.8-27,37.9-22,79.2c1.1,9.2,2.8,18.8,5.1,28.7c-14,2.7-26.8,6.2-38.2,10.3
	c-33.9,12.2-52.4,29.2-53.4,48.9c-1,18.9,14.2,36.9,43.9,52.2c2.9,1.5,6.5,0.4,8-2.6c1.5-2.9,0.4-6.5-2.6-8
	c-24.9-12.8-38.1-27.4-37.4-41c1.1-20.8,33.9-38.7,82.6-48.2c4.6,17.2,10.7,35.3,18.2,53.6c-17.1,31.7-29.5,62.9-35.8,90.6
	c-9.3,40.5-4.5,69.2,13.6,81c5.6,3.6,12.2,5.4,19.7,5.4c15.3,0,34.2-7.6,55.2-22.6c2.7-1.9,3.3-5.6,1.4-8.3
	c-1.9-2.7-5.6-3.3-8.3-1.4c-26.5,18.9-48.9,25-61.5,16.8c-21.9-14.2-16.3-73.5,21.8-147.5c3.7,8.4,7.7,16.8,12,25.2
	c23.7,46.6,52.8,87.1,81.7,114.1c22.9,21.3,44,32.3,61.3,32.3c5.7,0,10.9-1.2,15.7-3.6c18.4-9.4,26.4-36,22.5-74.8
	c-3.8-36.8-17.7-81.7-39.3-126.5c-1.4-3-5-4.2-8-2.8c-3,1.4-4.2,5-2.8,8c21,43.6,34.5,87.1,38.1,122.5c3.4,33.1-2.4,56.1-16,63
	c-27.8,14.2-91.7-37.7-142.6-137.6c-5.6-11.1-10.8-22.2-15.5-33.1c5.7-10.2,12-20.7,18.9-31.4c6.8-10.4,13.8-20.5,21-30
	c2.5-0.1,4.9-0.1,7.4-0.1c9.1,0,18.9,0.2,29.1,0.8c111.9,5.9,185.2,43.1,183.6,74.3c-0.7,13.7-15.5,26.8-41.6,36.9
	c-3.1,1.2-4.6,4.6-3.4,7.7c0.9,2.4,3.2,3.8,5.6,3.8c0.7,0,1.4-0.1,2.1-0.4c31.2-12.1,48.3-28.5,49.2-47.4
	C450.1,238.9,429.7,218.1,391.4,201.8z M185.8,208.3c-5.1,7.9-10,15.9-14.6,23.8c-5.6-14.4-10.3-28.6-13.9-42.2
	c13.8-2.2,28.7-3.7,44.3-4.5C196.2,192.8,191,200.5,185.8,208.3z"/>
<path id="XMLID_1_" class="st0" d="M274.3,252.7c0,12.7-10.3,23-23,23c-12.7,0-23-10.3-23-23l0,0c0-12.7,10.3-23,23-23
	C264,229.7,274.3,240,274.3,252.7z"/>
</svg>
