<?xml version="1.0" encoding="utf-8"?>
<!-- Generator: Adobe Illustrator 19.0.0, SVG Export Plug-In . SVG Version: 6.00 Build 0)  -->
<svg version="1.1" id="Layer_1" xmlns="http://www.w3.org/2000/svg" xmlns:xlink="http://www.w3.org/1999/xlink" x="0px" y="0px"
	 viewBox="0 0 500 500" style="enable-background:new 0 0 500 500;" xml:space="preserve">
<style type="text/css">
	.st0{fill:#FFFFFF;}
</style>
<g id="Layer_2">
	<g id="Blue">
		<path id="XMLID_17_" class="st0" d="M421.8,87.3c-0.7-0.1-1.3-0.2-2-0.2L80.6,87.1c-6.4-0.1-11.7,5-11.8,11.5c0,0.7,0,1.3,0.2,2
			l49.4,299.9c1.3,7.6,7.8,13.5,15.4,13.5h236.7c5.5,0,10.2-4,11.4-9.3c0.1-0.3,0.1-0.5,0.2-0.8l7.5-46.2l41.8-256.8
			C432.5,94.5,428.1,88.4,421.8,87.3z M302.6,220.4l0,0.2l-10.9,63.9l-3.3,19.4h-75.6l-20.5-107h223.1L302.6,220.4z"/>
		<polygon id="XMLID_11_" class="st0" points="302.6,221 302.6,221 302.6,221 291.6,284.7 		"/>
		<path id="XMLID_14_" class="st0" d="M382.1,403.9l7.5-46.2l-7.5,45.9C382.1,403.7,382.1,403.8,382.1,403.9z"/>
		<polygon id="XMLID_15_" class="st0" points="415.4,197 302.6,220.3 412.7,197 		"/>
	</g>
</g>
</svg>
