<?xml version="1.0" encoding="utf-8"?>
<!-- Generator: Adobe Illustrator 19.0.0, SVG Export Plug-In . SVG Version: 6.00 Build 0)  -->
<svg version="1.1" id="Layer_1" xmlns="http://www.w3.org/2000/svg" xmlns:xlink="http://www.w3.org/1999/xlink" x="0px" y="0px"
	 viewBox="0 0 500 500" style="enable-background:new 0 0 500 500;" xml:space="preserve">
<style type="text/css">
	.st0{fill:#FFFFFF;}
	.st1{fill:#2C2255;}
</style>
<path id="XMLID_14_" class="st0" d="M443.3,302c-8.2,28-23.4,52.8-45.6,74.8c-28,28.2-60.6,45-97.9,50.6c-9.3,1.4-18.9,2.1-28.8,2.1
	c-49.5,0-91.9-17.5-127.1-52.7c-22.1-22.1-37.2-46.9-45.3-74.9H443.3z"/>
<g id="g5" transform="translate(-71.07,-323.66299)">
	<path id="XMLID_24_" class="st0" d="M521.3,563.7H163.1v0c0-7.4,0.9-15,2-22c0,0,0,0.1,0.1,0h352.5c0,0.1,0,0,0.1,0h1.1
		C520.1,548.7,520.9,556.7,521.3,563.7z"/>
	<path id="XMLID_19_" class="st1" d="M165.1,541.7L165.1,541.7C165.2,541.8,165.1,541.7,165.1,541.7z"/>
	<path id="XMLID_20_" class="st1" d="M517.8,541.7C517.8,541.7,517.8,541.8,517.8,541.7L517.8,541.7z"/>
	<path id="XMLID_25_" class="st0" d="M521.3,583.7c-0.4,7-1.2,15-2.4,22h0c0,0,0-0.1-0.1,0H165.2c0-0.1,0,0-0.1,0
		c-1.2-7-2-15-2.3-22H521.3z"/>
	<path id="XMLID_17_" class="st1" d="M165.2,605.7L165.2,605.7C165.1,605.7,165.2,605.5,165.2,605.7z"/>
	<path id="XMLID_16_" class="st1" d="M518.9,605.7L518.9,605.7C518.8,605.5,518.9,605.7,518.9,605.7z"/>
</g>
<path id="XMLID_8_" class="st0" d="M443.3,198H98.6c8.1-28,23.2-53,45.3-75.2c35.2-35,77.5-52.4,127.1-52.4c10,0,19.7,0.8,29.1,2.2
	c37.2,5.6,69.7,22.3,97.6,50.2C419.9,145,435.1,170,443.3,198z"/>
<g id="g13" transform="translate(-71.07,-323.66299)">
	<path id="XMLID_10_" class="st0" d="M315.8,760.9c-2.3,0.1-4.6,0.2-6.9,0.2c-103.8,0-188-83.9-188-187.4s84.2-187.4,188-187.4
		c2.3,0,4.6,0.1,6.9,0.2c-92.5,13.8-163.6,92.5-163.6,187.2S223.3,747.1,315.8,760.9z"/>
</g>
<g id="g56" transform="translate(-71.07,-323.66299)">
	<path id="XMLID_13_" class="st0" d="M165.1,541.7L165.1,541.7C165.2,541.8,165.1,541.7,165.1,541.7z"/>
	<path id="XMLID_18_" class="st0" d="M517.8,541.7C517.8,541.7,517.8,541.8,517.8,541.7L517.8,541.7z"/>
	<path id="XMLID_12_" class="st0" d="M165.2,605.7L165.2,605.7C165.1,605.7,165.2,605.5,165.2,605.7z"/>
	<path id="XMLID_7_" class="st0" d="M518.9,605.7L518.9,605.7C518.8,605.5,518.9,605.7,518.9,605.7z"/>
</g>
</svg>
