<?xml version="1.0" encoding="utf-8"?>
<!-- Generator: Adobe Illustrator 19.0.0, SVG Export Plug-In . SVG Version: 6.00 Build 0)  -->
<svg version="1.1" id="Layer_1" xmlns="http://www.w3.org/2000/svg" xmlns:xlink="http://www.w3.org/1999/xlink" x="0px" y="0px"
	 viewBox="0 0 500 500" style="enable-background:new 0 0 500 500;" xml:space="preserve">
<style type="text/css">
	.st0{fill:#FFFFFF;}
</style>
<g id="XMLID_3_">
	<path id="XMLID_1_" class="st0" d="M428.9,233.4L266.6,71.1c-9.3-9.4-24.5-9.4-33.9,0L199,104.8l42.8,42.8
		c9.9-3.4,21.3-1.1,29.3,6.8c8,8,10.2,19.5,6.8,29.4l41.2,41.2c10-3.4,21.5-1.2,29.4,6.8c11.1,11.1,11.1,29.2,0,40.3
		c-11.1,11.1-29.2,11.1-40.3,0c-8.4-8.4-10.4-20.7-6.2-31l-38.4-38.4v101.1c2.7,1.3,5.3,3.1,7.5,5.4c11.1,11.1,11.1,29.2,0,40.3
		c-11.1,11.1-29.2,11.1-40.3,0c-11.1-11.1-11.1-29.2,0-40.3c2.8-2.7,5.9-4.8,9.3-6.2V200.9c-3.4-1.4-6.6-3.5-9.3-6.2
		c-8.4-8.4-10.5-20.8-6.1-31.1l-42.2-42.2L71.1,232.7c-9.4,9.4-9.4,24.5,0,33.9l162.3,162.3c9.3,9.4,24.5,9.4,33.9,0l161.6-161.6
		C438.2,258,438.2,242.8,428.9,233.4z"/>
</g>
</svg>
