<?xml version="1.0" encoding="utf-8"?>
<!-- Generator: Adobe Illustrator 19.0.0, SVG Export Plug-In . SVG Version: 6.00 Build 0)  -->
<svg version="1.1" id="Layer_1" xmlns="http://www.w3.org/2000/svg" xmlns:xlink="http://www.w3.org/1999/xlink" x="0px" y="0px"
	 viewBox="0 0 500 500" style="enable-background:new 0 0 500 500;" xml:space="preserve">
<style type="text/css">
	.st0{fill:#FFFFFF;}
</style>
<path id="XMLID_1_" class="st0" d="M250,63.7c-105.5,0-191,85.5-191,191c0,84.4,54.7,156,130.6,181.2c9.5,1.7,13-4.2,13-9.2
	c0-4.5-0.2-19.6-0.3-35.6c-53.1,11.5-64.3-22.5-64.3-22.5c-8.7-22.1-21.2-27.9-21.2-27.9c-17.4-11.8,1.3-11.6,1.3-11.6
	c19.2,1.3,29.3,19.7,29.3,19.7c17,29.2,44.7,20.8,55.6,15.9c1.7-12.3,6.7-20.8,12.1-25.5c-42.4-4.8-87-21.2-87-94.4
	c0-20.9,7.4-37.9,19.6-51.3c-1.9-4.8-8.5-24.3,1.9-50.6c0,0,16-5.1,52.5,19.6c15.2-4.3,31.6-6.4,47.8-6.4
	c16.2,0.1,32.6,2.2,47.8,6.4c36.4-24.7,52.5-19.6,52.5-19.6c10.4,26.3,3.9,45.7,1.9,50.5c12.2,13.4,19.6,30.4,19.6,51.3
	c0,73.4-44.7,89.5-87.2,94.3c6.9,5.9,13,17.5,13,35.3c0,25.5-0.3,46.1-0.3,52.4c0,5.1,3.5,11,13.1,9.2
	C386.3,410.6,441,339.1,441,254.7C441,149.2,355.5,63.7,250,63.7z"/>
</svg>
