<?xml version="1.0" encoding="utf-8"?>
<!-- Svg Vector Icons : http://www.onlinewebfonts.com/icon -->
<!DOCTYPE svg PUBLIC "-//W3C//DTD SVG 1.1//EN" "http://www.w3.org/Graphics/SVG/1.1/DTD/svg11.dtd">
<svg version="1.1" xmlns="http://www.w3.org/2000/svg" xmlns:xlink="http://www.w3.org/1999/xlink" x="0px" y="0px" viewBox="0 0 1000 1000" enable-background="new 0 0 1000 1000" xml:space="preserve">
<metadata> Svg Vector Icons : http://www.onlinewebfonts.com/icon </metadata>
<g><g transform="translate(0.000000,180.000000) scale(0.100000,-0.100000)"><path d="M1697.1,220c-335.8-97.6-620.8-253.8-874.6-491.9c-285-265.5-449-531-593.5-952.6c-93.7-277.2-109.3-386.5-124.9-937c-11.7-480.2,0-706.7,50.8-976.1c203-1081.5,753.5-2166.9,1475.8-2904.8c253.8-261.6,253.8-261.6,234.3-445.1c-19.5-164-15.6-183.5,58.6-183.5c42.9,0,136.7,66.4,214.7,156.2c97.6,117.1,160.1,156.2,246,156.2c296.7,0,691,210.8,851.1,456.8c191.3,285,199.1,769.1,19.5,1183l-82,191.3l140.6,246c179.6,320.1,499.8,784.7,554.4,800.4c27.3,7.8,50.7-70.3,66.4-210.8c50.8-577.8,726.2-2166.9,952.7-2252.8c175.7-66.4,417.7,378.7,597.4,1089.3c152.2,597.3,206.9,1038.5,187.4,1534.4c-19.5,503.7-74.2,652-246,652c-218.7,0-234.3-97.6-222.6-1276.7c11.7-1038.5-19.5-1382.1-124.9-1347c-66.4,19.5-277.2,577.8-413.9,1081.5c-253.8,933.1-312.3,1093.2-445.1,1241.6c-70.3,78.1-140.6,183.5-156.2,230.4c-50.8,164-179.6,285-304.5,285c-183.5,0-460.7,199.1-460.7,328c0,11.7,97.6,23.4,214.7,23.4c160.1,0,234.3,19.5,288.9,74.2c66.4,66.4,132.7,74.2,573.9,66.4c398.2-3.9,542.7,11.7,683.3,66.4c492,187.4,546.6,616.9,148.3,1175.2c-179.6,253.8-308.4,331.9-593.4,363.1c-171.8,19.5-234.3,50.7-390.4,195.2c-187.4,175.7-566.1,374.8-796.5,421.7c-121,23.4-128.8,19.5-128.8-93.7c0-62.5,19.5-164,39-222.5c23.4-58.6,31.2-113.2,23.4-124.9c-11.7-11.7-113.2,46.8-226.5,124.9C2704.4,235.6,2146.1,345,1697.1,220z M4293.5-478.8c136.7-58.6,253.8-230.4,253.8-374.8c0-148.4-117.1-316.3-261.6-374.8c-285-121-558.3,58.6-558.3,370.9c3.9,203,50.7,288.9,218.6,374.8C4086.5-412.5,4125.6-408.6,4293.5-478.8z M2536.5-2883.9c35.1-109.3,175.7-234.3,261.6-234.3c39,0,144.4,54.7,234.3,117.1c89.8,66.4,210.8,117.1,273.3,117.1c97.6,0,421.7-164,421.7-214.7c0-11.7-58.6-109.3-128.8-222.5c-74.2-113.2-222.6-374.8-331.9-577.8c-281.1-515.4-246-480.2-394.3-406.1c-187.4,93.7-507.6,58.6-683.2-78.1c-171.8-128.8-249.9-269.4-296.7-542.7c-50.7-261.6,0-429.5,175.7-613l140.6-144.5l-70.3-125c-39-66.4-97.6-117.1-128.8-113.2c-89.8,15.6-449,585.6-531,839.4c-156.2,476.3-74.2,964.3,238.2,1432.8c144.5,222.5,710.6,843.3,761.3,843.3C2497.5-2805.8,2524.8-2840.9,2536.5-2883.9z M2766.9-4586.2c97.6-35.1,78.1-82-117.1-269.4c-121-117.1-171.8-195.2-156.2-238.2c27.3-66.3-113.2-327.9-175.7-327.9c-15.6,0-58.6,50.8-93.7,117.1c-164,316.2,27.3,741.8,335.8,741.8C2642-4562.7,2731.7-4574.4,2766.9-4586.2z M3098.7-5128.8c54.7-249.9,19.5-429.5-124.9-620.8c-105.4-136.6-433.4-331.9-480.2-285c-31.2,31.2,97.6,339.7,144.5,339.7c19.5,0,93.7,54.6,171.8,121c164,144.5,246,370.9,179.6,499.7c-46.9,82-31.2,160.1,31.2,160.1C3036.3-4914.1,3071.4-5011.7,3098.7-5128.8z"/><path d="M4102.2-799c-89.8-89.8-78.1-199.1,35.1-273.3c89.8-58.6,105.4-58.6,195.2,0c54.7,35.1,97.6,97.6,97.6,140.6c0,93.7-101.5,195.2-195.2,195.2C4195.8-736.5,4133.4-763.9,4102.2-799z"/><path d="M6636-4316.7v-343.6l-339.7-11.7l-343.6-11.7V-4875v-191.3l343.6-11.7l339.7-11.7l3.9-331.9l7.8-331.9l179.6-11.7l179.6-11.7v351.4v355.3h351.4h351.4v195.2v195.2h-351.4h-351.4v351.4v351.4h-183.5H6636V-4316.7z"/><path d="M8802.9-4328.5v-351.4h-351.4h-351.4V-4875v-195.2h351.4h351.4v-351.4V-5773h195.2h195.2v351.4v347.5l343.6,11.7l339.7,11.7l11.7,187.4l11.7,183.5h-351.4h-355.3v351.4v351.4h-195.2h-195.2V-4328.5z"/></g></g>
</svg>