<?xml version="1.0" encoding="utf-8"?>
<!-- Generator: Adobe Illustrator 19.0.0, SVG Export Plug-In . SVG Version: 6.00 Build 0)  -->
<svg version="1.1" id="Layer_1" xmlns="http://www.w3.org/2000/svg" xmlns:xlink="http://www.w3.org/1999/xlink" x="0px" y="0px"
	 viewBox="0 0 500 500" style="enable-background:new 0 0 500 500;" xml:space="preserve">
<style type="text/css">
	.st0{fill:#FFFFFF;}
</style>
<g id="Layer_2">
	<g id="Blue">
		<g id="Layer_2-2">
			<g id="Layer_1-2">
				<path id="XMLID_5_" class="st0" d="M390.5,62.9H109.8C83.9,62.9,63,83.8,63,109.7c0,0,0,0,0,0v280.7c0,25.8,20.9,46.8,46.8,46.8
					h280.7c25.7-0.1,46.5-21,46.5-46.8V109.7C437,83.9,416.2,63,390.5,62.9z M225.8,346.3c-0.1,12.3-10.1,22.2-22.4,22.2h-69.1
					c-12.3,0.1-22.4-9.9-22.6-22.2l0,0V134c0-12.4,10-22.4,22.4-22.4c0,0,0.1,0,0.1,0h69.1c12.4,0,22.4,10,22.4,22.4l0,0V346.3z
					 M388.6,252.8c0,12.4-10,22.4-22.4,22.4h-69.3c-12.4,0-22.4-10-22.4-22.4V134.1c0-12.4,10-22.5,22.4-22.5c0,0,0,0,0.1,0h69.3
					c12.4,0,22.4,10,22.4,22.4l0,0V252.8z"/>
			</g>
		</g>
	</g>
</g>
</svg>
