<?xml version="1.0" encoding="utf-8"?>
<!-- Generator: Adobe Illustrator 19.0.0, SVG Export Plug-In . SVG Version: 6.00 Build 0)  -->
<svg version="1.1" id="Layer_1" xmlns="http://www.w3.org/2000/svg" xmlns:xlink="http://www.w3.org/1999/xlink" x="0px" y="0px"
	 viewBox="0 0 500 500" style="enable-background:new 0 0 500 500;" xml:space="preserve">
<style type="text/css">
	.st0{fill:#FFFFFF;}
</style>
<g id="XMLID_13_">
	<path id="XMLID_17_" class="st0" d="M162.1,211.1c-2.4-8.9-1.5-17,5.4-23.6c6.9-6.6,15.1-8.6,24-5.1c8.7,3.4,13.7,10.2,14.3,19.5
		c0.5,7.1,0.1,14.2,0.2,21.3c0,1.8-0.7,2.6-2.5,2.6c-3.7-0.1-7.4,0-12,0c-4-0.1-8.8,0.3-13.7-0.5
		C169.6,223.8,164.3,219.2,162.1,211.1z"/>
	<path id="XMLID_18_" class="st0" d="M340.6,266.9c0.6,9.8,0.7,19.7,0,29.5c-0.8,11.3-11.2,20-23,19.7c-11.4-0.3-21.2-9.6-21.6-20.8
		c-0.3-6.8-0.1-13.7-0.1-20.5c0-3.7-0.1-3.8-3.8-3.8c-21.1,0-42.2,0.1-63.3-0.1c-13.8-0.1-22,7.5-22.8,22.6
		c-0.3,5.9-1.5,11.3-5.5,15.8c-6.2,7-13.9,9.3-22.8,7.2c-8.6-2-13.4-8.1-16-16.2c-1.8-5.7-0.9-11.4,0.2-16.9
		c5.3-27.9,21.3-46.7,48.7-55.1c5.9-1.8,12-2.5,18.1-2.5c14.1,0,28.2,0,42.4,0c2,0,4-0.2,6-0.3c10.9-0.8,18.1-7.9,18.9-20.9
		c0.1-1,0-2,0-3c0.2-12.2,9.4-21.6,21.6-22.1c12.2-0.5,22.3,8.2,23.1,20.4c1.2,16.8-4.1,31.7-14.1,45c-0.9,1.2-2.2,2.2-2.6,3.9
		c1.8,0.7,3.5,1.2,5.2,2C336,253.9,340.1,259.3,340.6,266.9z"/>
	<path id="XMLID_21_" class="st0" d="M434.2,106.5c0-5-0.3-10-1.3-14.9c-2.6-12.3-9.2-21.4-21.7-25.2c-5.8-1.8-11.7-2.4-17.7-2.4
		H249.9c-47.7,0-95.4,0.1-143.2,0.1c-3.4,0-6.8,0.3-10.3,0.6C81.8,66.3,72,74,67.5,88.1c-1.7,5.3-1.8,10.9-1.8,16.4
		c0,95-0.1,190-0.1,285c0,4.3,0.2,8.5,0.6,12.8c1.3,11.9,7.6,20.6,16.8,27.6c1.3,1,2.7,1.5,4.2,2.1c7.2,3.1,15,3.7,22.6,3.7
		c93.7,0.2,187.5,0.1,281.2,0.1c4.1,0,8.2-1,12.3-1c1.8,0,3.6-0.6,5.4-1.2c9.7-3,16.1-9.8,20.8-18.5c4.2-7.8,4.7-16.4,4.7-25
		c0.1-61,0.1-122.1,0.1-183.2C434.4,173.5,434.3,140,434.2,106.5z M375.5,257.3c7.6,11.8,11,24.8,10.6,39
		c-0.9,29.5-21.7,55.9-50.4,62.8c-40,9.6-70.7-14.3-81-43.3c-1.7-4.7-2.5-9.6-3.5-15.3c-1,6.4-1.8,12.2-4.1,17.6
		c-10.8,25-29.2,40.3-56.8,43.3c-32.6,3.6-62.7-16.5-71.7-47.8c-3.3-11.3-3-22.9-1.8-34.4c1.3-12.3,4.9-24,10.6-35
		c0.8-1.6,0.8-2.8-0.2-4.3c-8.7-13.1-12.1-27.5-10.8-43.1c0.7-8.3,2.7-16.3,6.5-23.8c11.1-21.9,35.4-40.4,68-37.3
		c28.6,2.7,55.2,27.4,59.3,55.2c0.2,1.4,0.6,2.8,1.1,4.8c0.7-3.7,1.2-6.8,1.8-9.8c5.3-25.2,30-51.7,65.1-52
		c35.5-0.3,61.8,27.5,66.7,53.4c2.1,10.9,1.7,21.8,0,32.8c-1.7,10.8-4.9,21.4-9.6,31.4C374,253.7,374.2,255.3,375.5,257.3z"/>
</g>
</svg>
