<?xml version="1.0" encoding="utf-8"?>
<!-- Generator: Adobe Illustrator 19.0.0, SVG Export Plug-In . SVG Version: 6.00 Build 0)  -->
<svg version="1.1" id="Layer_1" xmlns="http://www.w3.org/2000/svg" xmlns:xlink="http://www.w3.org/1999/xlink" x="0px" y="0px"
	 viewBox="309.3 209.4 650.7 143.6" style="enable-background:new 309.3 209.4 650.7 143.6;" xml:space="preserve">
<style type="text/css">
	.st0{fill:#939598;}
	.st1{fill:#FFFFFF;}
	.st2{fill:#00813D;}
	.st3{fill:url(#XMLID_3_);}
</style>
<rect id="XMLID_190_" x="309.3" y="286.7" class="st0" width="650.7" height="66.3"/>
<g id="XMLID_141_">
	<path id="XMLID_188_" class="st1" d="M469.1,304c0.2,0,0.3,0.1,0.5,0.1c0.1,0.1,0.3,0.2,0.4,0.3s0.3,0.3,0.5,0.5l17.1,21.8
		c-0.1-0.5-0.1-1-0.1-1.5s0-1,0-1.4V304h5.3v32.6h-3.1c-0.5,0-0.9-0.1-1.2-0.2c-0.3-0.1-0.6-0.4-0.9-0.8l-17-21.7
		c0,0.5,0.1,1,0.1,1.4c0,0.5,0,0.9,0,1.3v20h-5.3V304h3.2C468.7,304,468.9,304,469.1,304z"/>
	<path id="XMLID_185_" class="st1" d="M516.2,336.6h-2.5c-0.5,0-0.9-0.1-1.2-0.2c-0.3-0.2-0.5-0.5-0.7-1l-0.5-1.6
		c-0.6,0.5-1.2,1-1.7,1.4c-0.6,0.4-1.1,0.7-1.7,1c-0.6,0.3-1.2,0.5-1.9,0.6c-0.7,0.1-1.4,0.2-2.3,0.2c-1,0-1.9-0.1-2.7-0.4
		c-0.8-0.3-1.5-0.7-2.1-1.2s-1.1-1.2-1.4-2s-0.5-1.7-0.5-2.7c0-0.9,0.2-1.7,0.7-2.6s1.2-1.6,2.3-2.3s2.5-1.3,4.3-1.7
		c1.8-0.5,4-0.7,6.6-0.7V322c0-1.6-0.3-2.7-1-3.5c-0.7-0.7-1.6-1.1-2.9-1.1c-0.9,0-1.7,0.1-2.3,0.3c-0.6,0.2-1.1,0.4-1.6,0.7
		c-0.4,0.3-0.9,0.5-1.2,0.7c-0.4,0.2-0.8,0.3-1.2,0.3c-0.4,0-0.7-0.1-1-0.3c-0.3-0.2-0.5-0.4-0.7-0.7l-1-1.8
		c2.7-2.4,5.9-3.7,9.6-3.7c1.4,0,2.6,0.2,3.6,0.7c1.1,0.4,2,1.1,2.7,1.8c0.7,0.7,1.3,1.7,1.7,2.8c0.4,1.1,0.6,2.3,0.6,3.6
		L516.2,336.6L516.2,336.6z M505.4,333.1c0.6,0,1.1-0.1,1.6-0.2s0.9-0.3,1.4-0.5c0.4-0.2,0.8-0.5,1.2-0.8c0.4-0.3,0.8-0.7,1.2-1.1
		v-3.9c-1.6,0-3,0.1-4.1,0.3c-1.1,0.2-2,0.5-2.6,0.8c-0.7,0.3-1.1,0.7-1.4,1.1c-0.3,0.4-0.4,0.9-0.4,1.4c0,1,0.3,1.7,0.9,2.1
		C503.7,332.9,504.5,333.1,505.4,333.1z"/>
	<path id="XMLID_183_" class="st1" d="M543.7,305.3c-0.2-0.4-0.5-0.8-0.8-1.1c-0.3-0.3-0.7-0.6-1.1-0.8c-0.4-0.2-0.9-0.3-1.4-0.3
		s-0.9,0.1-1.4,0.3c-0.4,0.2-0.8,0.4-1.1,0.8c-0.3,0.3-0.6,0.7-0.8,1.1c-0.2,0.4-0.3,0.9-0.3,1.4s0.1,0.9,0.3,1.4
		c0.2,0.4,0.4,0.8,0.8,1.1c0.3,0.3,0.7,0.6,1.1,0.8c0.4,0.2,0.9,0.3,1.4,0.3s1-0.1,1.4-0.3s0.8-0.4,1.1-0.8c0.3-0.3,0.6-0.7,0.8-1.1
		s0.3-0.9,0.3-1.4S543.9,305.7,543.7,305.3z"/>
	<path id="XMLID_182_" class="st1" d="M543.2,313.7v22.9h-5.6v-19h-9.9v12.5c0,0.7,0.2,1.3,0.5,1.7c0.4,0.4,0.8,0.6,1.4,0.6
		c0.3,0,0.6,0,0.9-0.1c0.2-0.1,0.4-0.2,0.6-0.3c0.2-0.1,0.3-0.2,0.5-0.3c0.1-0.1,0.3-0.1,0.4-0.1c0.2,0,0.3,0,0.4,0.1
		c0.1,0.1,0.2,0.2,0.3,0.4l1.7,2.7c-0.8,0.7-1.7,1.2-2.8,1.5s-2.1,0.5-3.3,0.5c-2,0-3.5-0.6-4.6-1.7c-1.1-1.1-1.6-2.7-1.6-4.7v-12.9
		h-2.3c-0.3,0-0.6-0.1-0.8-0.3c-0.2-0.2-0.3-0.5-0.3-0.9v-2.2l3.7-0.6l1.2-6.3c0.1-0.3,0.2-0.5,0.4-0.7c0.2-0.2,0.5-0.2,0.8-0.2h2.9
		v7.3h15.5V313.7z"/>
	<path id="XMLID_179_" class="st1" d="M558.4,313.1c1.7,0,3.3,0.3,4.7,0.8c1.4,0.6,2.6,1.3,3.6,2.4c1,1,1.8,2.3,2.3,3.7
		c0.5,1.5,0.8,3.1,0.8,4.9s-0.3,3.5-0.8,5s-1.3,2.7-2.3,3.8c-1,1-2.2,1.8-3.6,2.4c-1.4,0.6-3,0.8-4.7,0.8s-3.3-0.3-4.7-0.8
		c-1.4-0.6-2.6-1.4-3.6-2.4s-1.8-2.3-2.3-3.8s-0.8-3.1-0.8-5c0-1.8,0.3-3.5,0.8-4.9c0.5-1.5,1.3-2.7,2.3-3.7s2.2-1.8,3.6-2.4
		C555.1,313.4,556.7,313.1,558.4,313.1z M558.4,332.6c1.9,0,3.3-0.6,4.3-1.9c0.9-1.3,1.4-3.2,1.4-5.7s-0.5-4.4-1.4-5.7s-2.3-2-4.3-2
		s-3.4,0.7-4.3,2c-0.9,1.3-1.4,3.2-1.4,5.7s0.5,4.4,1.4,5.7C555,332,556.4,332.6,558.4,332.6z"/>
	<path id="XMLID_177_" class="st1" d="M573.2,336.6v-23.2h3.4c0.7,0,1.2,0.3,1.4,1l0.4,1.8c0.5-0.5,1-0.9,1.5-1.3s1.1-0.7,1.6-1
		c0.6-0.3,1.2-0.5,1.9-0.7c0.7-0.1,1.4-0.2,2.2-0.2c1.3,0,2.4,0.2,3.4,0.6s1.8,1,2.4,1.8c0.7,0.8,1.1,1.7,1.5,2.8
		c0.3,1.1,0.5,2.3,0.5,3.6v14.7h-5.6v-14.7c0-1.4-0.3-2.5-1-3.3s-1.6-1.2-2.9-1.2c-1,0-1.9,0.2-2.7,0.7c-0.8,0.4-1.6,1-2.4,1.8v16.7
		L573.2,336.6L573.2,336.6z"/>
	<path id="XMLID_174_" class="st1" d="M616,336.6h-2.5c-0.5,0-0.9-0.1-1.2-0.2c-0.3-0.2-0.5-0.5-0.7-1l-0.5-1.6
		c-0.6,0.5-1.2,1-1.7,1.4c-0.6,0.4-1.1,0.7-1.7,1c-0.6,0.3-1.2,0.5-1.9,0.6c-0.7,0.1-1.4,0.2-2.3,0.2c-1,0-1.9-0.1-2.7-0.4
		c-0.8-0.3-1.5-0.7-2.1-1.2s-1.1-1.2-1.4-2c-0.3-0.8-0.5-1.7-0.5-2.7c0-0.9,0.2-1.7,0.7-2.6s1.2-1.6,2.3-2.3
		c1.1-0.7,2.5-1.3,4.3-1.7c1.8-0.5,4-0.7,6.6-0.7V322c0-1.6-0.3-2.7-1-3.5c-0.7-0.7-1.6-1.1-2.9-1.1c-0.9,0-1.7,0.1-2.3,0.3
		c-0.6,0.2-1.1,0.4-1.6,0.7c-0.4,0.3-0.9,0.5-1.2,0.7c-0.4,0.2-0.8,0.3-1.2,0.3s-0.7-0.1-1-0.3c-0.3-0.2-0.5-0.4-0.7-0.7l-1-1.8
		c2.7-2.4,5.9-3.7,9.6-3.7c1.4,0,2.6,0.2,3.6,0.7c1.1,0.4,2,1.1,2.7,1.8c0.7,0.7,1.3,1.7,1.7,2.8c0.4,1.1,0.6,2.3,0.6,3.6L616,336.6
		L616,336.6z M605.2,333.1c0.6,0,1.1-0.1,1.6-0.2s0.9-0.3,1.4-0.5c0.4-0.2,0.8-0.5,1.2-0.8c0.4-0.3,0.8-0.7,1.2-1.1v-3.9
		c-1.6,0-3,0.1-4.1,0.3c-1.1,0.2-2,0.5-2.6,0.8c-0.7,0.3-1.1,0.7-1.4,1.1c-0.3,0.4-0.4,0.9-0.4,1.4c0,1,0.3,1.7,0.9,2.1
		C603.5,332.9,604.3,333.1,605.2,333.1z"/>
	<path id="XMLID_172_" class="st1" d="M626.5,303.1v33.5h-5.6v-33.5H626.5z"/>
	<path id="XMLID_170_" class="st1" d="M648.8,331.6h13.1v5h-19.1V304h6.1L648.8,331.6L648.8,331.6z"/>
	<path id="XMLID_167_" class="st1" d="M671.6,306.7c0,0.5-0.1,0.9-0.3,1.4c-0.2,0.4-0.5,0.8-0.8,1.1c-0.3,0.3-0.7,0.6-1.1,0.8
		s-0.9,0.3-1.4,0.3s-0.9-0.1-1.4-0.3c-0.4-0.2-0.8-0.4-1.1-0.8c-0.3-0.3-0.6-0.7-0.8-1.1s-0.3-0.9-0.3-1.4s0.1-1,0.3-1.4
		c0.2-0.4,0.4-0.8,0.8-1.1c0.3-0.3,0.7-0.6,1.1-0.8c0.4-0.2,0.9-0.3,1.4-0.3s1,0.1,1.4,0.3s0.8,0.4,1.1,0.8c0.3,0.3,0.6,0.7,0.8,1.1
		C671.5,305.7,671.6,306.2,671.6,306.7z M670.8,313.4v23.1h-5.6v-23.1H670.8z"/>
	<path id="XMLID_165_" class="st1" d="M687.7,336.6h-5.1l-9.2-23.1h4.6c0.4,0,0.7,0.1,1,0.3s0.5,0.4,0.6,0.7l4.5,12.4
		c0.3,0.7,0.5,1.4,0.6,2.1c0.2,0.7,0.3,1.4,0.5,2.1c0.1-0.7,0.3-1.4,0.5-2.1c0.2-0.7,0.4-1.4,0.7-2.1l4.6-12.4
		c0.1-0.3,0.3-0.5,0.6-0.7c0.3-0.2,0.6-0.3,1-0.3h4.4L687.7,336.6z"/>
	<path id="XMLID_162_" class="st1" d="M708,313.1c1.5,0,2.8,0.2,4,0.7s2.3,1.1,3.2,2s1.6,2,2.1,3.3c0.5,1.3,0.7,2.8,0.7,4.5
		c0,0.4,0,0.8-0.1,1c-0.1,0.2-0.1,0.5-0.2,0.7c-0.1,0.2-0.2,0.3-0.4,0.3c-0.2,0.1-0.4,0.1-0.6,0.1h-14.3c0.2,2.4,0.8,4.1,1.9,5.2
		c1.1,1.1,2.6,1.7,4.4,1.7c0.9,0,1.7-0.1,2.3-0.3c0.7-0.2,1.2-0.4,1.7-0.7s0.9-0.5,1.3-0.7c0.4-0.2,0.7-0.3,1.1-0.3
		c0.2,0,0.4,0,0.6,0.1c0.2,0.1,0.3,0.2,0.4,0.4l1.6,2c-0.6,0.7-1.3,1.3-2.1,1.8s-1.6,0.9-2.4,1.2c-0.8,0.3-1.7,0.5-2.5,0.6
		c-0.9,0.1-1.7,0.2-2.5,0.2c-1.6,0-3.1-0.3-4.5-0.8s-2.6-1.3-3.6-2.4c-1-1-1.8-2.3-2.4-3.9c-0.6-1.5-0.9-3.3-0.9-5.4
		c0-1.6,0.3-3.1,0.8-4.5c0.5-1.4,1.2-2.6,2.2-3.6s2.1-1.8,3.5-2.4C704.8,313.4,706.3,313.1,708,313.1z M708.1,317.1
		c-1.6,0-2.9,0.5-3.8,1.4c-0.9,0.9-1.5,2.2-1.8,3.9H713c0-0.7-0.1-1.4-0.3-2s-0.5-1.2-0.9-1.7s-0.9-0.9-1.5-1.1
		C709.7,317.2,709,317.1,708.1,317.1z"/>
	<path id="XMLID_160_" class="st1" d="M735.4,318c-0.2,0.2-0.3,0.4-0.5,0.5c-0.2,0.1-0.4,0.1-0.6,0.1c-0.3,0-0.6-0.1-0.9-0.2
		c-0.3-0.2-0.7-0.3-1.1-0.5c-0.4-0.2-0.9-0.4-1.4-0.5s-1.1-0.2-1.8-0.2c-1.1,0-2,0.2-2.6,0.7s-0.9,1.1-0.9,1.8
		c0,0.5,0.2,0.9,0.5,1.3c0.3,0.3,0.8,0.6,1.3,0.9c0.5,0.3,1.1,0.5,1.8,0.7c0.7,0.2,1.4,0.4,2.1,0.7c0.7,0.2,1.4,0.5,2.1,0.8
		c0.7,0.3,1.3,0.7,1.8,1.2s1,1,1.3,1.7c0.3,0.7,0.5,1.5,0.5,2.4c0,1.1-0.2,2.1-0.6,3.1c-0.4,0.9-1,1.8-1.8,2.4
		c-0.8,0.7-1.7,1.2-2.9,1.6c-1.1,0.4-2.5,0.6-4,0.6c-0.8,0-1.6-0.1-2.3-0.2c-0.8-0.1-1.5-0.3-2.2-0.6s-1.3-0.6-1.9-0.9
		c-0.6-0.3-1.1-0.7-1.6-1.1l1.3-2.1c0.2-0.3,0.4-0.5,0.6-0.6c0.2-0.1,0.5-0.2,0.9-0.2c0.3,0,0.7,0.1,1,0.3c0.3,0.2,0.7,0.4,1.1,0.6
		c0.4,0.2,0.9,0.4,1.4,0.6c0.5,0.2,1.2,0.3,2.1,0.3c0.7,0,1.2-0.1,1.7-0.2c0.5-0.2,0.9-0.4,1.2-0.6c0.3-0.3,0.5-0.6,0.7-0.9
		c0.1-0.3,0.2-0.7,0.2-1c0-0.5-0.2-1-0.5-1.3c-0.3-0.3-0.8-0.6-1.3-0.9c-0.5-0.3-1.1-0.5-1.8-0.7s-1.4-0.4-2.1-0.7
		c-0.7-0.2-1.4-0.5-2.1-0.8c-0.7-0.3-1.3-0.7-1.8-1.2s-1-1.1-1.3-1.8c-0.3-0.7-0.5-1.6-0.5-2.6c0-0.9,0.2-1.8,0.6-2.7
		c0.4-0.9,0.9-1.6,1.7-2.2c0.7-0.6,1.6-1.1,2.7-1.5c1.1-0.4,2.3-0.6,3.8-0.6c1.6,0,3,0.3,4.4,0.8c1.3,0.5,2.4,1.2,3.3,2.1L735.4,318
		z"/>
	<path id="XMLID_158_" class="st1" d="M748,336.9c-2,0-3.5-0.6-4.6-1.7c-1.1-1.1-1.6-2.7-1.6-4.7v-12.9h-2.3c-0.3,0-0.6-0.1-0.8-0.3
		s-0.3-0.5-0.3-0.9v-2.2l3.7-0.6l1.2-6.3c0.1-0.3,0.2-0.5,0.4-0.7c0.2-0.2,0.5-0.2,0.8-0.2h2.9v7.3h6.1v4h-6.1v12.5
		c0,0.7,0.2,1.3,0.5,1.7c0.4,0.4,0.8,0.6,1.4,0.6c0.3,0,0.6,0,0.9-0.1c0.2-0.1,0.4-0.2,0.6-0.3c0.2-0.1,0.3-0.2,0.5-0.3
		c0.1-0.1,0.3-0.1,0.4-0.1c0.2,0,0.3,0,0.4,0.1c0.1,0.1,0.2,0.2,0.3,0.4l1.7,2.7c-0.8,0.7-1.7,1.2-2.8,1.5
		C750.2,336.8,749.1,336.9,748,336.9z"/>
	<path id="XMLID_155_" class="st1" d="M766.8,313.1c1.7,0,3.3,0.3,4.7,0.8c1.4,0.6,2.6,1.3,3.6,2.4c1,1.1,1.8,2.3,2.3,3.7
		c0.5,1.5,0.8,3.1,0.8,4.9s-0.3,3.5-0.8,5s-1.3,2.7-2.3,3.8c-1,1-2.2,1.8-3.6,2.4c-1.4,0.6-3,0.8-4.7,0.8s-3.3-0.3-4.7-0.8
		c-1.4-0.6-2.6-1.4-3.6-2.4s-1.8-2.3-2.3-3.8s-0.8-3.1-0.8-5c0-1.8,0.3-3.5,0.8-4.9c0.5-1.5,1.3-2.7,2.3-3.7s2.2-1.8,3.6-2.4
		C763.5,313.4,765,313.1,766.8,313.1z M766.8,332.6c1.9,0,3.3-0.6,4.3-1.9c0.9-1.3,1.4-3.2,1.4-5.7s-0.5-4.4-1.4-5.7s-2.3-2-4.3-2
		s-3.4,0.7-4.3,2c-0.9,1.3-1.4,3.2-1.4,5.7s0.5,4.4,1.4,5.7C763.4,332,764.8,332.6,766.8,332.6z"/>
	<path id="XMLID_153_" class="st1" d="M797.8,318.3c-0.2,0.2-0.3,0.4-0.5,0.5c-0.2,0.1-0.4,0.2-0.7,0.2s-0.6-0.1-0.8-0.3
		c-0.3-0.2-0.6-0.4-1-0.6c-0.4-0.2-0.8-0.4-1.3-0.6c-0.5-0.2-1.2-0.3-1.9-0.3c-1,0-1.8,0.2-2.6,0.5c-0.8,0.3-1.3,0.9-1.8,1.5
		c-0.5,0.7-0.9,1.5-1.1,2.4c-0.2,0.9-0.4,2-0.4,3.2s0.1,2.3,0.4,3.3c0.3,1,0.6,1.8,1.1,2.4c0.5,0.7,1.1,1.1,1.8,1.5
		c0.7,0.3,1.5,0.5,2.4,0.5s1.6-0.1,2.2-0.3c0.5-0.2,1-0.5,1.4-0.7c0.4-0.3,0.7-0.5,1-0.7c0.3-0.2,0.6-0.3,0.9-0.3
		c0.5,0,0.8,0.2,1,0.5l1.6,2c-0.6,0.7-1.3,1.3-2,1.8s-1.5,0.9-2.2,1.2c-0.8,0.3-1.6,0.5-2.4,0.6c-0.8,0.1-1.6,0.2-2.5,0.2
		c-1.4,0-2.8-0.3-4-0.8c-1.3-0.5-2.4-1.3-3.3-2.3c-0.9-1-1.7-2.3-2.2-3.8s-0.8-3.2-0.8-5.1c0-1.7,0.2-3.3,0.7-4.7
		c0.5-1.5,1.2-2.7,2.2-3.8c0.9-1.1,2.1-1.9,3.5-2.5c1.4-0.6,3-0.9,4.8-0.9c1.7,0,3.2,0.3,4.5,0.8c1.3,0.6,2.5,1.4,3.5,2.4
		L797.8,318.3z"/>
	<path id="XMLID_151_" class="st1" d="M807.8,303.1v19.2h1c0.4,0,0.7-0.1,0.9-0.2c0.2-0.1,0.4-0.3,0.7-0.6l5.7-7.1
		c0.3-0.3,0.5-0.5,0.8-0.7c0.3-0.2,0.7-0.3,1.1-0.3h5.1l-7.2,8.6c-0.3,0.3-0.5,0.6-0.8,0.9s-0.6,0.5-0.9,0.7
		c0.3,0.2,0.6,0.5,0.8,0.8s0.5,0.6,0.7,1l7.7,11.2h-5c-0.4,0-0.8-0.1-1.1-0.2s-0.6-0.4-0.8-0.8l-5.9-8.8c-0.2-0.3-0.5-0.6-0.7-0.7
		c-0.2-0.1-0.6-0.2-1-0.2h-1.3v10.6H802v-33.4H807.8z"/>
	<path id="XMLID_149_" class="st1" d="M854.9,309.9c-0.2,0.3-0.4,0.6-0.6,0.7c-0.2,0.1-0.5,0.2-0.8,0.2s-0.6-0.1-1-0.3
		c-0.4-0.2-0.8-0.5-1.3-0.8s-1.1-0.5-1.8-0.8c-0.7-0.2-1.5-0.3-2.4-0.3c-0.8,0-1.6,0.1-2.2,0.3c-0.6,0.2-1.1,0.5-1.6,0.8
		c-0.4,0.4-0.7,0.8-1,1.3c-0.2,0.5-0.3,1.1-0.3,1.7c0,0.8,0.2,1.4,0.6,1.9c0.4,0.5,1,0.9,1.7,1.3s1.5,0.7,2.4,1
		c0.9,0.3,1.8,0.6,2.8,0.9s1.9,0.7,2.8,1.1s1.7,1,2.4,1.6c0.7,0.7,1.3,1.5,1.7,2.4s0.6,2.1,0.6,3.4c0,1.5-0.3,2.9-0.8,4.1
		c-0.5,1.3-1.2,2.4-2.2,3.4s-2.2,1.7-3.6,2.3c-1.4,0.5-3,0.8-4.8,0.8c-1,0-2.1-0.1-3.1-0.3c-1-0.2-2-0.5-2.9-0.9s-1.8-0.8-2.6-1.4
		c-0.8-0.5-1.5-1.1-2.2-1.8l1.8-2.9c0.2-0.2,0.4-0.4,0.6-0.5c0.2-0.1,0.5-0.2,0.8-0.2c0.4,0,0.8,0.2,1.2,0.5c0.4,0.3,1,0.7,1.5,1
		c0.6,0.4,1.3,0.7,2.1,1c0.8,0.3,1.8,0.5,2.9,0.5c1.7,0,3.1-0.4,4-1.2c0.9-0.8,1.4-2,1.4-3.5c0-0.9-0.2-1.6-0.6-2.1
		c-0.4-0.5-1-1-1.7-1.4s-1.5-0.7-2.4-0.9c-0.9-0.3-1.8-0.5-2.8-0.8c-0.9-0.3-1.8-0.7-2.8-1.1c-0.9-0.4-1.7-1-2.4-1.6
		c-0.7-0.7-1.3-1.5-1.7-2.5s-0.6-2.3-0.6-3.8c0-1.2,0.2-2.3,0.7-3.5c0.5-1.2,1.2-2.1,2.1-3c0.9-0.9,2-1.6,3.3-2.1s2.8-0.8,4.5-0.8
		c1.9,0,3.7,0.3,5.3,0.9c1.6,0.6,3,1.4,4.1,2.5L854.9,309.9z"/>
	<path id="XMLID_147_" class="st1" d="M860.4,336.6v-33.5h5.6V316c0.9-0.9,1.9-1.5,3-2.1c1.1-0.5,2.4-0.8,3.8-0.8
		c1.3,0,2.4,0.2,3.4,0.6s1.8,1,2.4,1.8c0.7,0.8,1.1,1.7,1.5,2.8c0.3,1.1,0.5,2.3,0.5,3.6v14.7H875v-14.7c0-1.4-0.3-2.5-1-3.3
		c-0.7-0.8-1.6-1.2-2.9-1.2c-1,0-1.9,0.2-2.7,0.7c-0.8,0.4-1.6,1-2.4,1.8v16.7H860.4z"/>
	<path id="XMLID_144_" class="st1" d="M895,313.1c1.7,0,3.3,0.3,4.7,0.8c1.4,0.6,2.6,1.3,3.6,2.4c1,1,1.8,2.3,2.3,3.7
		c0.5,1.5,0.8,3.1,0.8,4.9s-0.3,3.5-0.8,5s-1.3,2.7-2.3,3.8c-1,1-2.2,1.8-3.6,2.4c-1.4,0.6-3,0.8-4.7,0.8s-3.3-0.3-4.7-0.8
		c-1.4-0.6-2.6-1.4-3.6-2.4s-1.8-2.3-2.3-3.8s-0.8-3.1-0.8-5c0-1.8,0.3-3.5,0.8-4.9c0.5-1.5,1.3-2.7,2.3-3.7s2.2-1.8,3.6-2.4
		C891.7,313.4,893.2,313.1,895,313.1z M895,332.6c1.9,0,3.3-0.6,4.3-1.9c0.9-1.3,1.4-3.2,1.4-5.7s-0.5-4.4-1.4-5.7s-2.3-2-4.3-2
		s-3.4,0.7-4.3,2c-0.9,1.3-1.4,3.2-1.4,5.7s0.5,4.4,1.4,5.7C891.6,332,893,332.6,895,332.6z"/>
	<path id="XMLID_142_" class="st1" d="M907,313.4h4.4c0.4,0,0.8,0.1,1.1,0.3c0.3,0.2,0.5,0.4,0.5,0.7l3.3,12.4
		c0.2,0.7,0.3,1.3,0.4,2c0.1,0.6,0.2,1.3,0.3,1.9c0.2-0.6,0.3-1.3,0.5-1.9c0.2-0.6,0.4-1.3,0.6-2l3.9-12.4c0.1-0.3,0.3-0.5,0.5-0.7
		c0.3-0.2,0.6-0.3,0.9-0.3h2.5c0.4,0,0.7,0.1,1,0.3c0.3,0.2,0.5,0.4,0.5,0.7l3.8,12.6c0.2,0.6,0.4,1.3,0.5,1.9
		c0.2,0.6,0.3,1.2,0.5,1.8c0.1-0.6,0.2-1.3,0.3-1.9c0.1-0.6,0.3-1.3,0.5-2l3.4-12.4c0.1-0.3,0.3-0.5,0.5-0.7c0.3-0.2,0.6-0.3,1-0.3
		h4.2l-7.3,23.1h-4.5c-0.5,0-0.8-0.3-1-1l-4.2-13.4c-0.1-0.4-0.3-0.9-0.4-1.3c-0.1-0.4-0.2-0.9-0.3-1.3c-0.1,0.5-0.2,0.9-0.3,1.3
		s-0.2,0.9-0.4,1.3l-4.2,13.3c-0.2,0.7-0.6,1-1.2,1H914L907,313.4z"/>
</g>
<g id="XMLID_10_">
	<path id="XMLID_12_" class="st2" d="M362,211.7v12h-18.3v53.2h-15.1v-53.2h-18.3v-12C310.3,211.7,362,211.7,362,211.7z"/>
	<path id="XMLID_21_" class="st2" d="M373,230.5v29.4c0,2.3,0.5,4.1,1.6,5.3c1,1.3,2.6,1.9,4.6,1.9c1.5,0,2.9-0.3,4.3-0.9
		c1.3-0.6,2.6-1.5,3.9-2.6v-33h13.9V277h-8.6c-1.7,0-2.9-0.8-3.4-2.3l-0.8-2.7c-0.9,0.9-1.8,1.6-2.8,2.3c-1,0.7-2,1.3-3.1,1.8
		s-2.3,0.9-3.5,1.2c-1.3,0.3-2.6,0.4-4.1,0.4c-2.5,0-4.8-0.4-6.7-1.3c-2-0.9-3.6-2.1-4.9-3.7c-1.3-1.6-2.4-3.4-3-5.6
		c-0.6-2.2-1-4.5-1-7.1v-29.5H373z"/>
	<path id="XMLID_23_" class="st2" d="M425.2,209.9v66.9h-13.9v-66.9H425.2z"/>
	<path id="XMLID_25_" class="st2" d="M449.6,209.9v66.9h-13.9v-66.9H449.6z"/>
	<path id="XMLID_39_" class="st2" d="M491.7,276.9c-1.3,0-2.3-0.2-3-0.5c-0.7-0.4-1.2-1.1-1.7-2.2l-1-2.5c-1.2,1-2.3,1.8-3.4,2.6
		s-2.2,1.4-3.3,1.9c-1.1,0.5-2.4,0.9-3.7,1.2s-2.7,0.4-4.3,0.4c-2.1,0-4-0.3-5.8-0.8c-1.7-0.6-3.2-1.4-4.4-2.4s-2.1-2.4-2.8-4
		c-0.7-1.6-1-3.4-1-5.5c0-1.6,0.4-3.3,1.3-5.1c0.8-1.7,2.3-3.3,4.3-4.7c2.1-1.4,4.8-2.6,8.3-3.6s7.9-1.4,13.2-1.4v-2
		c0-2.7-0.6-4.7-1.7-5.9c-1.1-1.2-2.7-1.8-4.8-1.8c-1.6,0-3,0.2-4,0.5c-1,0.4-2,0.8-2.8,1.2c-0.8,0.4-1.6,0.8-2.4,1.2
		c-0.8,0.4-1.7,0.5-2.8,0.5c-1,0-1.8-0.2-2.4-0.7c-0.7-0.5-1.2-1-1.6-1.7l-2.5-4.3c2.8-2.5,5.9-4.3,9.3-5.5c3.4-1.2,7.1-1.8,11-1.8
		c2.8,0,5.3,0.5,7.6,1.4c2.3,0.9,4.2,2.2,5.7,3.8c1.6,1.6,2.8,3.6,3.6,5.8c0.8,2.2,1.3,4.7,1.3,7.3v29h-6.2V276.9z M475.8,268.4
		c1.8,0,3.4-0.3,4.7-0.9c1.3-0.6,2.7-1.6,4.1-3v-6.4c-2.8,0-5.1,0.2-6.8,0.5c-1.8,0.4-3.2,0.8-4.2,1.4c-1,0.5-1.8,1.2-2.2,1.8
		c-0.4,0.7-0.6,1.4-0.6,2.3c0,1.6,0.4,2.7,1.3,3.4C472.8,268.1,474.1,268.4,475.8,268.4z"/>
	<path id="XMLID_55_" class="st2" d="M506.8,276.9v-46.4h8.6c0.9,0,1.6,0.2,2.2,0.6c0.6,0.4,1,1,1.2,1.7l0.8,2.5
		c0.8-0.8,1.6-1.5,2.4-2.2c0.8-0.7,1.7-1.3,2.7-1.7s2-0.9,3.1-1.2s2.3-0.4,3.7-0.4c2.8,0,5.1,0.7,7,2.2c1.8,1.4,3.2,3.4,4.2,5.8
		c0.8-1.4,1.7-2.7,2.8-3.7s2.3-1.8,3.6-2.5s2.7-1.1,4.1-1.4c1.4-0.3,2.9-0.4,4.3-0.4c2.7,0,5,0.4,7.1,1.2c2.1,0.8,3.8,1.9,5.2,3.4
		s2.4,3.4,3.2,5.5c0.7,2.2,1.1,4.7,1.1,7.4v29.5h-13.9v-29.4c0-4.8-2.1-7.2-6.2-7.2c-1.9,0-3.4,0.6-4.7,1.9c-1.2,1.2-1.9,3-1.9,5.3
		v29.5h-13.9v-29.5c0-2.7-0.5-4.5-1.6-5.6c-1.1-1.1-2.6-1.6-4.6-1.6c-1.3,0-2.4,0.3-3.6,0.8c-1.1,0.6-2.2,1.3-3.2,2.3v33.5h-13.7
		V276.9z"/>
	<path id="XMLID_57_" class="st2" d="M603.4,229.8c3.5,0,6.7,0.6,9.6,1.7c2.9,1.1,5.4,2.7,7.4,4.7s3.7,4.6,4.8,7.5
		c1.1,2.9,1.7,6.2,1.7,9.9s-0.6,7-1.7,10c-1.1,3-2.8,5.5-4.8,7.6s-4.6,3.7-7.4,4.8c-2.9,1.1-6.1,1.7-9.6,1.7s-6.8-0.6-9.7-1.7
		c-2.9-1.1-5.4-2.7-7.5-4.8c-2.1-2.1-3.7-4.6-4.9-7.6c-1.1-3-1.7-6.3-1.7-10s0.6-7,1.7-9.9c1.1-2.9,2.8-5.4,4.9-7.5s4.6-3.6,7.5-4.7
		C596.6,230.3,599.9,229.8,603.4,229.8z M603.4,267.3c3.2,0,5.5-1.1,7-3.4c1.5-2.3,2.3-5.7,2.3-10.3s-0.8-8-2.3-10.2s-3.9-3.4-7-3.4
		c-3.3,0-5.7,1.1-7.2,3.4s-2.3,5.7-2.3,10.2c0,4.5,0.8,8,2.3,10.3S600.1,267.3,603.4,267.3z"/>
	<path id="XMLID_67_" class="st2" d="M633.6,276.9v-46.4h8.2c0.7,0,1.3,0.1,1.7,0.2c0.5,0.1,0.8,0.3,1.2,0.6c0.3,0.3,0.6,0.6,0.7,1
		c0.2,0.4,0.3,0.9,0.4,1.5l0.8,4.3c1.7-2.6,3.6-4.7,5.7-6.2s4.4-2.3,6.9-2.3c2.1,0,3.8,0.5,5.1,1.5l-1.8,10.2
		c-0.1,0.6-0.4,1.1-0.7,1.3s-0.8,0.4-1.4,0.4c-0.5,0-1.1-0.1-1.8-0.2c-0.7-0.1-1.6-0.2-2.6-0.2c-3.6,0-6.5,1.9-8.6,5.8v28.4h-13.8
		V276.9z"/>
	<path id="XMLID_69_" class="st2" d="M689.3,229.8c3.1,0,5.9,0.5,8.4,1.4c2.5,1,4.7,2.3,6.6,4.2c1.8,1.8,3.3,4,4.3,6.7
		c1,2.6,1.5,5.6,1.5,9c0,1,0,1.9-0.1,2.5c-0.1,0.7-0.3,1.2-0.5,1.6c-0.2,0.4-0.6,0.7-1,0.8c-0.4,0.1-0.9,0.2-1.5,0.2h-26.7
		c0.4,3.9,1.6,6.7,3.5,8.4c1.9,1.7,4.4,2.6,7.4,2.6c1.6,0,3-0.2,4.2-0.6c1.2-0.4,2.2-0.8,3.1-1.3c0.9-0.5,1.7-0.9,2.5-1.3
		s1.6-0.6,2.4-0.6c1.1,0,1.9,0.4,2.5,1.2l4,5c-1.4,1.6-3,3-4.6,4c-1.6,1-3.4,1.8-5.1,2.4c-1.7,0.6-3.5,1-5.2,1.2
		c-1.7,0.2-3.4,0.3-5,0.3c-3.3,0-6.3-0.5-9.1-1.6s-5.3-2.6-7.5-4.7c-2.1-2.1-3.8-4.7-5.1-7.8c-1.2-3.1-1.9-6.7-1.9-10.8
		c0-3.1,0.5-6,1.6-8.8c1.1-2.8,2.6-5.2,4.6-7.3c2-2.1,4.4-3.7,7.2-5C682.5,230.4,685.7,229.8,689.3,229.8z M689.5,239.3
		c-2.7,0-4.7,0.8-6.2,2.3s-2.5,3.7-3,6.5h17.3c0-1.1-0.1-2.2-0.4-3.2c-0.3-1-0.7-2-1.4-2.8c-0.6-0.8-1.5-1.5-2.5-2
		C692.3,239.6,691,239.3,689.5,239.3z"/>
	<path id="XMLID_73_" class="st2" d="M775.8,224.9c-0.4,0.7-0.9,1.3-1.4,1.6c-0.5,0.4-1.1,0.5-1.9,0.5c-0.7,0-1.4-0.2-2.2-0.6
		s-1.7-0.9-2.7-1.5c-1-0.5-2.1-1-3.4-1.5c-1.3-0.4-2.7-0.6-4.4-0.6c-2.8,0-4.9,0.6-6.3,1.8c-1.4,1.2-2.1,2.8-2.1,4.9
		c0,1.3,0.4,2.4,1.3,3.3c0.8,0.9,1.9,1.6,3.3,2.2c1.4,0.6,2.9,1.2,4.7,1.7c1.7,0.5,3.5,1.1,5.3,1.7s3.6,1.4,5.3,2.3
		c1.7,0.9,3.3,2,4.7,3.3c1.4,1.3,2.5,3,3.3,4.9c0.8,1.9,1.3,4.2,1.3,7c0,3-0.5,5.8-1.6,8.5c-1.1,2.7-2.6,4.9-4.5,6.9
		c-2,2-4.4,3.5-7.3,4.6c-2.9,1.1-6.2,1.7-9.9,1.7c-2,0-4.1-0.2-6.2-0.6c-2.1-0.4-4.1-1-6.1-1.8c-2-0.8-3.8-1.7-5.5-2.7
		s-3.2-2.2-4.5-3.5l4.5-7.1c0.3-0.5,0.8-1,1.4-1.3c0.6-0.3,1.2-0.5,1.9-0.5c0.9,0,1.8,0.3,2.7,0.8s1.9,1.2,3.1,1.9
		c1.1,0.7,2.5,1.3,4,1.9c1.5,0.6,3.2,0.8,5.3,0.8c2.7,0,4.9-0.6,6.4-1.8c1.5-1.2,2.3-3.1,2.3-5.7c0-1.5-0.4-2.8-1.3-3.7
		c-0.8-1-1.9-1.7-3.3-2.4c-1.4-0.6-2.9-1.2-4.6-1.7c-1.7-0.5-3.5-1-5.3-1.6c-1.8-0.6-3.6-1.3-5.3-2.1s-3.3-2-4.6-3.4
		c-1.3-1.4-2.5-3.1-3.3-5.2c-0.8-2.1-1.3-4.6-1.3-7.7c0-2.4,0.5-4.8,1.5-7.2c1-2.3,2.4-4.4,4.3-6.2c1.9-1.8,4.2-3.3,7-4.4
		c2.8-1.1,5.9-1.6,9.5-1.6c2,0,3.9,0.2,5.8,0.5c1.9,0.3,3.7,0.8,5.4,1.4s3.3,1.3,4.8,2.2c1.5,0.9,2.8,1.8,4,2.9L775.8,224.9z"/>
	<path id="XMLID_75_" class="st2" d="M788,276.9v-67h13.9v24.6c1.7-1.4,3.5-2.6,5.4-3.5c2-0.9,4.3-1.3,7-1.3c2.5,0,4.8,0.4,6.7,1.3
		c2,0.9,3.6,2.1,4.9,3.7c1.3,1.6,2.4,3.4,3,5.6c0.7,2.2,1,4.5,1,7v29.5H816v-29.4c0-2.3-0.5-4-1.6-5.3c-1-1.3-2.6-1.9-4.6-1.9
		c-1.5,0-3,0.3-4.3,1s-2.6,1.5-3.8,2.6v33H788V276.9z"/>
	<path id="XMLID_194_" class="st2" d="M860.5,229.8c3.5,0,6.7,0.6,9.6,1.7c2.9,1.1,5.4,2.7,7.4,4.7s3.7,4.6,4.8,7.5
		c1.1,2.9,1.7,6.2,1.7,9.9s-0.6,7-1.7,10c-1.1,3-2.8,5.5-4.8,7.6s-4.6,3.7-7.4,4.8c-2.9,1.1-6.1,1.7-9.6,1.7s-6.8-0.6-9.7-1.7
		c-2.9-1.1-5.4-2.7-7.5-4.8c-2.1-2.1-3.7-4.6-4.9-7.6c-1.1-3-1.7-6.3-1.7-10s0.6-7,1.7-9.9c1.1-2.9,2.8-5.4,4.9-7.5s4.6-3.6,7.5-4.7
		C853.8,230.3,857,229.8,860.5,229.8z M860.5,267.3c3.2,0,5.5-1.1,7-3.4c1.5-2.3,2.3-5.7,2.3-10.3s-0.8-8-2.3-10.2s-3.9-3.4-7-3.4
		c-3.3,0-5.7,1.1-7.2,3.4s-2.3,5.7-2.3,10.2c0,4.5,0.8,8,2.3,10.3S857.3,267.3,860.5,267.3z"/>
	<path id="XMLID_197_" class="st2" d="M886.4,230.5h11.1c1,0,1.8,0.2,2.5,0.7c0.7,0.4,1.1,1,1.3,1.7l4.7,20.8c0.4,1.6,0.7,3.1,1,4.6
		s0.6,3,0.8,4.4c0.4-1.5,0.9-2.9,1.3-4.4c0.5-1.5,0.9-3,1.4-4.6l5.8-20.8c0.2-0.7,0.6-1.3,1.3-1.7c0.7-0.5,1.5-0.7,2.4-0.7h6.2
		c1,0,1.8,0.2,2.5,0.7s1.1,1,1.3,1.7l5.5,20.8c0.4,1.6,0.8,3.1,1.3,4.6c0.4,1.5,0.8,3,1.2,4.5c0.2-1.5,0.5-3,0.9-4.4
		c0.3-1.5,0.7-3,1.1-4.7l4.9-20.8c0.1-0.7,0.6-1.3,1.3-1.7c0.7-0.4,1.5-0.7,2.4-0.7h10.6l-14.4,46.4h-11.3c-0.6,0-1.1-0.2-1.5-0.5
		c-0.4-0.4-0.7-1-1-1.8l-6.7-23.2c-0.3-1-0.6-2.1-0.8-3.1c-0.3-1-0.5-2-0.7-3c-0.2,1-0.4,2.1-0.7,3.1s-0.5,2.1-0.9,3.1l-6.7,23
		c-0.4,1.5-1.4,2.3-3,2.3h-10.7L886.4,230.5z"/>
</g>
<linearGradient id="XMLID_3_" gradientUnits="userSpaceOnUse" x1="378.95" y1="211.8" x2="378.95" y2="278" gradientTransform="matrix(1 0 0 -1 0 564.8)">
	<stop  offset="0" style="stop-color:#00813D"/>
	<stop  offset="1" style="stop-color:#62B84F"/>
</linearGradient>
<rect id="XMLID_139_" x="309.3" y="286.8" class="st3" width="139.3" height="66.2"/>
<g id="XMLID_2_">
	<g id="XMLID_734_">
		<path id="XMLID_792_" class="st1" d="M408.5,318.3c0.5,0.3,1.1,0.5,1.5,0.8c1.4,0.8,2.1,2.1,2.3,3.7c0.2,1.2,0.1,2.4-0.4,3.5
			c-0.7,1.7-2,2.7-3.6,3.4c-1.7,0.7-3.5,0.9-5.3,0.9c-2,0-3.9-0.1-5.9-0.1c-0.9,0-1.8-0.1-2.7-0.2c0-0.8,0-1.5,0-2.3
			c0-5.5,0-11.1,0-16.6c0-1.1,0-2.1,0-3.2c0-0.2,0-0.4,0.3-0.4c2.1-0.4,4.3-0.6,6.5-0.6c1.5,0,3,0,4.5,0.4c1.4,0.3,2.7,0.8,3.8,1.8
			c1,0.9,1.6,2.1,1.7,3.4c0.1,1,0,2-0.3,2.9c-0.4,1.2-1.1,2-2.2,2.6C408.6,318.2,408.5,318.2,408.5,318.3L408.5,318.3z M399.6,323.4
			L399.6,323.4c0,0.7,0,1.5,0,2.2c0,0.3,0.1,0.4,0.4,0.4c1,0,1.9,0.1,2.9,0.1c1.1,0,2.1-0.1,3-0.6c1.4-0.8,1.6-2.8,0.3-3.7
			c-0.6-0.4-1.3-0.7-2-0.7c-1.4-0.1-2.9-0.1-4.3-0.1c-0.2,0-0.2,0.1-0.2,0.3C399.6,321.9,399.6,322.7,399.6,323.4z M399.6,314.1
			L399.6,314.1c0,0.7,0,1.3,0,2c0,0.3,0.1,0.4,0.4,0.4s0.6,0,0.9,0c1.1-0.1,2.1,0,3.2-0.2c1.1-0.2,1.8-1,1.9-1.9
			c0.1-1.1-0.4-1.9-1.6-2.3c-1.4-0.5-2.9-0.4-4.4-0.3c-0.2,0-0.3,0.1-0.3,0.4C399.6,312.8,399.6,313.4,399.6,314.1z"/>
		<path id="XMLID_789_" class="st1" d="M415.3,330.1c0-7.4,0-14.9,0-22.3c0.7-0.1,1.3-0.2,2-0.3c2-0.3,3.9-0.3,5.9-0.3
			c2.5,0.1,4.9,0.6,7.1,2c2.4,1.6,3.8,3.8,4.3,6.6c0.4,2.2,0.4,4.5-0.2,6.7c-0.9,3.5-3.1,6-6.6,7.2c-1.3,0.5-2.7,0.7-4.1,0.8
			c-2.7,0.1-5.4,0-8.1-0.3C415.5,330.1,415.4,330.1,415.3,330.1z M420.6,318.8L420.6,318.8c0,2.2,0,4.4,0,6.6c0,0.3,0.1,0.3,0.3,0.4
			c1.2,0.1,2.5,0.2,3.7-0.1c2.1-0.4,3.6-1.4,4.3-3.5c0.7-1.9,0.7-3.9,0.2-5.8s-1.5-3.3-3.4-4c-1.5-0.6-3.2-0.6-4.8-0.5
			c-0.3,0-0.4,0.2-0.4,0.5C420.6,314.4,420.6,316.6,420.6,318.8z"/>
		<path id="XMLID_788_" class="st1" d="M381.4,312.2c0,0.9,0,1.8,0,2.7c0,0.4,0,0.7,0,1.1c0,0.3,0.1,0.5,0.5,0.4c2.5,0,5,0,7.5,0
			c0.5,0,0.6,0,0.7,0.5c0.3,1.2,0.3,2.4,0,3.6c-0.1,0.3-0.2,0.4-0.6,0.4c-2.5,0-5,0-7.5,0c-0.2,0-0.3,0-0.5,0c0,0.2,0,0.3,0,0.5
			c0,2.7,0,5.3,0,8c0,0.4-0.1,0.6-0.5,0.7c-1.5,0.4-2.9,0.4-4.4,0c-0.3-0.1-0.4-0.3-0.4-0.6c0-6.4,0-12.8,0-19.2
			c0-1.4,1.2-2.8,2.8-2.8c3.8,0,7.5,0,11.3,0c0.3,0,0.5,0.1,0.6,0.4c0.3,1.3,0.3,2.6,0,3.9c-0.1,0.4-0.3,0.5-0.7,0.5
			c-2.8,0-5.6,0-8.4,0C381.6,312.2,381.5,312.2,381.4,312.2z"/>
		<path id="XMLID_787_" class="st1" d="M343.5,334.4c-0.1,0.1-0.1,0.1-0.2,0.2c-0.1-0.1-0.1-0.2-0.1-0.3c0-0.5,0-0.9,0-1.4
			c0-0.4,0-0.8,0-1.2c0-0.3-0.1-0.6-0.1-0.9h0.1c0.1,0.1,0.2,0.2,0.3,0.4c-0.2-0.5-0.3-0.9-0.8-1.2c-0.4-0.3-0.8-0.6-1.1-1
			c-0.7-0.8-1.6-1.1-2.5-1.3c-0.7-0.2-1.4-0.4-2-0.6c-0.3-0.1-0.7-0.2-1-0.2c-0.6-0.1-0.6-0.1-0.6-0.7c0.9-0.2,1.8,0.1,2.6,0.1
			c0.9,0,1.7,0.1,2.7,0.2c-0.5-0.4-1-0.8-1.4-1.2c0.1-0.1,0.2-0.3,0.4-0.4c0,0,0.2-0.1,0.2,0c0.3,0.1,0.6,0.2,0.8,0.3
			c1,0.6,2.1,1.2,2.9,2.1c0.2,0.2,0.3,0.5,0.5,0.7c0.2,0.3,0.4,0.7,0.7,1.1c0-0.2,0-0.3,0-0.3c-0.3-0.8-0.1-1.6-0.1-2.4
			c0-0.3,0-0.6,0-0.9c0-0.6,0.4-0.8,0.9-0.7s1,0.2,1.5,0.3c0.1,1.4,0.3,2.8,0.4,4.3c0.1-0.2,0.3-0.4,0.3-0.6c0.4-1,1-1.7,1.9-2.3
			c0.4-0.3,0.8-0.6,1.2-0.9c0.2-0.1,0.3-0.2,0.5,0c0.1,0.1,0.3,0.2,0.5,0.2c0.3,0.1,0.4,0.2,0.1,0.5c-0.2,0.2-0.4,0.3-0.6,0.4
			c-0.1,0.1-0.2,0.2-0.3,0.3c1.5-0.6,3-0.9,4.5-1.1c-0.1,0.4-0.2,0.7-0.3,1c0,0.1-0.1,0.1-0.2,0.2c-0.2,0.1-0.4,0.2-0.7,0.2
			c-1.7,0.3-3.2,1-4.6,2.1c-0.8,0.7-1.2,1.6-1.2,2.5s0,1.7-0.3,2.6c-0.1,0.2,0,0.4,0,0.7c0.1-0.1,0.1-0.2,0.2-0.3h0.1
			c0,0.2,0.1,0.5,0.1,0.7s0.1,0.5,0.1,0.7c0,0.2,0.1,0.5,0.1,0.7c0,0.6,0,1.1,0.2,1.7c0.1,0.1,0.1,0.3,0,0.5
			c-0.1,0.3,0.1,0.4,0.3,0.5c1.3,0.9,2.8,1.5,4.3,1.9c0.2,0.1,0.5,0.2,0.7,0.3c0.1,0.1,0.2,0.2,0.2,0.3c-0.1,0.1-0.2,0.2-0.3,0.2
			c-1.1,0-2.2,0-3.2,0s-2-0.4-2.9-0.9c-0.5-0.3-1-0.2-1.6-0.1c0.2,0.2,0.4,0.4,0.6,0.6c0.4,0.4,0.8,0.7,1.1,1.1
			c0.1,0.1,0.2,0.4,0.2,0.6c-0.2,0-0.4,0-0.6,0c-0.5-0.2-1.1-0.4-1.5-0.6c-0.5-0.3-1-0.6-1.5-1c-0.6-0.5-1.2-0.6-2-0.3
			c-0.9,0.3-1.8,0.5-2.7,0.7c-1,0.2-2,0.3-2.9,0.2c-0.2,0-0.4,0-0.4-0.2c0-0.1,0.2-0.3,0.4-0.3c0.5-0.1,1.1-0.1,1.6-0.3
			c0.4-0.1,0.8-0.4,1.2-0.6c0.5-0.3,0.9-0.7,1.6-0.8c0.2,0,0.3-0.2,0.5-0.3s0.1-0.3,0.1-0.5c0-0.3,0.1-0.5,0.1-0.8
			c0.1-1,0.3-1.9,0.4-2.9c0.1-0.4,0.3-0.7,0.4-1C343.5,334.7,343.6,334.6,343.5,334.4C343.6,334.5,343.6,334.4,343.5,334.4z"/>
		<path id="XMLID_786_" class="st1" d="M415.5,337.2c0,1.5,0,2.9,0,4.3c0,0.3-0.1,0.4-0.4,0.4c-0.1,0-0.2,0-0.2,0
			c-0.7,0-0.8,0-0.8-0.8c0-1.9,0-3.8,0-5.7c0-0.3,0.1-0.5,0.4-0.4h0.1c0.8-0.1,1.5,0,1.9,0.9c0.5,1.1,1.1,2.1,1.7,3.1
			c0,0.1,0.1,0.2,0.2,0.2c0-0.4,0-0.9,0-1.3c0-0.9,0-1.7,0-2.6c0-0.3,0.1-0.4,0.3-0.4c0,0,0,0,0.1,0c0.9-0.1,1,0,1,0.9
			c0,1.8,0,3.6,0,5.5c0,0.3-0.1,0.5-0.4,0.5c-0.1,0-0.1,0-0.2,0c-1.1,0.1-1.1,0.1-1.7-0.9c-0.6-1.2-1.3-2.3-1.9-3.5
			C415.6,337.3,415.6,337.3,415.5,337.2z"/>
		<path id="XMLID_785_" class="st1" d="M380.9,337.3c0,0.9,0,1.8,0,2.7c0,0.5,0,1,0,1.5c0,0.2-0.1,0.3-0.3,0.3c-0.1,0-0.2,0-0.3,0
			c-0.8,0.1-0.9,0-0.9-0.8c0-1.9,0-3.7,0-5.6c0-0.3,0.1-0.4,0.4-0.5c1.4-0.1,1.4-0.1,2.1,1.1c0.6,1.1,1.2,2.2,1.9,3.3
			c0-0.5,0-0.9,0-1.4c0-0.9,0-1.7,0-2.6c0-0.3,0.1-0.3,0.3-0.4c0.1,0,0.2,0,0.3,0c0.7-0.1,0.8,0,0.8,0.7c0,1.9,0,3.8,0,5.7
			c0,0.3-0.1,0.4-0.3,0.4c-0.4,0-0.7,0-1.1,0c-0.3,0-0.4-0.1-0.6-0.4C382.5,339.9,381.7,338.6,380.9,337.3
			C381.1,337.3,381,337.3,380.9,337.3C381,337.3,381,337.3,380.9,337.3z"/>
		<path id="XMLID_782_" class="st1" d="M405.6,341.7c-0.6,0.2-1.1,0.2-1.7,0c-0.1,0-0.2-0.2-0.2-0.3c-0.3-0.5-0.7-1.1-1-1.6
			c-0.1-0.2-0.3-0.3-0.5-0.3s-0.4,0-0.7,0c0,0.6,0,1.3,0,1.9c0,0.3-0.1,0.5-0.4,0.5c0,0,0,0-0.1,0c-0.3,0-0.6,0-0.9-0.1
			c-0.3-0.1-0.1-0.5-0.1-0.8c0-1.8,0-3.7,0-5.5c0-0.1,0-0.2,0-0.4c1.2-0.2,2.4-0.3,3.6,0c1.1,0.3,1.6,1.2,1.4,2.4
			c-0.1,0.7-0.4,1.2-1,1.7C404.6,340,405.1,340.8,405.6,341.7z M401.5,337.2L401.5,337.2c0,0.2,0,0.5,0,0.7c0,0.1,0.1,0.2,0.2,0.2
			c0.4,0,0.8,0,1.2-0.1c0.4-0.1,0.6-0.4,0.6-0.9s-0.2-0.8-0.6-0.9c-0.3-0.1-0.7-0.1-1-0.1c-0.4,0-0.5,0-0.4,0.5
			C401.5,336.8,401.5,337,401.5,337.2z"/>
		<path id="XMLID_781_" class="st1" d="M393,337.5c0-0.7,0-1.4,0-2.1c0-0.3,0.1-0.3,0.3-0.4c0,0,0,0,0.1,0c1-0.1,1.1-0.1,1.1,1
			s0,2.2,0,3.3c0,1.2,0.9,1.8,2,1.3c0.6-0.3,0.7-0.8,0.7-1.4c0-1,0-2,0-3c0-0.3,0-0.6,0-0.9c0-0.2,0.1-0.3,0.3-0.4l0,0
			c1-0.1,1.1,0,1.1,1c0,1.2,0,2.5-0.1,3.7c-0.1,1.3-0.9,2.2-2.2,2.3c-0.5,0-0.9,0-1.4,0c-1.3-0.2-2-1-2-2.4
			C393,338.9,393,338.2,393,337.5z"/>
		<path id="XMLID_780_" class="st1" d="M429.7,339c0,0.5,0,1,0,1.5c0.1,0,0.3,0,0.4,0c0.8,0,1.6,0,2.4,0c0.2,0,0.3,0.1,0.4,0.3
			c0,0.1,0,0.2,0,0.2c0,0.7,0,0.7-0.7,0.7c-1.3,0-2.5,0-3.8,0c-0.1,0-0.1,0-0.2,0c0-0.1,0-0.3,0-0.4c0-2,0-4,0-6
			c0-0.3,0.1-0.4,0.4-0.4c1.3,0,2.5,0,3.8,0c0.3,0,0.4,0.1,0.4,0.4l0,0c0.1,0.8,0,0.9-0.7,0.9c-0.8,0-1.6,0-2.4,0c0,0.5,0,0.9,0,1.3
			c0,0.1,0.2,0.2,0.3,0.2c0.7,0,1.4,0,2.1,0c0.4,0,0.5,0,0.5,0.5c0,0.8,0,0.8-0.8,0.8C431.2,339,430.5,339,429.7,339z"/>
		<path id="XMLID_777_" class="st1" d="M406.5,341.7c0.3-0.7,0.5-1.5,0.7-2.2c0.5-1.4,1-2.7,1.4-4.1c0.1-0.3,0.2-0.4,0.5-0.4
			c0.4,0,0.8,0,1.2,0c0.1,0,0.2,0.1,0.3,0.2c0.7,2.1,1.5,4.3,2.2,6.4c0,0,0,0,0,0.1c-0.5,0.2-0.9,0.2-1.4,0c-0.1,0-0.2-0.2-0.2-0.3
			c-0.1-0.3-0.2-0.6-0.3-1c-0.1-0.2-0.1-0.3-0.3-0.3c-0.6,0-1.2,0-1.8,0c-0.2,0-0.3,0.1-0.4,0.3c-0.1,0.3-0.2,0.7-0.3,1
			c0,0.1-0.1,0.2-0.2,0.3C407.4,341.9,406.9,341.9,406.5,341.7z M410.3,339c-0.2-0.9-0.4-1.8-0.6-2.7h-0.1c-0.2,0.9-0.4,1.7-0.6,2.6
			C409.4,339,409.8,339,410.3,339z"/>
		<path id="XMLID_776_" class="st1" d="M330.4,327.8c-0.1,0-0.2,0-0.3-0.1c-0.2-0.3-0.4-0.2-0.6-0.1s-0.4,0.2-0.6,0.2
			c-0.4,0.1-0.7-0.2-0.6-0.6c0.1-0.2,0.1-0.5,0.2-0.7s0.1-0.4,0-0.6c-0.1-0.1-0.1-0.3-0.1-0.4c0.1-0.4,0.4-0.7,0.7-1
			c0.3-0.2,0.5-0.5,0.5-0.9c0-0.5,0.7-1,1.3-1.1c0.3,0,0.6,0,0.8-0.1c0.6-0.1,1.2-0.2,1.8-0.2c0.1,0,0.2,0,0.4,0
			c0,0.1,0,0.2-0.1,0.4c-0.1,0.5-0.3,1-0.5,1.5c-0.1,0.3,0,0.7,0,1c-0.1,0.6-0.4,1-0.9,1.4c-0.1,0.1-0.4,0.2-0.5,0.2
			c-0.3-0.1-0.4,0.1-0.5,0.2c-0.3,0.2-0.5,0.5-0.8,0.7C330.7,327.7,330.5,327.7,330.4,327.8z"/>
		<path id="XMLID_775_" class="st1" d="M391.4,336.5c-0.6-0.2-1-0.3-1.5-0.4c-0.3-0.1-0.6,0-0.9,0s-0.5,0.2-0.5,0.5
			c-0.1,0.3,0,0.6,0.3,0.7c0.4,0.2,0.8,0.3,1.3,0.5c0.7,0.3,1.4,0.7,1.5,1.5c0.2,1.3-0.2,2.4-1.8,2.6c-0.8,0.1-1.6,0.1-2.4-0.2
			c-0.3-0.1-0.4-0.2-0.5-0.5c-0.1-0.3-0.1-0.7-0.1-1c0.6,0.2,1.1,0.3,1.7,0.4c0.4,0.1,0.8,0,1.1,0c0.3,0,0.5-0.2,0.5-0.5
			c0.1-0.3,0-0.6-0.3-0.7c-0.2-0.1-0.5-0.2-0.7-0.3c-0.4-0.2-0.8-0.3-1.1-0.5c-0.8-0.4-1.1-1-1-2c0.1-0.8,0.5-1.4,1.3-1.6
			c0.9-0.3,1.7-0.2,2.5,0.2c0.1,0.1,0.2,0.2,0.3,0.3C391.2,335.8,391.3,336.1,391.4,336.5z"/>
		<path id="XMLID_774_" class="st1" d="M426.7,336.4c-0.6-0.1-1.1-0.2-1.6-0.2c-1.3,0-2.1,0.8-2.1,2.1c0,0.7,0,1.3,0.5,1.9
			c0.6,0.6,1.4,0.6,2.2,0.5c0.3,0,0.7-0.2,1-0.2c0.1,0.7-0.2,1.3-0.9,1.5c-0.7,0.2-1.4,0.2-2.1,0c-1-0.2-1.7-0.8-2-1.8
			c-0.4-1.1-0.4-2.2,0-3.2c0.4-1.2,1.5-2,2.9-2.1c0.4,0,0.8,0,1.2,0.1c0.6,0.1,0.8,0.3,0.8,0.9C426.6,336,426.6,336.2,426.7,336.4z"
			/>
		<path id="XMLID_773_" class="st1" d="M359.3,328.1c-0.4,0.3-0.6,0.3-1-0.1c-0.1-0.1-0.2-0.2-0.3-0.4c-0.2-0.3-0.4-0.6-0.8-0.7
			c-0.2,0-0.5-0.4-0.6-0.7c-0.2-0.4-0.3-0.8-0.2-1.3c0.2-0.7,0.1-1.3-0.1-1.9c0-0.1,0-0.2,0-0.3c0.1,0,0.2,0,0.4,0
			c0.6,0.2,1.3,0.4,1.9,0.5c0.5,0.1,0.9,0.3,1.2,0.7c0.1,0.2,0.2,0.4,0.2,0.6c0,0.3,0.1,0.6,0.3,0.8c0.2,0.3,0.4,0.6,0.6,1
			c0.1,0.1-0.1,0.3-0.1,0.5s-0.1,0.3-0.1,0.5s0.1,0.4,0.1,0.7c0,0.4-0.3,0.6-0.7,0.4C359.8,328.4,359.5,328.2,359.3,328.1z"/>
		<path id="XMLID_772_" class="st1" d="M365.4,322.4c-0.2-0.1-0.5-0.1-0.8-0.3c-0.6-0.4-1.2-0.5-1.9-0.6c-0.1,0-0.2-0.1-0.3-0.1
			c0-0.1,0.1-0.2,0.1-0.3c0.4-0.6,0.8-1.1,1.3-1.7c0.3-0.4,0.6-0.6,1-0.7c0.2,0,0.4-0.1,0.6,0c0.4,0.2,0.7,0.1,1,0
			c0.3-0.1,0.6-0.2,0.9-0.1c0.2,0,0.3,0.2,0.5,0.3c0.1,0.1,0.2,0.2,0.4,0.2c0.2,0.1,0.5,0.1,0.7,0.1c0.4,0.1,0.5,0.5,0.2,0.8
			c-0.1,0.1-0.2,0.2-0.3,0.3c-0.2,0.2-0.5,0.3-0.3,0.6c0,0.1-0.1,0.3-0.2,0.3c-0.3,0.2-0.6,0.3-0.9,0.4s-0.4,0.1-0.6,0.4
			C366.5,322.4,366,322.4,365.4,322.4z"/>
		<path id="XMLID_771_" class="st1" d="M354.7,323.7c0,0.1,0,0.2-0.1,0.2c-0.3,0.2-0.1,0.5,0,0.7c0.1,0.3,0.3,0.5,0.1,0.8
			c-0.3,0.3-0.6,0.1-0.9,0s-0.5-0.2-0.8,0c-0.1,0.1-0.3,0-0.4,0c-0.3-0.2-0.5-0.3-0.8-0.5c-0.3-0.3-0.5-0.5-0.9-0.5
			c-0.5,0-0.9-0.6-1-1.3c-0.1-0.7-0.2-1.5-0.3-2.2c0-0.3,0-0.3,0.3-0.2c0.4,0.1,0.8,0.3,1.2,0.4c0.1,0,0.3,0,0.5,0
			c0.7-0.1,1.3,0.1,1.8,0.7c0.1,0.1,0.2,0.3,0.2,0.5c0,0.3,0.1,0.4,0.3,0.6c0.2,0.2,0.4,0.4,0.6,0.6
			C354.6,323.4,354.6,323.6,354.7,323.7z"/>
		<path id="XMLID_770_" class="st1" d="M339.3,324.3c-0.4-0.2-0.7,0.1-1.1,0.3c-0.3,0.1-0.6,0.2-0.9,0.3c-0.1,0-0.3-0.1-0.3-0.1
			c-0.2-0.2-0.4-0.2-0.6-0.2s-0.5,0-0.7,0c-0.3-0.1-0.4-0.3-0.3-0.6c0.1-0.2,0.2-0.3,0.3-0.4c0.2-0.2,0.3-0.4,0.2-0.6
			c0-0.1,0-0.3,0.1-0.4c0.3-0.2,0.6-0.4,0.9-0.6c0.1-0.1,0.2-0.2,0.2-0.3c0.1-0.1,0.1-0.3,0.3-0.4c0.5-0.4,1.1-0.5,1.7-0.3
			c0.7,0.2,1.3,0.3,2,0.2c0.3,0,0.3,0.1,0.2,0.3c-0.3,0.7-0.6,1.4-0.9,2.1C340.4,323.9,340,324.2,339.3,324.3z"/>
		<path id="XMLID_769_" class="st1" d="M346.7,323.6c-0.3,0.3-0.5,0.3-0.8,0c-0.2-0.2-0.4-0.4-0.6-0.6c-0.1-0.1-0.2-0.1-0.4-0.2
			c-0.2-0.1-0.4-0.1-0.6-0.3c-0.4-0.4-0.6-1-0.6-1.5c0.1-0.6,0-1.2-0.2-1.8c0-0.1,0-0.3,0-0.4c0.1,0,0.3,0,0.4,0
			c0.7,0.1,1.4,0.3,2,0.4c0.7,0.2,1.1,0.6,1.2,1.3c0,0.2,0.2,0.3,0.3,0.5c0.2,0.2,0.4,0.4,0.5,0.7c0.2,0.3,0.2,0.5,0,0.8
			c-0.1,0.1,0,0.3,0,0.4c0,0.2,0.1,0.4,0.2,0.6c0,0.4-0.2,0.6-0.6,0.5C347.3,323.9,347,323.8,346.7,323.6z"/>
		<path id="XMLID_768_" class="st1" d="M346.5,302.4c-0.1-0.2-0.1-0.3-0.2-0.4c-0.2-0.5-0.4-1-0.5-1.6c-0.1-0.4-0.2-0.7-0.2-1.1
			c0-0.4,0.2-0.6,0.5-0.8c0.1-0.1,0.2-0.3,0.3-0.5c0.1-0.3,0.2-0.5,0.3-0.8c0.1-0.2,0.3-0.4,0.6-0.3c0.1,0,0.1,0,0.2-0.1
			c0.1,0,0.1-0.1,0.2-0.2c0.2-0.2,0.4-0.6,0.8-0.4c0.3,0.1,0.3,0.5,0.3,0.8c0,0.2,0,0.4,0.3,0.5c0.1,0,0.2,0.2,0.2,0.3
			c0,0.2,0,0.4-0.1,0.6c-0.1,0.4-0.3,0.7-0.1,1.2c0.2,0.5-0.4,1.2-1,1.5c-0.6,0.2-1.1,0.6-1.5,1
			C346.7,302.2,346.6,302.3,346.5,302.4z"/>
		<path id="XMLID_767_" class="st1" d="M347.6,317.2c0-0.4,0.1-0.9,0.8-1.1c0.2-0.1,0.3-0.3,0.4-0.5c0.2-0.2,0.3-0.5,0.5-0.7
			c0.1-0.1,0.3-0.2,0.3-0.1c0.3,0.1,0.5-0.1,0.8-0.2c0.1-0.1,0.2-0.2,0.4-0.2c0.3-0.1,0.5,0,0.5,0.4c0,0.2,0,0.3,0,0.5
			c0,0.2-0.1,0.4,0.2,0.5c0.1,0,0.1,0.2,0.1,0.3c0,0.2-0.1,0.4-0.1,0.5c-0.2,0.4-0.4,0.7-0.4,1.2c0,0.7-0.5,1.1-1.1,1.2
			c-0.6,0.1-1.2,0.4-1.7,0.8c-0.1,0.1-0.3,0.2-0.3-0.1C347.8,318.8,347.7,318.1,347.6,317.2z"/>
		<path id="XMLID_766_" class="st1" d="M333.9,318.4c0.1-0.5,0.1-1,0.7-1.2c0.2-0.1,0.3-0.3,0.4-0.5c0.1-0.2,0.2-0.5,0.4-0.6
			c0.1-0.1,0.4-0.2,0.6-0.3c0.2-0.1,0.3-0.1,0.5-0.1c0,0,0.1,0,0.1-0.1c0.2-0.2,0.5-0.4,0.8-0.2c0.3,0.2,0.2,0.5,0.1,0.8
			c0,0.2-0.1,0.4,0.2,0.5c0.1,0.1,0.1,0.3,0.1,0.4c0,0.2-0.1,0.3-0.2,0.5c-0.2,0.3-0.4,0.6-0.3,1.1s-0.5,1.1-1.1,1.2
			s-1.2,0.4-1.7,0.8c-0.1,0.1-0.3,0.2-0.4-0.1C334,319.9,333.9,319.2,333.9,318.4C333.9,318.5,333.9,318.5,333.9,318.4z"/>
		<path id="XMLID_765_" class="st1" d="M326.6,323.5c-0.4-0.3-0.8,0.1-1.2,0.2c-0.4,0.1-0.7,0.2-1-0.2c0-0.1-0.2-0.1-0.3-0.1
			c-0.2,0-0.4,0-0.6-0.1c-0.3-0.1-0.4-0.3-0.2-0.6c0.1-0.1,0.2-0.2,0.3-0.3c0.2-0.1,0.3-0.3,0.2-0.5c0-0.1,0.1-0.3,0.2-0.4
			c0.3-0.2,0.6-0.3,0.8-0.4c0.1,0,0.2-0.1,0.2-0.2c0.3-0.5,0.7-0.7,1.3-0.7c0.2,0,0.5,0.1,0.7,0.2c0.5,0.3,1,0.3,1.6,0.3
			c0.1,0,0.2,0.1,0.3,0.1c0,0.1,0,0.2-0.1,0.3c-0.3,0.5-0.6,1-0.8,1.5C327.6,323.1,327.2,323.5,326.6,323.5z"/>
		<path id="XMLID_764_" class="st1" d="M329.2,313.8c-0.5,0.1-1,0.1-1.5,0.2c-0.4,0-0.8,0-1.1-0.3c-0.1-0.1-0.2-0.2-0.2-0.3
			c-0.1-0.4-0.3-0.5-0.6-0.7c-0.2-0.1-0.4-0.3-0.5-0.5c-0.1-0.1-0.2-0.3-0.1-0.4c0.2-0.4-0.1-0.6-0.2-0.9c-0.1-0.2-0.1-0.4-0.1-0.6
			c0-0.1,0.3-0.1,0.5-0.1c0.3,0,0.6,0.2,0.8-0.2c0-0.1,0.2-0.1,0.3,0c0.2,0,0.3,0.1,0.5,0.2c0.3,0.2,0.6,0.3,1,0.3
			c0.6,0,1,0.5,1.1,1.1c0.1,0.7,0.3,1.3,0.8,1.8c0.1,0.1,0.1,0.3-0.1,0.3C329.5,313.9,329.4,313.9,329.2,313.8
			C329.2,313.9,329.2,313.9,329.2,313.8z"/>
		<path id="XMLID_763_" class="st1" d="M345.5,316.4c-0.1-0.2-0.1-0.3-0.1-0.5c-0.1-0.5-0.3-0.9-0.7-1.2c-0.4-0.4-0.5-1-0.4-1.5
			c0-0.1,0.1-0.3,0.2-0.4c0.3-0.2,0.3-0.4,0.3-0.7c0-0.2,0.1-0.5,0.2-0.7c0-0.1,0.2-0.2,0.2-0.2c0.3,0,0.4-0.1,0.5-0.3
			c0-0.1,0.1-0.2,0.2-0.3c0.3-0.3,0.6-0.3,0.8,0.1c0.1,0.2,0.1,0.3,0.2,0.5c0,0.1,0.1,0.3,0.2,0.3c0.4,0.1,0.4,0.4,0.4,0.7
			c0,0.2,0,0.3-0.1,0.5c0,0.3,0,0.5,0.1,0.8c0.2,0.5,0.1,0.9-0.2,1.3c-0.5,0.5-1,1-1.5,1.5C345.6,316.4,345.6,316.4,345.5,316.4z"/>
		<path id="XMLID_762_" class="st1" d="M338.5,319c0.2-0.2,0.3-0.4,0.5-0.5c0.2-0.3,0.4-0.7,0.5-1c0.2-0.5,0.5-0.9,0.9-1.1
			c0.1-0.1,0.3-0.1,0.5-0.1c0.4,0.1,0.6,0,0.9-0.2c0.2-0.1,0.4-0.1,0.6-0.2c0.1,0,0.3,0,0.3,0.1c0.1,0.3,0.3,0.3,0.6,0.2
			c0.1,0,0.1,0,0.2,0c0.2,0.1,0.4,0.1,0.5,0.2s0,0.4-0.1,0.5s-0.2,0.2-0.3,0.4c0,0.1-0.1,0.2-0.1,0.2c0.1,0.5-0.2,0.7-0.6,0.9
			c-0.1,0.1-0.3,0.1-0.4,0.2c-0.1,0.1-0.3,0.2-0.4,0.3c-0.3,0.5-0.7,0.7-1.2,0.6c-0.7-0.1-1.5-0.3-2.2-0.4
			C338.7,319.1,338.6,319,338.5,319z"/>
		<path id="XMLID_761_" class="st1" d="M328,304.7c0.2-0.4,0.4-0.9,0.6-1.3c-0.5,0-1,0.1-1.6,0.1v-0.1c0.1-0.1,0.3-0.1,0.4-0.2
			c0.7-0.3,1.4-0.6,2-1c0.5-0.3,0.6-0.7,0.3-1.2c-0.5-0.9-0.7-1.8-0.1-2.7c0.1-0.1,0.1-0.2,0.3-0.3c0.2,0.9,0.4,1.7,1.3,2.1
			c0-0.1,0-0.1,0-0.1c-0.5-0.4-0.5-0.4-0.1-0.9c0.2-0.3,0.5-0.5,0.9-0.5c-0.1,0.4-0.1,0.8-0.2,1.1c0,0,0.1,0,0.1,0.1
			c0.4-0.3,0.8-0.5,1.2-0.3c0.2,0.1,0.4,0.3,0.6,0.5c-0.6,0.1-0.8,0.5-1.1,0.9c-0.6,0.9-1.3,1.6-2.4,1.9c-0.9,0.2-1.5,0.9-2,1.7
			C328.2,304.6,328.1,304.6,328,304.7C328.1,304.7,328.1,304.7,328,304.7C328.1,304.7,328,304.7,328,304.7z"/>
		<path id="XMLID_760_" class="st1" d="M356.3,305.5c-0.1,0.3-0.1,0.5,0.2,0.6c0.1,0,0.1,0.2,0.1,0.4c0,0.2-0.1,0.4-0.2,0.6
			c-0.1,0.3-0.2,0.5-0.2,0.8c0.1,0.5-0.3,0.9-0.7,1.2c-0.1,0.1-0.3,0.2-0.4,0.2c-0.5,0.1-1,0.4-1.4,0.8c-0.1,0.1-0.2,0.1-0.3,0.1
			c0-0.1-0.1-0.2-0.1-0.3c-0.1-0.5-0.3-1-0.3-1.5c-0.1-0.4,0-0.8,0-1.2c0-0.2,0.3-0.3,0.4-0.5c0.2-0.2,0.3-0.4,0.5-0.6
			c0.2-0.2,0.3-0.5,0.5-0.7c0.1-0.1,0.2-0.1,0.3-0.1c0.3,0.1,0.4-0.1,0.6-0.2l0,0c0.2-0.1,0.5-0.3,0.7-0.2
			C356.1,304.9,356.2,305.3,356.3,305.5z"/>
		<path id="XMLID_759_" class="st1" d="M356.1,315.6c-0.5,0.1-1,0.1-1.5,0.2c-0.7,0.1-1-0.1-1.4-0.8c-0.1-0.1-0.3-0.2-0.4-0.4
			c-0.2-0.2-0.4-0.3-0.6-0.5c-0.1-0.1-0.2-0.3-0.1-0.4c0.2-0.3,0-0.5-0.2-0.7c-0.1-0.1-0.1-0.2-0.2-0.4c-0.1-0.3,0-0.4,0.3-0.5
			c0.1,0,0.3,0,0.4,0c0.2,0,0.4,0.1,0.6-0.1c0.1-0.1,0.3-0.1,0.5,0c0.2,0,0.3,0.1,0.4,0.2c0.2,0.2,0.4,0.3,0.8,0.3
			c0.5-0.1,1.1,0.6,1.2,1.2s0.3,1.1,0.6,1.5c0.1,0.1,0.1,0.2,0.1,0.3c-0.1,0-0.2,0.1-0.3,0.1C356.3,315.7,356.2,315.7,356.1,315.6
			L356.1,315.6z"/>
		<path id="XMLID_758_" class="st1" d="M332.3,309.2c-0.5,0-0.8-0.1-1.1-0.5c-0.1-0.2-0.4-0.2-0.6-0.3s-0.4-0.2-0.6-0.3
			c-0.1-0.1-0.2-0.2-0.2-0.3c0.1-0.4-0.2-0.5-0.4-0.7c-0.1-0.1-0.2-0.2-0.2-0.3c-0.2-0.3-0.1-0.5,0.3-0.6c0.2,0,0.3-0.1,0.5-0.1
			s0.3,0,0.4-0.2c0-0.1,0.2-0.2,0.3-0.2c0.2,0,0.3,0,0.5,0c0.4,0.1,0.7,0.3,1.1,0.1c0.4-0.2,1.1,0.3,1.4,0.8c0.2,0.6,0.6,1,1.1,1.4
			c0.2,0.1,0.2,0.3,0,0.3c-0.6,0.2-1.2,0.4-1.8,0.6C332.5,309.2,332.3,309.2,332.3,309.2z"/>
		<path id="XMLID_757_" class="st1" d="M344,306.6c0-0.4,0.1-0.8,0.7-1.1c0.2-0.1,0.3-0.3,0.4-0.5c0.1-0.2,0.2-0.4,0.4-0.6
			c0.1-0.1,0.3-0.2,0.4-0.2c0.3,0.1,0.5-0.1,0.7-0.3c0.1-0.1,0.2-0.2,0.3-0.2c0.3-0.1,0.5,0,0.5,0.4c0,0.2,0,0.3,0,0.5
			c0,0.1,0.1,0.2,0.1,0.3c0.1,0.1,0.2,0.3,0.2,0.4c0,0.2-0.1,0.3-0.2,0.5c-0.1,0.3-0.3,0.5-0.2,0.9c0.1,0.5-0.3,1-0.8,1.2
			c-0.7,0.2-1.3,0.5-1.8,1c0,0-0.3,0-0.3-0.1C344.3,308.1,344.1,307.4,344,306.6z"/>
		<path id="XMLID_756_" class="st1" d="M332.8,310.8c0.5,0,0.9,0.1,1.1,0.7c0.1,0.2,0.3,0.3,0.5,0.4s0.4,0.2,0.6,0.4
			c0.1,0.1,0.2,0.3,0.2,0.4c-0.1,0.3,0,0.4,0.2,0.6c0,0,0.1,0,0.1,0.1c0.1,0.2,0.1,0.5,0.2,0.7c-0.2,0.1-0.4,0.2-0.7,0.2
			c-0.2,0-0.5-0.1-0.6,0.2c0,0.1-0.3,0.1-0.4,0.1c-0.2,0-0.4-0.1-0.5-0.2c-0.2-0.1-0.4-0.2-0.7-0.1c-0.4,0.1-1.1-0.4-1.3-1
			c-0.2-0.6-0.5-1.2-0.9-1.7c-0.1-0.1-0.1-0.3,0.1-0.3C331.3,311.1,332.1,311,332.8,310.8z"/>
		<path id="XMLID_755_" class="st1" d="M344.5,301c-0.1,0.3-0.2,0.6-0.4,0.9c-0.2,0.5-0.4,0.9-0.7,1.3c0,0.1-0.1,0.2-0.2,0.3
			c-0.1-0.1-0.2-0.1-0.2-0.2c-0.3-0.5-0.7-0.8-1.2-1.1c-0.4-0.2-0.6-0.7-0.7-1.1c0-0.1,0-0.2,0-0.2c0.4-0.5,0-1,0.1-1.5
			c0-0.2,0.1-0.4,0.3-0.5c0.1,0,0.1-0.1,0.2-0.2c0.1-0.2,0.1-0.4,0.1-0.5c0.1-0.3,0.3-0.4,0.6-0.2c0.1,0.1,0.2,0.2,0.3,0.3
			c0.2,0.2,0.3,0.5,0.6,0.4c0.1,0,0.3,0.2,0.4,0.3c0.1,0.2,0.2,0.4,0.2,0.7c0,0.3,0.1,0.5,0.3,0.7
			C344.3,300.4,344.4,300.7,344.5,301z"/>
		<path id="XMLID_754_" class="st1" d="M352.9,301.7c0-0.5,0.1-1,0.6-1.2c0.1,0,0.1-0.2,0.1-0.3c0.1-0.2,0.2-0.5,0.3-0.7
			c0.1-0.2,0.3-0.3,0.5-0.3c0.1,0,0.2-0.1,0.3-0.1c0.1,0,0.1-0.1,0.2-0.2c0.2-0.1,0.4-0.2,0.6-0.3c0.1,0.2,0.3,0.4,0.3,0.6
			c0,0.3,0.1,0.5,0.3,0.7c0.3,0.2,0.2,0.6,0.1,0.9c-0.1,0.4-0.2,0.7-0.1,1.1c0.1,0.5-0.2,0.9-0.6,1.2c-0.5,0.4-1,0.7-1.5,1
			c-0.2,0.2-0.3,0.1-0.4-0.1c-0.1-0.6-0.2-1.1-0.5-1.6C353,302.1,353,301.8,352.9,301.7z"/>
		<path id="XMLID_753_" class="st1" d="M332.9,317.7c0,0.5-0.1,0.9-0.5,1.1c-0.1,0.1-0.1,0.3-0.2,0.4c-0.1,0.2-0.1,0.5-0.2,0.7
			s-0.2,0.3-0.4,0.3c-0.1,0-0.2,0.1-0.3,0.2c-0.1,0.1-0.2,0.3-0.3,0.4c-0.2,0.2-0.5,0.2-0.6-0.1c-0.1-0.1-0.1-0.3-0.1-0.4
			c0-0.2-0.1-0.4-0.4-0.6c-0.1,0-0.2-0.3-0.2-0.4c0-0.2,0-0.4,0.1-0.6c0.1-0.3,0.1-0.6,0-0.9c-0.2-0.5,0.1-0.9,0.4-1.2
			c0.5-0.4,1-0.8,1.5-1.3c0.2-0.1,0.3-0.1,0.3,0.1c0.1,0.6,0.3,1.2,0.7,1.7C332.9,317.2,332.9,317.6,332.9,317.7z"/>
		<path id="XMLID_752_" class="st1" d="M352.8,317.8c0.2,0,0.3,0,0.5-0.2c0.1-0.1,0.4-0.1,0.6-0.1s0.3,0.2,0.5,0.2
			c0.2,0.1,0.5,0.1,0.7,0.1c0.5,0,0.9,0.2,1.1,0.6c0.4,0.6,0.7,1.3,1,1.9c0.1,0.2,0,0.3-0.2,0.3c-0.6-0.1-1.2,0.1-1.8,0.3
			c-0.4,0.2-0.9,0.1-1.3-0.2c-0.1,0-0.2-0.1-0.2-0.2c-0.1-0.4-0.4-0.5-0.7-0.6c-0.2-0.1-0.3-0.2-0.5-0.4c-0.1-0.1-0.1-0.2-0.1-0.2
			c0.2-0.3-0.1-0.5-0.2-0.7c-0.1-0.2-0.2-0.4-0.2-0.6c0.2-0.1,0.4-0.1,0.6-0.2C352.7,317.8,352.7,317.8,352.8,317.8z"/>
		<path id="XMLID_751_" class="st1" d="M339.8,315c0-0.1,0-0.3,0-0.4c0.1-0.5,0.1-1,0-1.5s0-1,0.3-1.4c0.1-0.1,0.2-0.3,0.4-0.3
			c0.3,0,0.4-0.2,0.5-0.4c0.1-0.2,0.3-0.3,0.5-0.5c0.1-0.1,0.2-0.1,0.3-0.1c0.4,0.3,0.6-0.1,0.8-0.2c0.2-0.1,0.4-0.1,0.5,0
			s0.1,0.3,0.2,0.5c0,0.1-0.1,0.3-0.1,0.4c0,0.1,0,0.2,0,0.3c0.3,0.4,0.2,0.7-0.1,1c-0.2,0.3-0.5,0.7-0.5,1.1c0,0.4-0.4,0.7-0.8,0.8
			c-0.7,0.2-1.3,0.4-2,0.6C339.9,315.1,339.9,315,339.8,315z"/>
		<path id="XMLID_750_" class="st1" d="M334.3,303.4c0.1,0,0.2,0,0.3,0.1c0.3,0.1,0.5,0.2,0.8,0c0.3-0.1,0.6,0.1,0.8,0.4
			c0.2,0.3,0.5,0.5,0.9,0.5c0.4,0.1,0.6,0.5,0.7,0.9c0.1,0.7,0.2,1.3,0.3,2c0,0.2-0.1,0.3-0.3,0.2c-0.6-0.3-1.1-0.3-1.8-0.3
			c-0.7,0-1.2-0.4-1.4-1.1c0-0.1-0.1-0.1-0.2-0.2c-0.2-0.2-0.4-0.4-0.5-0.6c-0.1-0.2-0.2-0.4,0-0.6c0-0.1,0-0.2,0-0.3
			c0-0.2-0.1-0.3-0.2-0.5C333.8,303.6,333.9,303.4,334.3,303.4z"/>
		<path id="XMLID_749_" class="st1" d="M361.6,301.8c0,0.1-0.1,0.3-0.1,0.4c-0.1,0.2-0.1,0.4,0,0.6c0.2,0.3,0,0.5-0.2,0.8
			c-0.1,0.1-0.2,0.2-0.3,0.4c-0.1,0.1-0.2,0.3-0.2,0.4c-0.1,0.7-0.4,1-1,1.1s-1.2,0.2-1.8,0.4c-0.3,0.1-0.3,0-0.2-0.3
			c0.2-0.5,0.3-1.1,0.2-1.7c-0.1-0.7,0.4-1.3,1-1.5c0.1,0,0.2-0.1,0.3-0.2c0.2-0.2,0.4-0.4,0.6-0.6c0.1-0.1,0.3,0,0.5,0
			c0.1,0,0.2,0,0.3,0c0.2-0.1,0.3-0.2,0.5-0.2C361.4,301.3,361.6,301.5,361.6,301.8z"/>
		<path id="XMLID_748_" class="st1" d="M328.6,318.1c-0.1,0-0.1,0.1-0.2,0c-0.6,0-1.3,0-1.9,0.2c-0.3,0.1-0.7,0-1-0.1
			c-0.2,0-0.4-0.2-0.5-0.3c-0.1-0.4-0.4-0.5-0.7-0.6c-0.2-0.1-0.3-0.2-0.4-0.3c-0.1-0.1-0.2-0.2-0.1-0.3c0.2-0.3-0.1-0.5-0.2-0.7
			c-0.1-0.2-0.2-0.4-0.2-0.6c0.1-0.1,0.4-0.2,0.5-0.2c0.3,0,0.6,0,0.8-0.2c0.2-0.1,0.6,0,0.8,0.1c0.4,0.1,0.7,0.3,1.1,0.3
			c0.2,0,0.5,0.2,0.7,0.3c0.2,0.2,0.3,0.4,0.4,0.7c0.2,0.4,0.4,0.9,0.6,1.3C328.5,317.8,328.6,317.9,328.6,318.1z"/>
		<path id="XMLID_747_" class="st1" d="M362.4,316.4C362.4,316.3,362.4,316.3,362.4,316.4c0.6-0.5,1-1.1,1.4-1.7
			c0.4-0.6,0.8-0.7,1.5-0.4c0.1,0,0.2,0,0.3,0c0.3-0.1,0.5-0.1,0.8-0.2c0.2,0,0.5,0,0.5,0.3c0,0.1,0.1,0.1,0.2,0.1
			c0.2,0,0.3,0,0.5,0.1c0.4,0.1,0.5,0.4,0.2,0.7c-0.1,0.1-0.2,0.2-0.4,0.3c-0.1,0.1-0.2,0.2-0.2,0.3c0,0.4-0.3,0.6-0.6,0.7
			c-0.2,0.1-0.4,0.1-0.6,0.2c-0.1,0-0.3,0.1-0.3,0.2c-0.4,0.5-0.8,0.6-1.4,0.4s-1.2-0.5-1.8-0.7
			C362.5,316.5,362.4,316.4,362.4,316.4z"/>
		<path id="XMLID_746_" class="st1" d="M356.8,312.3c-0.1-0.4-0.2-0.7-0.4-1.1c-0.2-0.5-0.2-1,0-1.5c0.1-0.1,0.2-0.2,0.3-0.3
			c0.2-0.1,0.3-0.2,0.4-0.5c0.1-0.2,0.2-0.5,0.4-0.6c0.1-0.1,0.3-0.2,0.3-0.2c0.2,0.1,0.4,0,0.5-0.2l0,0c0.2-0.1,0.4-0.3,0.6-0.3
			c0.3,0,0.3,0.4,0.3,0.6c0,0.3,0,0.5,0.2,0.7c0.1,0.1,0.1,0.4,0.1,0.6c0,0.2-0.2,0.4-0.2,0.6c-0.1,0.2-0.1,0.4-0.1,0.5
			c0.1,0.6-0.1,1-0.6,1.3s-1.1,0.6-1.6,0.9c-0.2,0.1-0.3,0.1-0.3-0.2C356.7,312.6,356.7,312.4,356.8,312.3L356.8,312.3z"/>
		<path id="XMLID_745_" class="st1" d="M366.1,327.1c-0.1,0-0.2,0-0.3-0.1c-0.2-0.1-0.4-0.1-0.7,0c-0.3,0.2-0.6,0-0.8-0.2
			c-0.2-0.1-0.3-0.3-0.4-0.4s-0.2-0.1-0.3-0.1c-0.5,0-0.8-0.3-1-0.6c-0.1-0.2-0.1-0.5-0.2-0.7c-0.1-0.5-0.2-0.9-0.3-1.4
			c0-0.1,0-0.2,0-0.2h0.2c0.5,0.2,1,0.2,1.6,0.1c0.5-0.1,0.9,0.1,1.3,0.4c0.1,0.1,0.2,0.2,0.2,0.3c0,0.4,0.3,0.5,0.5,0.7
			c0.2,0.1,0.3,0.3,0.4,0.4c0.1,0.1,0.1,0.2,0.1,0.3c-0.3,0.3,0,0.6,0.1,0.8C366.6,326.9,366.5,327.1,366.1,327.1z"/>
		<path id="XMLID_744_" class="st1" d="M351,309c0,0.3,0.1,0.5,0.3,0.8c0.3,0.4,0.2,0.9-0.1,1.3c-0.3,0.5-0.7,1-1,1.6
			c-0.1,0.2-0.3,0.2-0.3,0c-0.2-0.5-0.6-1-1-1.3s-0.6-0.8-0.5-1.3c0-0.1,0-0.3,0.1-0.3c0.3-0.2,0.2-0.5,0.2-0.8c0-0.2,0-0.4,0-0.6
			c0-0.1,0.1-0.3,0.2-0.3c0.3,0,0.4-0.3,0.5-0.5c0.1-0.2,0.3-0.4,0.4-0.4c0.2,0,0.4,0.2,0.5,0.3c0.2,0.2,0.3,0.5,0.6,0.6
			C351,308.2,351,308.6,351,309z"/>
		<path id="XMLID_743_" class="st1" d="M357.7,316.5c0-0.2,0-0.2,0-0.3c0.1-0.5,0.3-1.1,0.4-1.6c0.2-0.7,0.5-0.9,1.2-1
			c0.2,0,0.4-0.2,0.6-0.3s0.4-0.3,0.7-0.4c0.1,0,0.2,0,0.3,0c0.3,0.3,0.6,0.1,0.9,0.1c0.2,0,0.5,0,0.5,0.1c0.1,0.1,0,0.4-0.1,0.6
			s-0.3,0.4-0.1,0.7c0,0.1,0,0.2-0.1,0.3c-0.2,0.2-0.3,0.3-0.5,0.5c-0.2,0.1-0.4,0.2-0.4,0.5c0,0.1-0.1,0.2-0.2,0.3
			c-0.4,0.3-0.8,0.5-1.3,0.4s-1.1-0.1-1.6,0.1C357.9,316.5,357.8,316.5,357.7,316.5z"/>
		<path id="XMLID_742_" class="st1" d="M339.7,307.2c0-0.4,0.1-0.7,0.4-0.9c0.1-0.1,0.2-0.3,0.3-0.5c0.1-0.4,0.2-0.9,0.8-0.9
			c0.1,0,0.2-0.1,0.2-0.2c0.1-0.1,0.2-0.3,0.4-0.4c0.3-0.2,0.5-0.1,0.6,0.2c0,0.2,0,0.3,0.1,0.5c0,0.1,0.1,0.2,0.1,0.2
			c0.2,0.1,0.3,0.3,0.3,0.5c0,0.2-0.1,0.3-0.1,0.5c-0.1,0.2-0.1,0.4,0,0.7c0.2,0.4-0.2,1.1-0.7,1.4s-1,0.6-1.3,1
			c-0.1,0.1-0.2,0.2-0.3,0c-0.2-0.6-0.5-1.2-0.7-1.8C339.7,307.4,339.7,307.2,339.7,307.2z"/>
		<path id="XMLID_741_" class="st1" d="M352.3,304.2c-0.1,0.2-0.1,0.5-0.2,0.7c-0.2,0.4-0.3,0.9-0.3,1.4c0,0.1,0,0.2-0.1,0.2
			s-0.2,0-0.3-0.1c-0.5-0.3-0.9-0.6-1.4-0.8c-0.6-0.4-0.8-0.7-0.7-1.4c0-0.2-0.1-0.3-0.1-0.5c-0.1-0.3-0.1-0.5-0.2-0.8
			c0-0.1,0-0.3,0.1-0.3c0.3-0.2,0.3-0.4,0.3-0.6c0-0.1,0-0.2,0.1-0.3c0.1-0.3,0.3-0.4,0.6-0.2c0.1,0.1,0.2,0.2,0.3,0.3
			c0.1,0.1,0.2,0.2,0.4,0.2c0.1,0,0.3,0.1,0.3,0.2c0.1,0.2,0.2,0.3,0.3,0.5c0.1,0.2,0.2,0.4,0.4,0.6
			C352.3,303.4,352.3,303.8,352.3,304.2z"/>
		<path id="XMLID_740_" class="st1" d="M365.3,312.7c-0.3-0.1-0.7-0.2-0.9-0.4c-0.4-0.3-0.8-0.4-1.3-0.5c-0.1,0-0.2-0.1-0.3-0.1
			c0.1-0.1,0.1-0.2,0.2-0.3c0.3-0.4,0.7-0.8,1-1.2c0.4-0.5,0.8-0.7,1.5-0.4c0.1,0,0.3,0,0.5,0c0.3,0,0.6-0.1,0.8-0.1
			c0.1,0,0.3,0.2,0.4,0.3s0.2,0.1,0.3,0.2c0.1,0,0.2,0,0.3,0.1c0.2,0.1,0.4,0.2,0.4,0.3s-0.2,0.3-0.3,0.5c-0.2,0.2-0.4,0.2-0.4,0.6
			c0,0.1-0.1,0.2-0.2,0.2c-0.2,0.1-0.4,0.2-0.6,0.2c-0.2,0.1-0.4,0.1-0.6,0.3C365.9,312.6,365.6,312.6,365.3,312.7z"/>
		<path id="XMLID_739_" class="st1" d="M360.5,318.2c0.4-0.1,0.8-0.2,1.3-0.3c0.1,0,0.2,0,0.3-0.1c0,0.1,0,0.2,0,0.3
			c-0.1,0.5-0.1,1-0.2,1.5c-0.1,0.7-0.3,1-1,1.2c-0.2,0-0.3,0.2-0.5,0.4c-0.2,0.2-0.4,0.3-0.7,0.5c-0.1,0-0.2,0.1-0.3,0
			c-0.3-0.2-0.5-0.1-0.7,0c-0.1,0.1-0.3,0.1-0.4,0.1c-0.2,0-0.3-0.2-0.3-0.4c0-0.1,0.1-0.2,0.1-0.4c0.1-0.2,0.2-0.3,0-0.5
			c-0.1-0.1,0-0.3,0-0.4c0.1-0.2,0.3-0.4,0.4-0.5c0.2-0.1,0.3-0.3,0.3-0.5c0-0.4,0.6-0.9,1.1-0.9
			C360.2,318.1,360.3,318.1,360.5,318.2C360.5,318.1,360.5,318.1,360.5,318.2z"/>
		<path id="XMLID_738_" class="st1" d="M339.5,304.5c-0.1-0.1-0.3-0.2-0.4-0.2c-0.4-0.3-0.8-0.5-1.2-0.8c-0.7-0.4-0.8-0.7-0.6-1.5
			c0-0.1-0.1-0.3-0.1-0.5c-0.1-0.2-0.1-0.4-0.2-0.6c0-0.1,0-0.4,0.1-0.4c0.3-0.2,0.3-0.4,0.3-0.7c0-0.2,0.2-0.4,0.3-0.5
			c0.1,0,0.4,0.1,0.5,0.2c0.2,0.2,0.3,0.3,0.6,0.3c0.2,0,0.4,0.3,0.4,0.5c0.2,0.3,0.3,0.6,0.6,0.9c0.4,0.3,0.4,0.8,0.2,1.3
			c-0.3,0.6-0.5,1.1-0.5,1.8C339.6,304.4,339.5,304.4,339.5,304.5z"/>
		<path id="XMLID_737_" class="st1" d="M363.7,306c-0.1,0.4-0.1,0.6,0.1,0.9c0.1,0.1,0,0.5-0.1,0.7c-0.2,0.4-0.4,0.7-0.4,1.1
			s-0.4,0.7-0.8,0.9c-0.5,0.2-1.1,0.4-1.6,0.6c-0.2,0.1-0.3,0-0.3-0.2c0.1-0.5,0.1-1-0.1-1.5c-0.2-0.7,0.1-1.2,0.7-1.6
			c0.1,0,0.1-0.1,0.2-0.2c0.2-0.2,0.3-0.4,0.5-0.6c0.1-0.1,0.3-0.1,0.3-0.1c0.2,0.1,0.4,0,0.5-0.1c0.1,0,0.1-0.1,0.2-0.1
			c0.2,0,0.4-0.1,0.5-0.1C363.6,305.7,363.7,305.9,363.7,306z"/>
		<path id="XMLID_736_" class="st1" d="M376.1,338.4c0-1,0-2,0-3c0-0.3,0.1-0.4,0.3-0.4l0,0c1-0.1,1.1,0,1.1,0.9c0,1.8,0,3.7,0,5.5
			c0,0.3-0.1,0.4-0.4,0.4c-0.1,0-0.1,0-0.2,0c-0.9,0.1-0.9,0-0.9-0.9C376.1,340.1,376.1,339.3,376.1,338.4L376.1,338.4z"/>
		<path id="XMLID_735_" class="st1" d="M337.7,313.7c-0.1-0.1-0.1-0.2-0.2-0.3c-0.3-0.3-0.6-0.6-0.9-0.8c-0.4-0.3-0.6-0.6-0.7-1.1
			c0-0.1,0-0.2,0-0.2c0.3-0.4,0.1-0.8,0-1.2c0-0.2,0-0.5,0.3-0.5c0.1,0,0.1-0.1,0.1-0.2s0-0.2,0.1-0.3c0.1-0.2,0.2-0.4,0.3-0.4
			c0.2,0,0.4,0.1,0.5,0.3c0.2,0.2,0.3,0.3,0.5,0.4s0.4,0.4,0.4,0.6c0.1,0.3,0.1,0.6,0.4,0.9c0.3,0.3,0.2,0.7,0.1,1.1
			c-0.2,0.5-0.5,1-0.8,1.6C337.8,313.6,337.8,313.6,337.7,313.7z"/>
	</g>
</g>
</svg>
