<?xml version="1.0" encoding="utf-8"?>
<!-- Generator: Adobe Illustrator 20.1.0, SVG Export Plug-In . SVG Version: 6.00 Build 0)  -->
<svg version="1.1" id="Layer_1" xmlns="http://www.w3.org/2000/svg" xmlns:xlink="http://www.w3.org/1999/xlink" x="0px" y="0px"
	 viewBox="0 0 112.5 33.2" style="enable-background:new 0 0 112.5 33.2;" xml:space="preserve">
<style type="text/css">
	.st0{fill:#FFFFFF;}
	.st1{fill:#272626;}
	.st2{fill:#79BD47;}
</style>
<g>
	<path class="st0" d="M31.2,29.1c-3.8,0-7-3.1-7-7c0-3.8,3.1-7,7-7c3.8,0,7,3.1,7,7C38.1,26,35,29.1,31.2,29.1 M31.2,11.4
		c-5.9,0-10.7,4.8-10.7,10.7s4.8,10.7,10.7,10.7c5.9,0,10.7-4.8,10.7-10.7S37.1,11.4,31.2,11.4"/>
	<path class="st0" d="M56.5,31.9c0,0-2.1,0.6-2.7,0.8c-0.8,0.2-1.8,0.4-3.5,0c-0.5-0.1-1.4-0.7-1.5-0.8c-1.1-0.8-1.8-1.9-2.3-3.2
		c-0.2-0.7-0.2-0.9-0.2-1.8c0-4.3,0-8.6,0-12.9c0-2.7,0-5.5,0-8.2c0-1.7-0.2-3.1,0.5-4.2c0.7-1.1,1.8-1.2,3.4-1.5c0,3.6,0,7.3,0,11
		h5.3c0,0.3-0.1,2.9-2.4,3.2c-0.3,0.1-0.7,0-1.1,0h-1.8v7.9c0,0,0,3.2,0,3.8c0,1,0,2,0.3,2.6c0.2,0.3,0.4,0.5,0.7,0.7
		c0.2,0.1,0.6,0.3,1.2,0.3c0.6,0,1.1-0.1,1.1-0.1s0.8-0.1,1.7,0.4c0.9,0.5,1.2,1.4,1.2,1.4L56.5,31.9z"/>
	<path class="st0" d="M68,11.3c1.9-0.1,2.8,0.1,3.9,0.4c0.7,0.2,1.3,0.3,2,0.5v0c-0.1,0.3-0.2,0.6-0.3,0.8c-0.3,0.8-1,1.3-1.9,1.6
		c-0.6,0.2-1.6,0-2.1,0s-1.2,0-1.5,0.1c-1.1,0.2-1.9,0.6-2.2,1.5c0,0.1-0.2,0.6-0.2,0.8c-0.1,0.7,0.2,1.3,0.5,1.6
		c0.8,1.1,2.4,1.5,3.8,2.1c1.9,0.8,3.5,1.8,4.4,3.7c0.2,0.5,0.4,1.1,0.5,1.8c0.3,1.5-0.4,3-0.9,3.8c-0.9,1.3-2.1,2.1-3.8,2.6
		c-1.9,0.3-2.8,0.4-5.6,0.1c-1.1-0.2-2.2-0.5-3.3-0.7c0.1-0.3,0.1-0.6,0.2-0.9c0.4-0.9,1.1-1.5,2-1.7c0.5-0.1,2.3,0.1,2.5,0.1
		c0.3,0.1,2.2,0,2.6-0.1c1.2-0.3,1.9-0.8,2.2-2.1c0.2-1.1-0.4-2-1-2.4c-0.9-0.7-2.1-1.3-3.2-1.8c-1-0.4-2-0.8-2.8-1.4
		c-1-0.7-1.6-1.8-1.9-3.1c-0.5-2.1,0.3-4.5,1.4-5.4C64.4,12.2,66.1,11.4,68,11.3"/>
	<path class="st0" d="M101.4,32.4V22.3c0-1.8-0.2-4,0.2-5.5c0.7-2.3,2-3.8,4-4.7c0.7-0.3,1.2-0.5,2.2-0.7c1-0.2,2.4-0.1,3.2,0
		c0.7,0.1,0.9,0.2,1.3,0.3c-0.1,1.3-0.9,2.2-2,2.7c-0.6,0.2-1.4,0.2-2,0.4c-1,0.3-1.7,0.7-2.2,1.5c-0.4,0.6-0.5,1.3-0.7,2.1
		c0,0.3-0.1,0.6-0.1,0.9c0,0.5,0,0.9,0,1.4c0,2,0,4,0,6c0,1.9,0.1,3.5-0.7,4.7C103.7,32.4,101.8,32.4,101.4,32.4"/>
	<path class="st0" d="M12.2,27.5c-0.6,1-1.3,1.6-2.6,1.9c-1.6,0.5-3.1-0.2-3.5-0.5c-1.1-0.7-1.5-1.7-1.8-3.2
		c-0.1-0.4-0.1-0.9-0.1-1.3c0-0.5,0-1.1,0-1.6v-0.6v-1.5c0-0.3,0-0.6,0-0.9c0.1-0.6,0.1-1.2,0.2-1.8c0.4-1.5,1.2-2.6,2.5-3.1
		c0.3-0.1,0.7-0.2,1-0.2c0.2,0,0.3,0,0.5,0c1.2,0,2.1,0.3,2.8,0.7C13,16.6,13,19,13,22.1C13,24.1,13,26.3,12.2,27.5 M16.9,19.6
		c0-2.3,0-4.6,0-6.9c0-1.6,0-3.2,0-4.8V5.4c0-0.6,0-1.1,0-1.7c0-0.3,0-0.8-0.1-1.4c-0.1-0.4-0.2-0.7-0.4-1C15.6,0,13.3,0,12.8,0
		c0,4.1,0,8.1,0,12.2c-0.3-0.1-0.6-0.3-0.9-0.4c-0.6-0.2-1.3-0.4-2.1-0.5c-1.1-0.2-2.6,0-3.5,0.2c-2.8,0.7-4.7,2.2-5.6,4.9
		C0.1,18.2,0,20.5,0,22.9c0,1.3,0,2.6,0.2,3.7c0.8,3.1,2.5,5,5.3,6C6.6,33,8.3,33.2,9.7,33c0.6-0.1,1.1-0.2,1.7-0.4
		c2.5-0.8,4.2-2.4,5.1-4.8c0.1-0.1,0.1-0.3,0.1-0.4c0-0.2,0.2-0.6,0.2-1.1C16.9,25.9,17,22.7,16.9,19.6"/>
	<path class="st0" d="M85.9,14.9c2-0.6,3.5,0.2,3.9,0.4c1.4,0.8,1.9,2.3,1.9,4.4h-8.4C83.2,18.1,84,15.4,85.9,14.9 M95.6,19.2
		c-0.1-1.3-0.2-2.3-0.8-3.8c-0.8-1.8-2.5-3-4.5-3.7c-0.9-0.3-3.3-0.6-5.2,0c-1,0.3-1.9,0.7-2.7,1.3c-1.3,1-2.1,2.2-2.6,4
		c-0.5,2.1-0.6,7.8,0,10.2c0.9,3,2.9,4.8,6,5.6c4.1,0.7,6.3-0.2,6.8-0.2c0.7-0.2,1.3-0.3,1.9-0.6c0-0.7-0.3-1.1-0.7-1.5
		c-0.5-0.5-1.1-0.9-1.9-1c-0.6-0.1-1.2,0.1-1.7,0.2c-0.9,0.2-2.2,0.2-3.1,0c-2.8-0.7-3.7-3-3.6-6.5c2.2,0,4.5,0,6.7,0
		c0.9,0,1.7,0,2.6,0c0.3,0,0.6-0.1,0.8-0.1c1-0.3,1.6-1,1.9-2C95.7,20.5,95.7,19.7,95.6,19.2"/>
	<path class="st1" d="M31,19c1.6,0,2.6,0.8,3.1,1.9c0.3,0.7,0.4,1.7,0,2.5c-0.5,1.1-1.3,1.7-2.7,2c-0.5,0.1-1.1-0.1-1.4-0.2
		c-1.3-0.5-2.6-2.2-1.8-4.1c0.3-0.9,1-1.5,1.9-1.9c0.2-0.1,0.4-0.1,0.6-0.2C30.8,19,30.9,19,31,19"/>
	<path class="st1" d="M48.9,32c-0.1,0-0.1-0.1-0.1-0.1L48.9,32C48.8,31.9,48.8,32,48.9,32"/>
	<path class="st2" d="M27.9,22.1c0-1.8,1.5-3.3,3.3-3.3c1.8,0,3.3,1.5,3.3,3.3c0,1.8-1.5,3.3-3.3,3.3C29.4,25.4,27.9,23.9,27.9,22.1
		"/>
</g>
</svg>
