<?xml version="1.0" encoding="utf-8"?>
<!-- Generator: Adobe Illustrator 19.0.0, SVG Export Plug-In . SVG Version: 6.00 Build 0)  -->
<svg version="1.1" id="Layer_2" xmlns="http://www.w3.org/2000/svg" xmlns:xlink="http://www.w3.org/1999/xlink" x="0px" y="0px"
	 viewBox="0 0 500 500" style="enable-background:new 0 0 500 500;" xml:space="preserve">
<style type="text/css">
	.st0{fill:#FFFFFF;}
</style>
<g id="layer1" transform="matrix(15.623041,0,0,15.623041,-3987.6024,-6644.8835)">
	<path class="st0" d="M271.3,439.8h-1.9V437h1.9c0.5,0,0.9,0.1,1.2,0.4c0.3,0.2,0.4,0.6,0.4,1c0,0.5-0.1,0.8-0.4,1
		C272.3,439.7,271.9,439.8,271.3,439.8z"/>
	<path class="st0" d="M273.5,443.8c0,0.6-0.2,1-0.5,1.3c-0.3,0.3-0.9,0.4-1.5,0.4h-2v-3.4h2c0.7,0,1.2,0.1,1.5,0.4
		C273.3,442.8,273.5,443.2,273.5,443.8z"/>
	<path class="st0" d="M278.3,430.7h-14.2c-1.9,0-3.4,1.5-3.4,3.4v14.3c0,1.9,1.5,3.4,3.4,3.4h14.2c1.9,0,3.4-1.5,3.4-3.4v-14.3
		C281.7,432.2,280.2,430.7,278.3,430.7z M275.6,446.9c-0.9,0.6-2.2,0.9-3.9,0.9H266v-13.1h5.1c1.8,0,3.2,0.3,4,0.8
		c0.8,0.5,1.2,1.4,1.2,2.6c0,0.6-0.2,1.2-0.5,1.6c-0.3,0.4-0.7,0.8-1.3,1c0.7,0.2,1.3,0.6,1.7,1.2c0.4,0.6,0.6,1.3,0.6,2.1
		C276.9,445.3,276.5,446.3,275.6,446.9z"/>
</g>
</svg>
