<?xml version="1.0" encoding="utf-8"?>
<!-- Generator: Adobe Illustrator 19.0.0, SVG Export Plug-In . SVG Version: 6.00 Build 0)  -->
<svg version="1.1" id="Layer_1" xmlns="http://www.w3.org/2000/svg" xmlns:xlink="http://www.w3.org/1999/xlink" x="0px" y="0px"
	 viewBox="-49 51 400 400" style="enable-background:new -49 51 400 400;" xml:space="preserve">
<style type="text/css">
	.st0{display:none;}
	.st1{fill:#FFFFFF;}
</style>
<g id="Layer_1_1_" class="st0">
</g>
<g id="Layer_2">
	<path class="st1" d="M78.3,197.6c0-11.9,9.7-21.6,21.6-21.6c11.9,0,21.6,9.7,21.6,21.6s-9.7,21.6-21.6,21.6
		C87.9,219.2,78.3,209.5,78.3,197.6z"/>
	<path class="st1" d="M281.6,106.7l-26.9,63c-10.2-20.4-31.3-34.4-55.7-34.4c-19.9,0-37.5,9.3-49,23.7c-0.2,0.3-0.4,0.6-0.6,0.8
		c-11.4-14.9-29.4-24.6-49.6-24.6c-23.9,0-44.6,13.4-55.1,33.1l-26.3-61.6l23.5,5.7L32.5,87l117.6,31.1L267.6,87l-9.5,25.4
		L281.6,106.7z"/>
	<path class="st1" d="M150.1,159v1.7c-0.2-0.3-0.4-0.6-0.6-0.8C149.7,159.5,149.9,159.3,150.1,159z"/>
	<path class="st1" d="M150.1,234.6v1.7c-0.2-0.3-0.4-0.6-0.6-0.8C149.7,235.1,149.9,234.8,150.1,234.6z"/>
	<path class="st1" d="M220.7,197.6c0,11.9-9.7,21.6-21.6,21.6s-21.6-9.7-21.6-21.6c0-11.9,9.7-21.6,21.6-21.6
		C211,176,220.7,185.7,220.7,197.6z"/>
	<path class="st1" d="M199.1,260c-19.9,0-37.5-9.3-49-23.7c-0.2-0.3-0.4-0.6-0.6-0.8c-11.4,14.8-29.4,24.5-49.6,24.5
		c-5.9,0-11.6-0.8-17-2.3L150.1,415l67.4-157.8C211.6,259,205.4,260,199.1,260z M150.1,313.3L126.6,260h45.1L150.1,313.3z"/>
	<path class="st1" d="M150.1,159v1.7c-0.2-0.3-0.4-0.6-0.6-0.8C149.7,159.5,149.9,159.3,150.1,159z"/>
	<path class="st1" d="M150.1,234.6v1.7c-0.2-0.3-0.4-0.6-0.6-0.8C149.7,235.1,149.9,234.8,150.1,234.6z"/>
	<path class="st1" d="M220.7,197.6c0,11.9-9.7,21.6-21.6,21.6s-21.6-9.7-21.6-21.6c0-11.9,9.7-21.6,21.6-21.6
		C211,176,220.7,185.7,220.7,197.6z"/>
	<path class="st1" d="M121.4,197.6c0,11.9-9.7,21.6-21.6,21.6c-11.9,0-21.6-9.7-21.6-21.6c0-11.9,9.7-21.6,21.6-21.6
		S121.4,185.7,121.4,197.6z"/>
	<path class="st1" d="M121.4,197.6c0,11.9-9.7,21.6-21.6,21.6c-11.9,0-21.6-9.7-21.6-21.6c0-11.9,9.7-21.6,21.6-21.6
		S121.4,185.7,121.4,197.6z"/>
	<path class="st1" d="M220.7,197.6c0,11.9-9.7,21.6-21.6,21.6s-21.6-9.7-21.6-21.6c0-11.9,9.7-21.6,21.6-21.6
		C211,176,220.7,185.7,220.7,197.6z"/>
</g>
</svg>
