<?xml version="1.0" encoding="utf-8"?>
<!-- Generator: Adobe Illustrator 19.0.0, SVG Export Plug-In . SVG Version: 6.00 Build 0)  -->
<svg version="1.1" id="Layer_2" xmlns="http://www.w3.org/2000/svg" xmlns:xlink="http://www.w3.org/1999/xlink" x="0px" y="0px"
	 viewBox="0 0 500 500" style="enable-background:new 0 0 500 500;" xml:space="preserve">
<style type="text/css">
	.st0{fill:#FFFFFF;}
</style>
<g id="XMLID_1_">
	<path id="XMLID_19_" class="st0" d="M178.9,159.2c-15.8,0-28.6,12.7-28.6,28.6v70.6h-0.9l-13.9-11.9l-10.9,11.4l36.1,36.1
		l36.7-36.1l-12.7-11.4l-11.9,12h-1.4v-69c0-8.8,7.1-15.8,15.8-15.8h12.6c8.8,0,15.8,7.1,15.8,15.8v7.3h24.4v-9.1
		c0-15.8-12.7-28.6-28.6-28.6L178.9,159.2L178.9,159.2z M227.9,204.5l-36.6,36.1l12.7,11.4l11.9-12h1.4v69c0,8.8-7.1,15.8-15.8,15.8
		h-12.6c-8.8,0-15.8-7.1-15.8-15.8v-7.3h-24.4v9.1c0,15.8,12.7,28.6,28.6,28.6h32.4c15.8,0,28.6-12.7,28.6-28.6v-70.6h0.9l13.9,11.9
		l10.9-11.4L227.9,204.5z M357.5,243.6l35.6,45.2l-39.5,47.8h32.7l21.8-31.5l22.2,31.5H461l-38.7-48.3l36.3-44.7h-30.2l-20.8,29.5
		L388,243.6L357.5,243.6L357.5,243.6z M80.2,243.9L39,336.3h26.9l8-19.6h41.5l8,19.6h26.9l-41.4-92.4L80.2,243.9L80.2,243.9z
		 M280.3,243.9l-41.2,92.4H266l8-19.6h41.5l8,19.6h26.9l-41.3-92.4L280.3,243.9L280.3,243.9z M94.9,265.7l7,17.5l7,17.5H94.9H80.9
		l7-17.6L94.9,265.7z M294.9,265.7l7,17.5l7,17.5h-13.9H281l7-17.6L294.9,265.7z"/>
</g>
</svg>
