<?xml version="1.0" encoding="utf-8"?>
<!-- Generator: Adobe Illustrator 19.0.0, SVG Export Plug-In . SVG Version: 6.00 Build 0)  -->
<svg version="1.1" id="Layer_2" xmlns="http://www.w3.org/2000/svg" xmlns:xlink="http://www.w3.org/1999/xlink" x="0px" y="0px"
	 viewBox="0 0 500 500" style="enable-background:new 0 0 500 500;" xml:space="preserve">
<style type="text/css">
	.st0{fill:#FFFFFF;}
</style>
<path id="XMLID_17_" class="st0" d="M72,72v356h356V72H72z M266,349.7c0,34.6-20.4,50.4-50,50.4c-26.8,0-42.3-13.9-50.2-30.6
	L193,353c5.3,9.3,9.8,17.2,21.3,17.2c11,0,17.7-4.3,17.7-21V235h34V349.7z M344.9,400.1c-31.1,0-51.1-14.8-61-34.2l27.2-15.8
	c7.2,11.7,16.5,20.3,33,20.3c13.9,0,22.7-6.9,22.7-16.5c0-11.5-9.1-15.5-24.4-22.2l-8.4-3.6C310,317.9,294,305,294,277.7
	c0-25.1,19.1-44.2,49-44.2c21.3,0,36.6,7.4,47.6,26.8l-26,16.7c-5.7-10.3-11.9-14.3-21.5-14.3c-9.8,0-16,6.2-16,14.3
	c0,10,6.2,14.1,20.6,20.3l8.4,3.6c28.4,12.2,44.5,24.6,44.5,52.6C400.3,383.6,376.7,400.1,344.9,400.1z"/>
</svg>
