<?xml version="1.0" encoding="utf-8"?>
<!-- Generator: Adobe Illustrator 19.0.0, SVG Export Plug-In . SVG Version: 6.00 Build 0)  -->
<svg version="1.1" id="Layer_1" xmlns="http://www.w3.org/2000/svg" xmlns:xlink="http://www.w3.org/1999/xlink" x="0px" y="0px"
	 viewBox="0 0 500 500" style="enable-background:new 0 0 500 500;" xml:space="preserve">
<style type="text/css">
	.st0{fill:#FFFFFF;}
</style>
<g id="XMLID_1_">
	<path id="XMLID_16_" class="st0" d="M208.7,263.8c0,0-11.9,6.9,8.5,9.3c24.7,2.8,37.3,2.4,64.5-2.7c0,0,7.2,4.5,17.1,8.4
		C237.8,304.8,160.8,277.2,208.7,263.8L208.7,263.8z"/>
	<path id="XMLID_15_" class="st0" d="M201.2,229.7c0,0-13.3,9.9,7,12c26.4,2.7,47.2,2.9,83.2-4c0,0,5,5.1,12.8,7.8
		C230.6,267.1,148.5,247.2,201.2,229.7L201.2,229.7z"/>
	<path id="XMLID_14_" class="st0" d="M264,171.9c15,17.3-3.9,32.9-3.9,32.9s38.1-19.7,20.6-44.3c-16.4-23-28.9-34.4,39-73.8
		C319.7,86.6,213.1,113.2,264,171.9L264,171.9z"/>
	<path id="XMLID_13_" class="st0" d="M344.6,289c0,0,8.8,7.3-9.7,12.9c-35.2,10.7-146.5,13.9-177.4,0.4c-11.1-4.8,9.7-11.5,16.3-13
		c6.8-1.5,10.7-1.2,10.7-1.2c-12.4-8.7-79.9,17.1-34.3,24.5C274.6,332.8,376.9,303.6,344.6,289L344.6,289z"/>
	<path id="XMLID_12_" class="st0" d="M214.4,194.4c0,0-56.6,13.4-20,18.3c15.4,2.1,46.2,1.6,74.9-0.8c23.4-2,46.9-6.2,46.9-6.2
		s-8.3,3.5-14.2,7.6c-57.5,15.1-168.5,8.1-136.5-7.4C192.4,192.9,214.4,194.4,214.4,194.4L214.4,194.4z"/>
	<path id="XMLID_11_" class="st0" d="M315.9,251.2c58.4-30.4,31.4-59.5,12.6-55.6c-4.6,1-6.7,1.8-6.7,1.8s1.7-2.7,5-3.8
		c37.3-13.1,66,38.7-12,59.2C314.7,252.7,315.6,251.9,315.9,251.2L315.9,251.2z"/>
	<path id="XMLID_10_" class="st0" d="M280.7,23c0,0,32.4,32.4-30.7,82.1c-50.6,39.9-11.5,62.7,0,88.7
		c-29.5-26.6-51.2-50.1-36.6-71.9C234.7,89.9,293.7,74.4,280.7,23L280.7,23z"/>
	<path id="XMLID_9_" class="st0" d="M220.1,333.4c56.1,3.6,142.2-2,144.2-28.5c0,0-3.9,10.1-46.3,18c-47.9,9-106.9,8-141.9,2.2
		C176.1,325.1,183.3,331.1,220.1,333.4L220.1,333.4z"/>
	<path class="st0" d="M361.8,381h-1.7v-1h4.6v1H363v4.8h-1.2L361.8,381L361.8,381L361.8,381z M371,381.3L371,381.3l-1.7,4.5h-0.8
		l-1.7-4.5h0v4.5h-1.1v-5.7h1.7l1.6,4.1l1.6-4.1h1.6v5.7H371L371,381.3L371,381.3z"/>
	<path class="st0" d="M210.9,434.8c-5.3,4.6-10.9,7.2-15.9,7.2c-7.1,0-11-4.3-11-11.2c0-7.4,4.2-12.9,20.8-12.9h6.1V434.8
		L210.9,434.8L210.9,434.8z M225.5,451.3v-51c0-13-7.4-21.6-25.3-21.6c-10.4,0-19.6,2.6-27.1,5.9l2.1,9c5.9-2.2,13.5-4.2,20.9-4.2
		c10.3,0,14.8,4.2,14.8,12.7v6.4h-5.2c-25.1,0-36.4,9.7-36.4,24.3c0,12.6,7.5,19.8,21.5,19.8c9,0,15.8-3.7,22-9.2l1.1,7.7H225.5
		L225.5,451.3z"/>
	<path id="XMLID_4_" class="st0" d="M274.2,451.3H256L234.1,380H250l13.6,43.8l3,13.2c6.9-19,11.7-38.4,14.2-57h15.5
		C292.1,403.5,284.7,429.2,274.2,451.3L274.2,451.3z"/>
	<path class="st0" d="M344.1,434.8c-5.3,4.6-10.9,7.2-15.9,7.2c-7.2,0-11-4.3-11-11.2c0-7.4,4.2-12.9,20.8-12.9h6.2L344.1,434.8
		L344.1,434.8L344.1,434.8z M358.7,451.3v-51c0-13-7.5-21.6-25.3-21.6c-10.5,0-19.6,2.6-27.1,5.9l2.1,9c5.9-2.2,13.5-4.2,20.9-4.2
		c10.3,0,14.8,4.2,14.8,12.7v6.4h-5.2c-25.1,0-36.4,9.7-36.4,24.3c0,12.6,7.4,19.8,21.5,19.8c9,0,15.7-3.7,22.1-9.2l1.2,7.7H358.7
		L358.7,451.3z"/>
	<path id="XMLID_2_" class="st0" d="M153.4,463.4c-4.2,6.1-10.9,10.9-18.2,13.6l-7.2-8.5c5.6-2.9,10.4-7.5,12.6-11.8
		c1.9-3.9,2.7-8.8,2.7-20.6v-81.4h15.5v80.3C158.8,450.8,157.6,457.2,153.4,463.4L153.4,463.4z"/>
</g>
</svg>
