<?xml version="1.0" encoding="utf-8"?>
<!-- Generator: Adobe Illustrator 19.0.0, SVG Export Plug-In . SVG Version: 6.00 Build 0)  -->
<svg version="1.1" id="Layer_2" xmlns="http://www.w3.org/2000/svg" xmlns:xlink="http://www.w3.org/1999/xlink" x="0px" y="0px"
	 viewBox="0 0 500 500" style="enable-background:new 0 0 500 500;" xml:space="preserve">
<style type="text/css">
	.st0{fill:#FFFFFF;}
</style>
<path id="XMLID_57_" class="st0" d="M164.3,344.4L164.3,344.4l-3.2,11.3L164.3,344.4L164.3,344.4z"/>
<path id="XMLID_56_" class="st0" d="M180.7,369l-3.5,0L180.7,369z"/>
<path id="XMLID_55_" class="st0" d="M179.8,385.9L179.8,385.9l-21.1,0.1L179.8,385.9L179.8,385.9z"/>
<path id="XMLID_54_" class="st0" d="M184.2,369l-3.5,0L184.2,369z"/>
<path id="XMLID_53_" class="st0" d="M181.7,384.5l3.7-14L181.7,384.5L181.7,384.5L181.7,384.5z"/>
<path id="XMLID_52_" class="st0" d="M259.3,319.9l-6.8,32.2C252.5,352.1,259.3,319.9,259.3,319.9z"/>
<path id="XMLID_51_" class="st0" d="M241.7,319.9l-5.2,24L241.7,319.9L241.7,319.9z"/>
<path id="XMLID_50_" class="st0" d="M258.2,318.5h-14.6c-0.8,0-1.6,0.7-1.8,1.4l-5.2,24l-5.2,24c-0.2,0.8-1,1.4-1.8,1.4h-8.9h-1.5
	c-10.3,0-9.1-7.1-7-16.8c0-0.1,0-0.2,0.1-0.3l0.2-1.2c0-0.1,0-0.2,0-0.2l0.5-2.5l0.5-2.7c0.2-0.8,0.4-2,0.5-2.7l2.4-11.5l2.4-11.5
	c0.2-0.8-0.4-1.5-1.2-1.5h-15c-0.8,0-1.6,0.7-1.8,1.4l-3.2,15.3l-3.2,15.3c0,0,0,0,0,0L194,352c-3.7,17-2.7,33.2,17.5,33.7
	c0.3,0,0.6,0,0.6,0h31.7c0.8,0,1.6-0.7,1.8-1.4l6.8-32.2l6.8-32.2C259.5,319.1,259,318.5,258.2,318.5L258.2,318.5z"/>
<path id="XMLID_49_" class="st0" d="M316.6,369.6c0.8,0,1.3,0.7,1.2,1.4l-1.4,6.9"/>
<path id="XMLID_48_" class="st0" d="M314.9,385l1.4-7L314.9,385C314.9,385,314.9,385,314.9,385L314.9,385z"/>
<path id="XMLID_47_" class="st0" d="M313.1,386.4C313.1,386.4,313.1,386.4,313.1,386.4c-4.3,0-17.2,0.1-27,0.1
	C298,386.6,313.1,386.4,313.1,386.4L313.1,386.4z"/>
<path id="XMLID_46_" class="st0" d="M277.4,360.7c0-0.8,0.9-2.1,1.7-2.1l-1.8,0C276.4,366.9,277.4,360.7,277.4,360.7L277.4,360.7z"
	/>
<path id="XMLID_45_" class="st0" d="M287.5,386.6c-0.1,0-0.2,0-0.3,0C287.3,386.6,287.4,386.6,287.5,386.6z"/>
<path id="XMLID_44_" class="st0" d="M316.6,369.6c0.8,0,1.3,0.7,1.2,1.4l-1.4,6.9l-0.2,1.1"/>
<path id="XMLID_43_" class="st0" d="M294.4,386.6L294.4,386.6L294.4,386.6z"/>
<path id="XMLID_42_" class="st0" d="M290.8,386.6h-0.2H290.8z"/>
<path id="XMLID_41_" class="st0" d="M289.7,386.6c-0.1,0-0.2,0-0.3,0C289.5,386.6,289.6,386.6,289.7,386.6z"/>
<path id="XMLID_40_" class="st0" d="M288.6,386.6h-0.3H288.6z"/>
<path id="XMLID_39_" class="st0" d="M290.6,386.6c-0.3,0-0.6,0-0.9,0C290,386.6,290.3,386.6,290.6,386.6z"/>
<path id="XMLID_38_" class="st0" d="M294.4,386.6c-1.2,0-2.4,0-3.5,0C292,386.6,293.2,386.6,294.4,386.6z"/>
<path id="XMLID_37_" class="st0" d="M313.1,386.4L313.1,386.4c-3.2,0-11,0.1-18.7,0.1C302.2,386.5,310,386.5,313.1,386.4z"/>
<path id="XMLID_36_" class="st0" d="M314.9,385l1.2-5.8L314.9,385C314.9,385,314.9,385,314.9,385L314.9,385z"/>
<path id="XMLID_35_" class="st0" d="M289.4,386.6h-0.8H289.4z"/>
<path id="XMLID_34_" class="st0" d="M287.2,386.6h-1H287.2z"/>
<path id="XMLID_33_" class="st0" d="M288.3,386.6h-0.8H288.3z"/>
<path id="XMLID_32_" class="st0" d="M74.2,360.9l2.3-10.1l-2.6,11.5L71.3,374l2.2-10.3C73.7,363,74,361.7,74.2,360.9L74.2,360.9z"/>
<path id="XMLID_31_" class="st0" d="M101.4,318.3H85.3c-0.8,0-1.6,0.6-1.8,1.4l-1.5,6.7l-1.5,6.7c-0.2,0.8,0.3,1.4,1.2,1.4h16.2
	c0.8,0,1.6-0.6,1.8-1.4l1.5-6.7l1.5-6.7v0C102.7,319,102.2,318.3,101.4,318.3L101.4,318.3z"/>
<path id="XMLID_30_" class="st0" d="M97.9,340.7L97.9,340.7l-4.7,21.8L97.9,340.7z"/>
<path id="XMLID_29_" class="st0" d="M51.2,413c0,0,8.1,0.1,13.3,0.1C60.5,413.1,54.1,413,51.2,413C51.2,413,51.2,413,51.2,413
	L51.2,413z"/>
<path id="XMLID_28_" class="st0" d="M78.7,340.7l-2.3,10.1L78.7,340.7z"/>
<path id="XMLID_27_" class="st0" d="M96.7,339.3H80.5c-0.8,0-1.6,0.6-1.8,1.4l-2.3,10.1l-2.3,10.1c-0.2,0.8-0.5,2.1-0.6,2.9
	L71.3,374l-2.2,10.3c-0.2,0.8-0.5,2.1-0.8,2.8c0,0-3,9-8.1,8.9c-0.2,0-0.4,0-0.6,0c-2.5,0-4.4-0.1-4.4-0.1h0c-0.8,0-1.6,0.6-1.8,1.4
	l-1.7,7.1l-1.7,7.1c-0.2,0.8,0.3,1.4,1.1,1.5c2.9,0,9.3,0.1,13.3,0.1c12.7,0,19.4-7,23.7-27.3l5-23.3l4.7-21.8
	C98.1,339.9,97.5,339.3,96.7,339.3L96.7,339.3z"/>
<path id="XMLID_26_" class="st0" d="M326.9,385.8c-0.8,0-1.3-0.7-1.2-1.4l12.2-57.1"/>
<path id="XMLID_25_" class="st0" d="M343.8,384.3l4.9-24.4L343.8,384.3z"/>
<path id="XMLID_24_" class="st0" d="M325.9,385c-0.1-0.4,0-1.4,0.1-2.2l5.8-27.1l-6.1,28.5c-0.2,0.8,0.4,1.4,1.2,1.4h1.5
	C327.6,385.8,326,385.4,325.9,385L325.9,385z"/>
<path id="XMLID_23_" class="st0" d="M342.9,385.4c-0.4,0.2-1.5,0.3-2.3,0.3h1.5c0.8,0,1.6-0.7,1.8-1.5l0.3-1.4
	C344,383.7,343.3,385.3,342.9,385.4L342.9,385.4z"/>
<path id="XMLID_22_" class="st0" d="M346.3,372.1l2.2-10.8c0,0,0,0,0,0L346.3,372.1L346.3,372.1z"/>
<path id="XMLID_21_" class="st0" d="M394.4,331l0.7,2.8c0.2,0.8-0.3,1.4-1.1,1.4"/>
<path id="XMLID_20_" class="st0" d="M344.1,382.9l2.2-10.7L344.1,382.9z"/>
<path id="XMLID_19_" class="st0" d="M393.7,328.2l0.7,2.8L393.7,328.2z"/>
<path id="XMLID_18_" class="st0" d="M348.5,361.4c0.2-0.8,0.4-2.1,0.6-2.9l2.3-10.9l-2.6,12.3L348.5,361.4L348.5,361.4z"/>
<path id="XMLID_17_" class="st0" d="M338.1,326.3c-0.2,0.8-0.4,1.7-0.5,2.4l-5.8,27.1l6.1-28.5L338.1,326.3L338.1,326.3z"/>
<path id="XMLID_16_" class="st0" d="M395.1,333.8l-0.7-2.8l-0.7-2.8l-0.3-1.4c-1.3-5.1-5.2-8.1-13.6-8.1l-13.1,0l-12,0h-1h-12.5
	c-0.8,0-1.6,0.6-1.8,1.4h0l-0.6,2.8l-0.7,3.3l-0.2,0.9l-6.1,28.5l-5.8,27.1c-0.2,0.8-0.2,1.8-0.1,2.2c0.1,0.4,1.7,0.7,2.5,0.7h12.2
	c0.8,0,1.8-0.1,2.3-0.3c0.4-0.2,1.1-1.8,1.3-2.6l2.2-10.7l2.2-10.7c0,0,0,0,0,0l0.3-1.4l2.6-12.3l2.3-10.9c0.2-0.8,1-1.4,1.8-1.4
	l38.4,0C394.7,335.2,395.3,334.6,395.1,333.8L395.1,333.8z"/>
<path id="XMLID_15_" class="st0" d="M444.5,308.7c-0.8,0-2.1,0-3,0h-12.3c-0.8,0-1.9,0.5-2.3,1.2l-27.2,39.8c-0.5,0.7-1,0.6-1.2-0.2
	l-2-8.8c-0.2-0.8-1-1.4-1.8-1.4h-17.5c-0.8,0-1.3,0.6-1.1,1.4l7.8,27.4c0.2,0.8,0.2,2.1,0,2.9l-3.4,13.3c-0.2,0.8,0.3,1.4,1.1,1.4
	h17.3c0.8,0,1.6-0.6,1.8-1.4l3.4-13.3c0.2-0.8,0.8-2,1.3-2.6l44.1-58.6c0.5-0.6,0.2-1.2-0.6-1.2L444.5,308.7L444.5,308.7z"/>
<path id="XMLID_12_" class="st0" d="M305.6,343.1L305.6,343.1c-0.1,0.9-0.9,1.5-1.7,1.5h-22.2c-0.8,0-1.2-0.5-1-1.2c0,0,0,0,0-0.1
	c0,0,0,0,0,0c0,0,0,0,0-0.1c0,0,0-0.2,0.1-0.4c2.1-5.6,6.4-9.3,14.5-9.3C304.5,333.6,306.3,338.1,305.6,343.1L305.6,343.1z
	 M299.1,317.5c-28.4,0-35.2,17.3-39,34.7c-3.8,17.8-3.5,34.4,26,34.4h1c0.1,0,0.2,0,0.3,0h0.8h0.3h0.8c0.1,0,0.2,0,0.3,0
	c0.3,0,0.6,0,0.9,0h0.2c1.2,0,2.3,0,3.5,0h0.1c7.8,0,15.6-0.1,18.7-0.1c0.8,0,1.6-0.7,1.8-1.5l1.2-5.8l0.2-1.1l1.4-6.9
	c0.2-0.8-0.4-1.4-1.2-1.4h-26.5c-10.5,0-13.7-2.8-12.5-11h42.3l0,0c0,0,0,0,0,0c0.7,0,1.3-0.5,1.5-1.1c0-0.1,0.1-0.2,0.1-0.4l0,0
	C327.9,333.5,326.1,317.5,299.1,317.5L299.1,317.5z"/>
<path id="XMLID_9_" class="st0" d="M164.7,343l-0.4,1.4c0,0,0,0,0,0l-3.2,11.3l-3.2,11.3c-0.2,0.8-1.1,1.4-1.9,1.4h-16.9
	c-12.8,0-15.9-10-12.8-24.8c3.1-15.1,9.2-24.5,21.9-25.5C165.4,316.9,168.9,329,164.7,343L164.7,343z M176.3,367.6
	c0,0,8-19.4,9.8-30.5c2.5-15-5-36.7-34-36.7c-28.8,0-41.3,20.7-46,43.2c-4.8,22.7,1.5,42.6,30.1,42.4l22.6-0.1l21.1-0.1
	c0.8,0,1.6-0.7,1.9-1.4l3.7-14c0.2-0.8-0.3-1.4-1.1-1.4l-3.5,0l-3.5,0c-0.7,0-1.1-0.5-1-1C176.2,367.8,176.2,367.7,176.3,367.6
	L176.3,367.6z"/>
<path id="XMLID_8_" class="st0" d="M318.7,354.7c0,0.5-0.4,1-1,1c-0.5,0-1-0.4-1-1c0-0.5,0.4-1,1-1
	C318.3,353.7,318.7,354.1,318.7,354.7z"/>
<path id="XMLID_3_" class="st0" d="M159.2,135.2c-18.9,27.2-16.6,62.6-2.1,91.4c0.3,0.7,0.7,1.4,1.1,2.1c0.2,0.4,0.4,0.9,0.7,1.3
	c0.1,0.3,0.3,0.5,0.4,0.7c0.2,0.5,0.5,0.9,0.8,1.3c0.4,0.8,0.9,1.6,1.4,2.4c0.3,0.4,0.5,0.9,0.8,1.3c0.5,0.8,1.1,1.7,1.6,2.5
	c0.2,0.4,0.4,0.7,0.7,1.1c0.8,1.1,1.5,2.2,2.3,3.3c0,0,0,0.1,0.1,0.1c0.1,0.2,0.3,0.3,0.4,0.5c0.7,0.9,1.4,1.9,2.1,2.8
	c0.3,0.3,0.5,0.7,0.8,1c0.6,0.8,1.3,1.6,2,2.4c0.2,0.3,0.5,0.6,0.7,0.9c0.9,1,1.8,2.1,2.7,3.1c0,0,0,0,0.1,0.1c0,0,0.1,0.1,0.1,0.1
	c0.9,1,1.8,2,2.8,2.9c0.3,0.3,0.6,0.6,0.9,0.9c0.7,0.7,1.5,1.5,2.2,2.2c0.3,0.3,0.6,0.6,0.9,0.9c1,0.9,2,1.9,3,2.8c0,0,0,0,0,0
	c0.2,0.2,0.4,0.3,0.5,0.4c0.9,0.8,1.8,1.6,2.7,2.3c0.4,0.3,0.8,0.6,1.1,0.9c0.8,0.6,1.5,1.2,2.3,1.8c0.4,0.3,0.8,0.6,1.2,0.9
	c0.9,0.6,1.7,1.2,2.6,1.8c0.3,0.2,0.6,0.4,0.9,0.7c0.1,0.1,0.2,0.1,0.3,0.2c0.8,0.6,1.7,1.1,2.5,1.7c0.4,0.2,0.7,0.5,1.1,0.7
	c1.3,0.8,2.6,1.6,3.9,2.4c0.4,0.2,0.7,0.4,1.1,0.6c1,0.6,1.9,1.1,2.9,1.6c0.5,0.3,1.1,0.6,1.6,0.8c0.7,0.4,1.4,0.7,2.1,1.1
	c0.2,0.1,0.3,0.2,0.5,0.2c0.3,0.1,0.6,0.3,0.9,0.4c1.1,0.5,2.2,1,3.3,1.5c0.2,0.1,0.5,0.2,0.7,0.3c1.3,0.6,2.6,1.1,3.9,1.6
	c0.3,0.1,0.6,0.2,0.9,0.4c1.2,0.5,2.4,0.9,3.7,1.4c0.2,0.1,0.3,0.1,0.5,0.2c1.3,0.5,2.7,0.9,4.1,1.3c0.3,0.1,0.7,0.2,1,0.3
	c1.4,0.4,2.8,0.9,4.2,1.2c91.5,16.7,118.1-55,118.1-55c-22.3,29.1-61.9,36.7-99.5,28.2c-1.4-0.3-2.8-0.8-4.2-1.2
	c-0.4-0.1-0.7-0.2-1-0.3c-1.4-0.4-2.7-0.9-4-1.3c-0.2-0.1-0.4-0.1-0.6-0.2c-1.2-0.4-2.4-0.9-3.6-1.3c-0.3-0.1-0.7-0.3-1-0.4
	c-1.3-0.5-2.6-1-3.8-1.6c-0.3-0.1-0.5-0.2-0.8-0.3c-1.1-0.5-2.2-1-3.2-1.5c-0.3-0.1-0.6-0.3-0.9-0.4c-0.8-0.4-1.7-0.8-2.5-1.3
	c-0.6-0.3-1.1-0.6-1.7-0.9c-1-0.5-2-1.1-3-1.7c-0.3-0.2-0.7-0.4-1-0.6c-1.3-0.8-2.6-1.6-3.9-2.4c-0.4-0.2-0.7-0.5-1.1-0.7
	c-0.9-0.6-1.9-1.2-2.8-1.8c-0.3-0.2-0.6-0.4-0.9-0.6c-0.9-0.6-1.8-1.3-2.6-1.9c-0.4-0.3-0.8-0.6-1.2-0.9c-0.8-0.6-1.6-1.2-2.4-1.9
	c-0.4-0.3-0.7-0.6-1.1-0.8c-1-0.8-2-1.6-3-2.5c-0.1-0.1-0.2-0.2-0.3-0.3c-1.1-0.9-2.1-1.9-3.1-2.8c-0.3-0.3-0.6-0.6-0.9-0.8
	c-0.8-0.7-1.5-1.4-2.2-2.2c-0.3-0.3-0.6-0.6-0.9-0.9c-0.9-1-1.8-1.9-2.7-2.9c0,0-0.1-0.1-0.1-0.1c-0.9-1-1.9-2.1-2.8-3.2
	c-0.2-0.3-0.5-0.6-0.7-0.9c-0.7-0.8-1.3-1.6-2-2.5c-0.2-0.3-0.5-0.6-0.7-0.9c-0.8-1-1.6-2-2.3-3.1c-20.8-28.4-28.3-67.6-11.7-99.8"
	/>
<path id="XMLID_2_" class="st0" d="M218,112.3c-13.7,19.7-12.9,46-2.3,66.9c1.8,3.5,3.8,6.9,6.1,10.1c2.1,2.9,4.3,6.4,7,8.8
	c1,1.1,2,2.1,3.1,3.2c0.3,0.3,0.5,0.5,0.8,0.8c1,1,2.1,2,3.1,2.9c0,0,0.1,0.1,0.1,0.1c0,0,0,0,0,0c1.2,1,2.4,2,3.7,3
	c0.3,0.2,0.6,0.4,0.8,0.6c1.2,1,2.5,1.9,3.8,2.8c0,0,0.1,0.1,0.1,0.1c0.6,0.4,1.2,0.8,1.7,1.2c0.3,0.2,0.5,0.4,0.8,0.5
	c0.9,0.6,1.9,1.2,2.8,1.7c0.1,0.1,0.3,0.2,0.4,0.2c0.8,0.5,1.7,0.9,2.5,1.4c0.3,0.2,0.6,0.3,0.9,0.5c0.6,0.3,1.2,0.6,1.8,0.9
	c0.1,0,0.2,0.1,0.3,0.1c1.2,0.6,2.4,1.2,3.7,1.7c0.3,0.1,0.5,0.2,0.8,0.3c1,0.4,2,0.8,3,1.2c0.4,0.2,0.9,0.3,1.3,0.5
	c0.9,0.3,1.8,0.6,2.8,1c0.4,0.1,0.8,0.3,1.2,0.4c1.3,0.4,2.6,0.9,4,1.2c70.6,11.7,86.9-42.7,86.9-42.7
	c-14.7,21.2-43.2,31.3-73.5,23.4c-1.3-0.4-2.7-0.7-4-1.2c-0.4-0.1-0.8-0.3-1.2-0.4c-0.9-0.3-1.9-0.6-2.8-1c-0.4-0.2-0.8-0.3-1.3-0.5
	c-1-0.4-2-0.8-3-1.2c-0.3-0.1-0.5-0.2-0.8-0.3c-1.2-0.5-2.5-1.1-3.7-1.7c-0.6-0.3-1.2-0.6-1.8-0.9c-0.4-0.2-0.7-0.4-1.1-0.5
	c-0.8-0.4-1.6-0.9-2.3-1.3c-0.2-0.1-0.4-0.2-0.6-0.3c-1-0.6-1.9-1.1-2.8-1.7c-0.3-0.2-0.6-0.4-0.9-0.6c-0.6-0.4-1.2-0.8-1.8-1.2
	c-1.3-0.9-2.6-1.8-3.8-2.8c-0.3-0.2-0.6-0.4-0.9-0.7c-13.3-10.5-23.8-24.8-28.8-41.1c-5.3-16.9-4.1-35.8,5-51.2"/>
<path id="XMLID_1_" class="st0" d="M267.3,95.2c-8.1,11.9-8.9,26.6-3.3,39.7c5.9,13.9,18,24.8,32.1,30c0.6,0.2,1.2,0.4,1.8,0.6
	c0.3,0.1,0.5,0.2,0.8,0.2c0.8,0.3,1.7,0.6,2.5,0.7c39,7.5,49.6-20,52.4-24.1c-9.3,13.3-24.8,16.5-43.9,11.9
	c-1.5-0.4-3.2-0.9-4.6-1.4c-1.9-0.7-3.7-1.4-5.5-2.3c-3.4-1.6-6.6-3.6-9.6-5.9c-17.1-13-27.7-37.7-16.6-57.9"/>
</svg>
