<?xml version="1.0" encoding="utf-8"?>
<!-- Generator: Adobe Illustrator 19.0.0, SVG Export Plug-In . SVG Version: 6.00 Build 0)  -->
<svg version="1.1" id="Layer_2" xmlns="http://www.w3.org/2000/svg" xmlns:xlink="http://www.w3.org/1999/xlink" x="0px" y="0px"
	 viewBox="0 0 500 500" style="enable-background:new 0 0 500 500;" xml:space="preserve">
<style type="text/css">
	.st0{fill:#FFFFFF;}
</style>
<g id="XMLID_22_" transform="translate(0.738281, 121.593)">
	<path id="XMLID_23_" class="st0" d="M54.4,211.1h12.8v-50.7l19.9,44.2c2.3,5.4,5.6,7.2,11.9,7.2c6.3,0,9.4-1.9,11.7-7.2l19.9-44.2
		v50.7h12.8v-50.6c0-4.9-2-7.3-6.1-8.6c-9.8-3-16.3-0.4-19.3,6.2l-19.5,43.6l-18.9-43.6c-2.8-6.6-9.5-9.2-19.3-6.2
		c-4.1,1.2-6.1,3.6-6.1,8.6V211.1z"/>
</g>
<g id="XMLID_20_" transform="translate(100.444, 142.416)">
	<path id="XMLID_21_" class="st0" d="M54.4,149h12.8v27.9c-0.1,1.5,0.5,5.1,7.5,5.2c3.6,0.1,27.7,0,27.9,0v-33.3h12.9
		c0.1,0,0,45.4,0,45.6c0.1,11.2-13.9,13.6-20.3,13.8H54.6v-8.6c0.1,0,40.5,0,40.6,0c8.3-0.9,7.3-5,7.3-6.4v-3.4H75.3
		c-12.7-0.1-20.8-5.7-20.9-12C54.4,177.2,54.6,149.3,54.4,149z"/>
</g>
<g id="XMLID_18_" transform="translate(171.496, 124.557)">
	<path id="XMLID_19_" class="st0" d="M54.4,208.1h36.9c4.3,0,8.5-0.9,11.9-2.5c5.6-2.6,8.3-6,8.3-10.5v-9.4c0-3.7-3.1-7.2-9.1-9.5
		c-3.2-1.2-7.2-1.9-11-1.9H75.7c-5.2,0-7.7-1.6-8.3-5c-0.1-0.4-0.1-0.7-0.1-1.2v-5.8c0-0.3,0-0.7,0.1-1.1c0.6-2.6,2-3.4,6.5-3.8
		c0.4,0,0.9-0.1,1.2-0.1h36.7v-8.6H75.8c-5.2,0-7.9,0.3-10.4,1.1c-7.7,2.4-11,6.2-11,12.8v7.5c0,5.8,6.5,10.7,17.5,11.9
		c1.2,0.1,2.5,0.2,3.7,0.2h13.3c0.5,0,1,0,1.4,0.1c4.1,0.3,5.8,1.1,7,2.6c0.7,0.7,1,1.5,1,2.3v7.5c0,0.9-0.6,2.1-1.9,3
		c-1.1,1-3,1.6-5.4,1.8c-0.5,0-0.9,0.1-1.4,0.1H54.4V208.1z"/>
</g>
<g id="XMLID_16_" transform="translate(308.656, 124.557)">
	<path id="XMLID_17_" class="st0" d="M54.4,193.2c0,8.8,6.5,13.7,19.8,14.7c1.2,0.1,2.5,0.2,3.7,0.2h33.5v-8.6H77.6
		c-7.5,0-10.4-1.9-10.4-6.4v-44.3H54.4V193.2z"/>
</g>
<g id="XMLID_12_" transform="translate(236.74, 124.666)">
	<path id="XMLID_13_" class="st0" d="M54.4,193.6v-30.5c0-7.8,5.4-12.5,16.2-13.9c1.1-0.2,2.4-0.2,3.5-0.2h24.4
		c1.2,0,2.4,0.1,3.6,0.2c10.8,1.5,16.2,6.2,16.2,13.9v30.5c0,6.3-2.3,9.7-7.6,11.9l12.7,11.4h-14.9l-10.2-9.2l-10.3,0.7H74
		c-2.4,0-4.8-0.3-7.5-1.1C58.3,205,54.4,200.7,54.4,193.6z M68.2,192.8c0,0.4,0.1,0.8,0.2,1.3c0.7,3.5,4.1,5.5,9.2,5.5h11.7
		L78.6,190h14.9l9.3,8.4c1.7-0.9,2.9-2.3,3.3-4.1c0.1-0.4,0.1-0.8,0.1-1.2v-29.3c0-0.3,0-0.7-0.1-1.2c-0.7-3.3-4.1-5.2-9-5.2H77.6
		c-5.7,0-9.4,2.5-9.4,6.4V192.8z"/>
</g>
<g id="XMLID_10_" transform="translate(241.59, -4.64258)">
	<path id="XMLID_11_" class="st0" d="M189.7,263.9c-7.9-0.2-13.9,0.5-19.1,2.7c-1.5,0.6-3.8,0.6-4,2.5c0.8,0.8,0.9,2.1,1.6,3.1
		c1.2,2,3.3,4.7,5.2,6.1c2,1.5,4.1,3.2,6.3,4.5c3.9,2.4,8.2,3.7,11.9,6.1c2.2,1.4,4.4,3.1,6.5,4.7c1.1,0.8,1.8,2,3.1,2.5
		c0-0.1,0-0.1,0-0.2c-0.7-0.9-0.9-2.2-1.6-3.1c-1-1-1.9-1.9-2.9-2.9c-2.9-3.8-6.5-7.1-10.3-9.9c-3.1-2.2-9.9-5.2-11.2-8.8
		c-0.1-0.1-0.1-0.1-0.2-0.2c2.2-0.2,4.7-1,6.7-1.6c3.4-0.9,6.4-0.7,9.9-1.6c1.6-0.4,3.1-0.9,4.7-1.3c0-0.3,0-0.6,0-0.9
		c-1.8-1.8-3-4.2-4.9-5.8c-5-4.3-10.5-8.6-16.2-12.1c-3.1-2-7-3.3-10.3-4.9c-1.1-0.6-3.1-0.9-3.8-1.8c-1.7-2.2-2.7-5-4-7.6
		c-2.8-5.4-5.6-11.4-8.1-17.1c-1.7-3.9-2.8-7.7-4.9-11.2c-10.2-16.8-21.2-26.9-38.2-36.8c-3.6-2.1-8-2.9-12.6-4
		c-2.5-0.1-4.9-0.3-7.4-0.4c-1.5-0.6-3.1-2.5-4.5-3.4c-5.6-3.6-20.1-11.3-24.2-1.1c-2.6,6.4,3.9,12.7,6.3,15.9
		c1.6,2.3,3.8,4.8,4.9,7.4c0.8,1.7,0.9,3.4,1.6,5.2c1.6,4.4,3.1,9.2,5.2,13.2c1.1,2.1,2.2,4.2,3.6,6.1c0.8,1.1,2.2,1.6,2.5,3.4
		c-1.4,1.9-1.5,5-2.2,7.4c-3.5,11.1-2.2,24.8,2.9,33c1.6,2.5,5.3,7.9,10.3,5.8c4.4-1.8,3.4-7.4,4.7-12.3c0.3-1.1,0.1-1.9,0.7-2.7
		c0,0.1,0,0.1,0,0.2c1.3,2.7,2.7,5.4,4,8.1c3,4.8,8.3,9.8,12.8,13.2c2.3,1.8,4.2,4.8,7.2,5.8c0-0.1,0-0.1,0-0.2c-0.1,0-0.2,0-0.2,0
		c-0.6-0.9-1.5-1.3-2.2-2c-1.8-1.7-3.7-3.9-5.2-5.8c-4.1-5.6-7.7-11.6-11-18c-1.6-3-2.9-6.4-4.3-9.4c-0.5-1.2-0.5-3-1.6-3.6
		c-1.5,2.3-3.6,4.1-4.7,6.7c-1.8,4.3-2,9.4-2.7,14.8c-0.4,0.1-0.2,0-0.5,0.2c-3.1-0.8-4.2-4-5.4-6.7c-2.9-7-3.5-18.2-0.9-26.3
		c0.7-2.1,3.7-8.6,2.5-10.5c-0.6-1.9-2.5-3-3.6-4.5c-1.3-1.8-2.7-4.2-3.6-6.3c-2.4-5.4-3.5-11.6-6.1-17.1c-1.2-2.6-3.3-5.3-4.9-7.6
		c-1.9-2.6-3.9-4.5-5.4-7.6c-0.5-1.1-1.2-2.9-0.4-4c0.2-0.8,0.6-1.1,1.3-1.3c1.3-1,4.9,0.3,6.3,0.9c3.6,1.5,6.6,2.9,9.7,4.9
		c1.5,1,2.9,2.8,4.7,3.4c0.7,0,1.3,0,2,0c3.2,0.7,6.7,0.2,9.7,1.1c5.2,1.6,9.9,4.1,14.1,6.7c12.9,8.2,23.5,19.8,30.8,33.7
		c1.2,2.2,1.7,4.4,2.7,6.7c2.1,4.8,4.7,9.7,6.7,14.4c2.1,4.7,4.1,9.4,7,13.2c1.5,2,7.4,3.1,10.1,4.3c1.9,0.8,5,1.6,6.7,2.7
		c3.4,2.1,6.7,4.5,9.9,6.7C184.5,259.4,189.4,261.8,189.7,263.9z"/>
</g>
<g id="XMLID_8_" transform="translate(272.504, 24.8027)">
	<path id="XMLID_9_" class="st0" d="M58.4,148.9c-1.6,0-2.8,0.2-4,0.4c0,0.1,0,0.2,0,0.2c0.1,0,0.2,0,0.2,0c0.8,1.6,2.2,2.7,3.1,4
		c0.7,1.6,1.5,3.1,2.2,4.7c0.1-0.1,0.1-0.1,0.2-0.2c1.4-1,2-2.5,2-4.9c-0.6-0.6-0.6-1.3-1.1-2C60.5,150.2,59.2,149.7,58.4,148.9z"/>
</g>
<g id="XMLID_2_" transform="translate(371.609, 165.56)">
	<path id="XMLID_3_" class="st0" d="M54.4,158.3c0,5.7,4.5,9.5,9.5,9.5s9.5-3.8,9.5-9.5c0-5.7-4.5-9.5-9.5-9.5
		S54.4,152.7,54.4,158.3z M71.2,158.3c0,4.3-3.3,7.5-7.3,7.5c-4.1,0-7.3-3.2-7.3-7.5c0-4.3,3.2-7.5,7.3-7.5
		C67.9,150.8,71.2,154,71.2,158.3z M66.4,163.7h2.1l-3.1-4.7c1.7-0.2,2.9-1,2.9-3c0-2.2-1.4-3.1-4.1-3.1H60v10.8h1.8v-4.7h1.7
		L66.4,163.7z M61.9,157.6v-3.1H64c1.1,0,2.4,0.2,2.4,1.5c0,1.5-1.2,1.6-2.5,1.6H61.9z"/>
</g>
</svg>
