<?xml version="1.0" encoding="utf-8"?>
<!-- Generator: Adobe Illustrator 19.0.0, SVG Export Plug-In . SVG Version: 6.00 Build 0)  -->
<svg version="1.1" id="Layer_2" xmlns="http://www.w3.org/2000/svg" xmlns:xlink="http://www.w3.org/1999/xlink" x="0px" y="0px"
	 viewBox="0 0 500 500" style="enable-background:new 0 0 500 500;" xml:space="preserve">
<style type="text/css">
	.st0{fill:#FFFFFF;}
	.st1{clip-path:url(#XMLID_21_);}
	.st2{clip-path:url(#XMLID_22_);}
	.st3{clip-path:url(#XMLID_25_);}
</style>
<path id="XMLID_17_" class="st0" d="M247.6,377c-1.4,0-2.7-0.4-3.9-1.1l-12.5-7.4c-1.9-1-1-1.4-0.3-1.6c2.5-0.9,3-1.1,5.7-2.6
	c0.3-0.2,0.6-0.1,0.9,0.1l9.6,5.7c0.3,0.2,0.8,0.2,1.2,0l37.5-21.6c0.3-0.2,0.6-0.6,0.6-1v-43.2c0-0.4-0.2-0.8-0.6-1l-37.4-21.6
	c-0.3-0.2-0.8-0.2-1.2,0l-37.4,21.6c-0.4,0.2-0.6,0.6-0.6,1v43.2c0,0.4,0.2,0.8,0.6,1l10.3,5.9c5.6,2.8,9-0.5,9-3.8v-42.7
	c0-0.6,0.5-1.1,1.1-1.1h4.7c0.6,0,1.1,0.5,1.1,1.1v42.7c0,7.4-4.1,11.7-11.1,11.7c-2.2,0-3.9,0-8.6-2.3l-9.8-5.7
	c-2.4-1.4-3.9-4-3.9-6.8v-43.2c0-2.8,1.5-5.4,3.9-6.8l37.5-21.6c2.4-1.3,5.5-1.3,7.9,0l37.4,21.6c2.4,1.4,3.9,4,3.9,6.8v43.2
	c0,2.8-1.5,5.4-3.9,6.8l-37.4,21.6C250.4,376.6,249,377,247.6,377"/>
<path id="XMLID_37_" class="st0" d="M259.2,347.2c-16.4,0-19.8-7.5-19.8-13.8c0-0.6,0.5-1.1,1.1-1.1h4.8c0.5,0,1,0.4,1.1,0.9
	c0.7,4.9,2.9,7.4,12.8,7.4c7.9,0,11.3-1.8,11.3-6c0-2.4-1-4.2-13.2-5.4c-10.3-1-16.6-3.3-16.6-11.5c0-7.6,6.4-12.1,17.1-12.1
	c12,0,17.9,4.2,18.7,13.1c0,0.3-0.1,0.6-0.3,0.8c-0.2,0.2-0.5,0.3-0.8,0.3h-4.9c-0.5,0-0.9-0.4-1.1-0.8c-1.2-5.2-4-6.8-11.7-6.8
	c-8.6,0-9.6,3-9.6,5.3c0,2.7,1.2,3.5,12.8,5.1c11.5,1.5,17,3.7,17,11.8C277.8,342.6,271,347.3,259.2,347.2 M304.8,301.4h1.3
	c1,0,1.2-0.7,1.2-1.1c0-1.1-0.8-1.1-1.2-1.1h-1.3L304.8,301.4z M303.2,297.9h2.8c1,0,2.8,0,2.8,2.1c0,1.5-1,1.8-1.5,2
	c1.1,0.1,1.2,0.8,1.3,1.8c0.1,0.6,0.2,1.8,0.4,2.1h-1.7c0-0.4-0.3-2.4-0.3-2.6c-0.1-0.5-0.3-0.7-0.8-0.7h-1.4v3.2h-1.6V297.9z
	 M299.9,301.9c0,3.4,2.7,6.1,6,6.1c3.4,0,6.1-2.8,6.1-6.1c0-3.4-2.7-6-6.1-6C302.6,295.9,299.9,298.5,299.9,301.9 M313.1,301.9
	c0,4-3.3,7.2-7.2,7.2c-3.9,0-7.2-3.2-7.2-7.2c0-4.1,3.4-7.2,7.2-7.2C309.8,294.7,313.1,297.9,313.1,301.9"/>
<path id="XMLID_32_" class="st0" d="M131.6,207.9c0-1.7-0.9-3.3-2.4-4.2l-39.7-22.8c-0.7-0.4-1.4-0.6-2.2-0.6h-0.4
	c-0.8,0-1.5,0.2-2.2,0.6L45,203.7c-1.5,0.9-2.4,2.4-2.4,4.2l0.1,61.5c0,0.9,0.4,1.7,1.2,2.1c0.7,0.5,1.7,0.5,2.4,0L69.9,258
	c1.5-0.9,2.4-2.5,2.4-4.2v-28.7c0-1.7,0.9-3.3,2.4-4.2l10.1-5.8c0.7-0.4,1.6-0.6,2.4-0.6c0.8,0,1.7,0.2,2.4,0.6l10,5.8
	c1.5,0.9,2.4,2.4,2.4,4.2v28.7c0,1.7,0.9,3.3,2.4,4.2l23.6,13.5c0.7,0.4,1.7,0.4,2.4,0c0.7-0.4,1.2-1.2,1.2-2.1L131.6,207.9z
	 M319,239.9c0,0.4-0.2,0.8-0.6,1l-13.6,7.9c-0.4,0.2-0.8,0.2-1.2,0l-13.6-7.9c-0.4-0.2-0.6-0.6-0.6-1v-15.7c0-0.4,0.2-0.8,0.6-1
	l13.6-7.9c0.4-0.2,0.8-0.2,1.2,0l13.6,7.9c0.4,0.2,0.6,0.6,0.6,1L319,239.9z M322.7,123.3c-0.7-0.4-1.7-0.4-2.4,0
	c-0.7,0.4-1.2,1.2-1.2,2.1v60.9c0,0.6-0.3,1.2-0.8,1.5c-0.5,0.3-1.2,0.3-1.7,0l-9.9-5.7c-1.5-0.9-3.3-0.9-4.8,0L262.2,205
	c-1.5,0.9-2.4,2.4-2.4,4.1V255c0,1.7,0.9,3.3,2.4,4.2l39.7,22.9c1.5,0.9,3.3,0.9,4.8,0l39.7-23c1.5-0.9,2.4-2.4,2.4-4.2V140.7
	c0-1.7-0.9-3.3-2.5-4.2L322.7,123.3z M455,223.8c1.5-0.9,2.4-2.4,2.4-4.1v-11.1c0-1.7-0.9-3.3-2.4-4.1l-39.5-22.9
	c-1.5-0.9-3.3-0.9-4.8,0L371,204.4c-1.5,0.9-2.4,2.4-2.4,4.2v45.8c0,1.7,0.9,3.3,2.4,4.2l39.5,22.5c1.5,0.8,3.2,0.8,4.7,0l23.9-13.3
	c0.8-0.4,1.2-1.2,1.2-2.1s-0.5-1.7-1.2-2.1l-40-22.9c-0.8-0.4-1.2-1.2-1.2-2.1v-14.4c0-0.9,0.5-1.7,1.2-2.1l12.4-7.2
	c0.7-0.4,1.7-0.4,2.4,0l12.4,7.2c0.7,0.4,1.2,1.2,1.2,2.1v11.3c0,0.9,0.5,1.7,1.2,2.1c0.7,0.4,1.7,0.4,2.4,0L455,223.8z"/>
<path id="XMLID_7_" class="st0" d="M412.5,221.6c0.3-0.2,0.6-0.2,0.9,0l7.6,4.4c0.3,0.2,0.5,0.5,0.5,0.8v8.8c0,0.3-0.2,0.6-0.5,0.8
	l-7.6,4.4c-0.3,0.2-0.6,0.2-0.9,0l-7.6-4.4c-0.3-0.2-0.5-0.5-0.5-0.8v-8.8c0-0.3,0.2-0.6,0.5-0.8L412.5,221.6z"/>
<g id="XMLID_27_">
	<defs>
		<path id="XMLID_6_" d="M193.3,181.7l-39.5,22.8c-1.5,0.9-2.4,2.4-2.4,4.1v45.6c0,1.7,0.9,3.3,2.4,4.1l39.5,22.8
			c1.5,0.9,3.3,0.9,4.8,0l39.5-22.8c1.5-0.9,2.4-2.4,2.4-4.1v-45.6c0-1.7-0.9-3.3-2.4-4.1l-39.5-22.8c-0.7-0.4-1.6-0.6-2.4-0.6
			S194,181.3,193.3,181.7"/>
	</defs>
	<use xlink:href="#XMLID_6_"  style="overflow:visible;fill:#FFFFFF;"/>
	<clipPath id="XMLID_21_">
		<use xlink:href="#XMLID_6_"  style="overflow:visible;"/>
	</clipPath>
	<g id="XMLID_28_" transform="translate(-78.306 -164.016)" class="st1">
		<path id="XMLID_5_" class="st0" d="M358.2,364.6l-111.3-54.6l-57.1,116.4L301.1,481L358.2,364.6z"/>
	</g>
</g>
<g id="XMLID_23_">
	<defs>
		<path id="XMLID_4_" d="M152.4,257.1c0.4,0.5,0.9,0.9,1.4,1.2l33.9,19.6l5.6,3.2c0.8,0.5,1.8,0.7,2.8,0.6c0.3,0,0.6-0.1,0.9-0.2
			l41.7-76.3c-0.3-0.3-0.7-0.6-1.1-0.9l-25.9-14.9l-13.7-7.9c-0.4-0.2-0.8-0.4-1.2-0.5L152.4,257.1z"/>
	</defs>
	<use xlink:href="#XMLID_4_"  style="overflow:visible;fill:#FFFFFF;"/>
	<clipPath id="XMLID_22_">
		<use xlink:href="#XMLID_4_"  style="overflow:visible;"/>
	</clipPath>
	<g id="XMLID_24_" transform="translate(-78.306 -164.016)" class="st2">
		<path id="XMLID_3_" class="st0" d="M182.6,380.8l78.6,106.4l103.9-76.8L286.5,304L182.6,380.8z"/>
	</g>
</g>
<g id="XMLID_19_">
	<defs>
		<path id="XMLID_2_" d="M195.2,181.1c-0.7,0.1-1.3,0.3-1.9,0.6l-39.4,22.7l42.5,77.4c0.6-0.1,1.2-0.3,1.7-0.6l39.5-22.8
			c1.2-0.7,2.1-1.9,2.3-3.3l-43.3-74c-0.3-0.1-0.6-0.1-1-0.1C195.5,181,195.4,181.1,195.2,181.1"/>
	</defs>
	<use xlink:href="#XMLID_2_"  style="overflow:visible;fill:#FFFFFF;"/>
	<clipPath id="XMLID_25_">
		<use xlink:href="#XMLID_2_"  style="overflow:visible;"/>
	</clipPath>
	<g id="XMLID_20_" transform="translate(-78.306 -164.016)" class="st3">
		<path id="XMLID_1_" class="st0" d="M232.2,345.1v100.7h86V345.1H232.2z"/>
	</g>
</g>
</svg>
