<?xml version="1.0" encoding="utf-8"?>
<!-- Generator: Adobe Illustrator 19.0.0, SVG Export Plug-In . SVG Version: 6.00 Build 0)  -->
<svg version="1.1" id="Layer_2" xmlns="http://www.w3.org/2000/svg" xmlns:xlink="http://www.w3.org/1999/xlink" x="0px" y="0px"
	 viewBox="0 0 500 500" style="enable-background:new 0 0 500 500;" xml:space="preserve">
<style type="text/css">
	.st0{fill:#FFFFFF;}
</style>
<path id="XMLID_22_" class="st0" d="M180.9,225.2c2.6,2.8,3.1,8,1.7,15.5c-1.6,8.1-4.6,13.9-8.9,17.2c-4.4,3.4-11.3,5.1-20.5,5.1
	h-12l8.2-42h14.8C172.6,221,178.3,222.3,180.9,225.2z"/>
<path id="XMLID_25_" class="st0" d="M250,138.4c-117.2,0-212.2,50-212.2,111.6s95,111.6,212.2,111.6s212.2-50,212.2-111.6
	S367.2,138.4,250,138.4z M196.2,271.8c-5.1,4.8-10.8,8.2-17.1,10.2c-6.1,2-14,3-23.4,3h-19l-5.4,28c-0.2,1.1-1.2,2-2.3,2h-24.4
	c-0.7,0-1.3-0.4-1.8-0.9c-0.4-0.5-0.6-1.3-0.5-2l21.7-112c0.2-1.1,1.1-2.1,2.3-2.1h46.8c14.7,0,25.7,4.2,32.6,12.1
	c6.9,7.9,9.1,19.1,6.3,33c-1.1,5.7-3,11-5.6,15.7C204,263.5,200.5,267.9,196.2,271.8z M266.3,284.2c-0.4-0.5-0.6-1.2-0.5-1.9
	l9.6-49.5c0.9-4.7,0.7-8.1-0.6-9.5c-0.8-0.9-3.3-2.3-10.4-2.3H247l-12.1,62.2c-0.2,1.1-1.2,1.8-2.3,1.8h-24.2
	c-0.7,0-1.3-0.3-1.8-0.8c-0.4-0.5-0.6-1.2-0.5-1.9l21.7-111.7c0.2-1.1,1.2-1.7,2.3-1.7h24.2c0.7,0,1.3,0.1,1.8,0.6
	c0.4,0.5,0.6,1,0.5,1.6l-5.2,26.7h18.7c14.3,0,24,2.7,29.6,7.9c5.7,5.3,7.5,13.8,5.3,25.2l-10.1,52.1c-0.2,1.1-1.2,1.9-2.3,1.9
	h-24.6C267.4,285,266.8,284.7,266.3,284.2z M402.4,243.1c-1.1,5.7-3,11-5.6,15.7c-2.6,4.7-6.1,9.1-10.4,13
	c-5.1,4.8-10.8,8.2-17.1,10.2c-6.1,2-14,3-23.4,3h-19l-5.4,28c-0.2,1.1-1.2,2-2.3,2h-24.4c-0.7,0-1.3-0.5-1.8-1
	c-0.4-0.5-0.6-1.4-0.5-2L314.4,200c0.2-1.1,1.2-2,2.3-2h46.8c14.7,0,25.7,4.2,32.6,12.1C403,218,405.1,229.1,402.4,243.1z
	 M354.2,221h-14.8l-8.2,42h12c9.3,0,16.2-1.8,20.5-5.2c4.3-3.3,7.3-9.2,8.9-17.3c1.5-7.5,0.9-12.6-1.7-15.4
	C368.4,222.3,362.8,221,354.2,221z"/>
</svg>
