<?xml version="1.0" encoding="utf-8"?>
<!-- Generator: Adobe Illustrator 19.0.0, SVG Export Plug-In . SVG Version: 6.00 Build 0)  -->
<svg version="1.1" id="Layer_1" xmlns="http://www.w3.org/2000/svg" xmlns:xlink="http://www.w3.org/1999/xlink" x="0px" y="0px"
	 viewBox="0 0 500 500" style="enable-background:new 0 0 500 500;" xml:space="preserve">
<style type="text/css">
	.st0{fill:#FFFFFF;}
</style>
<g id="g2303">
	<path id="path46" class="st0" d="M195.3,242.2c0-13.6-3.9-20.6-11.7-21c-3.1-0.1-6.1,0.3-9.1,1.5c-2.3,0.8-3.9,1.7-4.8,2.5v32.6
		c5,3.1,9.4,4.6,13.2,4.3C191.2,261.5,195.3,254.9,195.3,242.2z M204.9,242.7c0,6.9-1.6,12.7-4.9,17.3c-3.6,5.2-8.7,7.8-15.1,8
		c-4.9,0.2-9.9-1.4-15-4.6V293l-8.3-3v-65.7c1.4-1.7,3.1-3.1,5.3-4.3c5-2.9,11-4.4,18.1-4.5l0.1,0.1c6.5-0.1,11.5,2.6,15,8
		C203.3,228.6,204.9,235,204.9,242.7z"/>
	<path id="path48" class="st0" d="M255.9,262.1c0,9.3-0.9,15.7-2.8,19.3c-1.9,3.6-5.4,6.4-10.7,8.6c-4.3,1.7-8.9,2.6-13.8,2.7
		l-1.4-5.3c5-0.7,8.6-1.4,10.6-2.1c4-1.4,6.8-3.5,8.3-6.3c1.2-2.3,1.8-6.7,1.8-13.1v-2.2c-5.7,2.6-11.7,3.9-17.9,3.9
		c-4.1,0-7.7-1.3-10.9-3.9c-3.5-2.8-5.3-6.4-5.3-10.7v-34.7l8.3-2.9v35c0,3.7,1.2,6.6,3.6,8.6c2.4,2,5.5,3,9.4,2.9
		c3.8-0.1,7.9-1.6,12.3-4.5v-40.8h8.3V262.1z"/>
	<path id="path50" class="st0" d="M288.5,267.5c-1,0.1-1.9,0.1-2.7,0.1c-4.7,0-8.4-1.1-11-3.4c-2.6-2.3-3.9-5.4-3.9-9.3v-32.9h-5.7
		v-5.2h5.7v-13.9l8.3-3v16.9h9.4v5.2h-9.4v32.6c0,3.1,0.8,5.3,2.5,6.6c1.4,1.1,3.7,1.7,6.9,1.8V267.5z"/>
	<path id="path52" class="st0" d="M339,266.8h-8.3v-32.2c0-3.3-0.8-6.1-2.3-8.5c-1.8-2.7-4.2-4-7.3-4c-3.8,0-8.6,2-14.4,6.1v38.6
		h-8.3v-77l8.3-2.6v35.1c5.3-3.9,11.2-5.8,17.5-5.8c4.4,0,8,1.5,10.7,4.5c2.7,3,4.1,6.7,4.1,11.1V266.8L339,266.8z"/>
	<path id="path54" class="st0" d="M383.3,240.9c0-5.2-1-9.6-3-13c-2.4-4.2-6-6.4-11-6.6c-9.1,0.5-13.7,7.1-13.7,19.6
		c0,5.8,0.9,10.6,2.9,14.4c2.4,4.9,6.1,7.3,11,7.3C378.8,262.5,383.3,255.3,383.3,240.9z M392.5,240.9c0,7.5-1.9,13.7-5.7,18.6
		c-4.2,5.6-10,8.3-17.4,8.3c-7.3,0-13-2.8-17.1-8.3c-3.7-5-5.6-11.2-5.6-18.6c0-7,2-12.9,6.1-17.7c4.3-5.1,9.9-7.6,16.8-7.6
		s12.6,2.6,16.9,7.6C390.5,228,392.5,233.9,392.5,240.9z"/>
	<path id="path56" class="st0" d="M440.3,266.8H432v-34c0-3.7-1.1-6.6-3.4-8.7c-2.2-2.1-5.2-3.1-9-3c-4,0.1-7.7,1.4-11.3,3.9v41.9
		H400v-42.9c4.8-3.5,9.2-5.8,13.3-6.8c3.8-1,7.2-1.5,10.1-1.5c2,0,3.8,0.2,5.6,0.6c3.3,0.8,5.9,2.2,8,4.2c2.3,2.3,3.4,5,3.4,8.2
		V266.8z"/>
	<path id="path1948" class="st0" d="M79.1,190.2c-4.3,0-8.4,0.4-12,1c-10.6,1.9-12.6,5.8-12.6,13.1v9.6h25.1v3.2H54.5h-9.4
		c-7.3,0-13.7,4.4-15.7,12.7c-2.3,9.6-2.4,15.5,0,25.5c1.8,7.4,6,12.7,13.3,12.7h8.6v-11.5c0-8.3,7.2-15.6,15.7-15.6h25.1
		c7,0,12.6-5.7,12.6-12.8v-23.9c0-6.8-5.7-11.9-12.6-13.1C87.9,190.5,83.4,190.1,79.1,190.2z M65.5,197.9c2.6,0,4.7,2.2,4.7,4.8
		c0,2.6-2.1,4.8-4.7,4.8c-2.6,0-4.7-2.1-4.7-4.8C60.8,200,62.9,197.9,65.5,197.9z"/>
	<path id="path1950" class="st0" d="M107.9,217v11.2c0,8.6-7.3,15.9-15.7,15.9H67.1c-6.9,0-12.6,5.9-12.6,12.8v23.9
		c0,6.8,5.9,10.8,12.6,12.8c7.9,2.3,15.6,2.8,25.1,0c6.3-1.8,12.6-5.5,12.6-12.8v-9.6H79.7V268h25.1h12.6c7.3,0,10-5.1,12.6-12.7
		c2.6-7.9,2.5-15.4,0-25.5c-1.8-7.3-5.2-12.7-12.6-12.7H107.9z M93.8,277.6c2.6,0,4.7,2.1,4.7,4.8c0,2.6-2.1,4.8-4.7,4.8
		c-2.6,0-4.7-2.2-4.7-4.8C89.1,279.7,91.2,277.6,93.8,277.6z"/>
	<path id="text3004" class="st0" d="M456.6,209.4h1.5v-9.2h3.5v-1.1h-8.4v1.1h3.5V209.4 M462.8,209.4h1.2V201l2.7,8.4h1.4l2.8-8.3
		v8.4h1.4v-10.3h-1.8l-3.1,8.8l-2.6-8.8h-2V209.4"/>
</g>
</svg>
