<?xml version="1.0" encoding="utf-8"?>
<!-- Generator: Adobe Illustrator 19.0.0, SVG Export Plug-In . SVG Version: 6.00 Build 0)  -->
<svg version="1.1" id="Layer_1" xmlns="http://www.w3.org/2000/svg" xmlns:xlink="http://www.w3.org/1999/xlink" x="0px" y="0px"
	 viewBox="0 0 908.4 193.9" style="enable-background:new 0 0 908.4 193.9;" xml:space="preserve">
<style type="text/css">
	.st0{fill:#FFFFFF;}
</style>
<g id="XMLID_1_">
	<polygon id="XMLID_16_" class="st0" points="906.2,191.7 906.2,189.6 4.3,189.6 4.3,4.3 904,4.3 904,191.7 906.2,191.7 
		906.2,189.6 906.2,191.7 908.4,191.7 908.4,0 0,0 0,193.9 908.4,193.9 908.4,191.7 	"/>
	<path id="XMLID_17_" class="st0" d="M99,170.1v-2.2h0c-19.6,0-37.3-7.9-50.2-20.8C35.9,134.3,28,116.6,28,96.9v0
		c0-19.6,7.9-37.3,20.8-50.2C61.6,33.9,79.4,25.9,99,25.9l0,0c19.6,0,37.3,7.9,50.2,20.8C162,59.6,170,77.3,170,96.9v0
		c0,19.6-7.9,37.3-20.8,50.2c-12.9,12.9-30.6,20.8-50.2,20.8V170.1v2.2c41.6,0,75.3-33.7,75.3-75.3v0c0-41.6-33.7-75.3-75.3-75.3
		l0,0c-41.6,0-75.3,33.7-75.3,75.3v0c0,41.6,33.7,75.3,75.3,75.3h0V170.1z"/>
</g>
</svg>
